<?xml version="1.0" encoding="UTF-8" standalone="no"?><svg xmlns="http://www.w3.org/2000/svg" xmlns:xlink="http://www.w3.org/1999/xlink" contentScriptType="application/ecmascript" contentStyleType="text/css" height="446px" preserveAspectRatio="none" style="width:2534px;height:446px;" version="1.1" viewBox="0 0 2534 446" width="2534px" zoomAndPan="magnify"><defs><filter height="300%" id="fu27quciljt1g" width="300%" x="-1" y="-1"><feGaussianBlur result="blurOut" stdDeviation="2.0"/><feColorMatrix in="blurOut" result="blurOut2" type="matrix" values="0 0 0 0 0 0 0 0 0 0 0 0 0 0 0 0 0 0 .4 0"/><feOffset dx="4.0" dy="4.0" in="blurOut2" result="blurOut3"/><feBlend in="SourceGraphic" in2="blurOut3" mode="normal"/></filter></defs><g><!--MD5=[adad6692de9b4f45b6efc9c17ef7d7cf]
class _CertificateGrant1_--><rect codeLine="1" fill="#FEFECE" filter="url(#fu27quciljt1g)" height="112.0234" id="_CertificateGrant1_" style="stroke:#A80036;stroke-width:1.5;" width="308" x="1197" y="7"/><ellipse cx="1286.75" cy="23" fill="#ADD1B2" rx="11" ry="11" style="stroke:#A80036;stroke-width:1.0;"/><path d="M1289.0938,18.6719 C1288.1563,18.2344 1287.5625,18.0938 1286.6875,18.0938 C1284.0625,18.0938 1282.0625,20.1719 1282.0625,22.8906 L1282.0625,24.0156 C1282.0625,26.5938 1284.1719,28.4844 1287.0625,28.4844 C1288.2813,28.4844 1289.4375,28.1875 1290.1875,27.6406 C1290.7656,27.2344 1291.0938,26.7813 1291.0938,26.3906 C1291.0938,25.9375 1290.7031,25.5469 1290.2344,25.5469 C1290.0156,25.5469 1289.8125,25.625 1289.625,25.8125 C1289.1719,26.2969 1289.1719,26.2969 1288.9844,26.3906 C1288.5625,26.6563 1287.875,26.7813 1287.1094,26.7813 C1285.0625,26.7813 1283.7656,25.6875 1283.7656,23.9844 L1283.7656,22.8906 C1283.7656,21.1094 1285.0156,19.7969 1286.75,19.7969 C1287.3281,19.7969 1287.9375,19.9531 1288.4063,20.2031 C1288.8906,20.4844 1289.0625,20.7031 1289.1563,21.1094 C1289.2188,21.5156 1289.25,21.6406 1289.3906,21.7656 C1289.5313,21.9063 1289.7656,22.0156 1289.9844,22.0156 C1290.25,22.0156 1290.5156,21.875 1290.6875,21.6563 C1290.7969,21.5 1290.8281,21.3125 1290.8281,20.8906 L1290.8281,19.4688 C1290.8281,19.0313 1290.8125,18.9063 1290.7188,18.75 C1290.5625,18.4844 1290.2813,18.3438 1289.9844,18.3438 C1289.6875,18.3438 1289.4844,18.4375 1289.2656,18.75 L1289.0938,18.6719 Z " fill="#000000"/><text fill="#000000" font-family="sans-serif" font-size="12" lengthAdjust="spacingAndGlyphs" textLength="120" x="1307.25" y="27.1543">&lt;CertificateGrant1&gt;</text><line style="stroke:#A80036;stroke-width:1.5;" x1="1198" x2="1504" y1="39" y2="39"/><text fill="#000000" font-family="sans-serif" font-size="11" lengthAdjust="spacingAndGlyphs" textLength="125" x="1203" y="53.2104">a fsm:CertificateGrant</text><text fill="#000000" font-family="sans-serif" font-size="11" lengthAdjust="spacingAndGlyphs" textLength="216" x="1203" y="66.0151">gs1-epcis:eventID "certificate_grant2"</text><text fill="#000000" font-family="sans-serif" font-size="11" lengthAdjust="spacingAndGlyphs" textLength="294" x="1203" y="78.8198">gs1-epcis:eventTime "2019-08-22"^^xsd:dateTime</text><text fill="#000000" font-family="sans-serif" font-size="11" lengthAdjust="spacingAndGlyphs" textLength="213" x="1203" y="91.6245">gs1-epcis:eventTimeZoneOffset "00"</text><text fill="#000000" font-family="sans-serif" font-size="11" lengthAdjust="spacingAndGlyphs" textLength="296" x="1203" y="104.4292">gs1-epcis:recordTime "2020-12-02"^^xsd:dateTime</text><line style="stroke:#A80036;stroke-width:1.5;" x1="1198" x2="1504" y1="111.0234" y2="111.0234"/><!--MD5=[4a51bea00a1d8a4bf03667b6cc84e427]
class _Halal_Certificate_--><rect codeLine="3" fill="#FEFECE" filter="url(#fu27quciljt1g)" height="73.6094" id="_Halal_Certificate_" style="stroke:#A80036;stroke-width:1.5;" width="265" x="353.5" y="202"/><ellipse cx="423.75" cy="218" fill="#ADD1B2" rx="11" ry="11" style="stroke:#A80036;stroke-width:1.0;"/><path d="M426.0937,213.6719 C425.1562,213.2344 424.5625,213.0938 423.6875,213.0938 C421.0625,213.0938 419.0625,215.1719 419.0625,217.8906 L419.0625,219.0156 C419.0625,221.5938 421.1719,223.4844 424.0625,223.4844 C425.2812,223.4844 426.4375,223.1875 427.1875,222.6406 C427.7656,222.2344 428.0937,221.7813 428.0937,221.3906 C428.0937,220.9375 427.7031,220.5469 427.2344,220.5469 C427.0156,220.5469 426.8125,220.625 426.625,220.8125 C426.1719,221.2969 426.1719,221.2969 425.9844,221.3906 C425.5625,221.6563 424.875,221.7813 424.1094,221.7813 C422.0625,221.7813 420.7656,220.6875 420.7656,218.9844 L420.7656,217.8906 C420.7656,216.1094 422.0156,214.7969 423.75,214.7969 C424.3281,214.7969 424.9375,214.9531 425.4062,215.2031 C425.8906,215.4844 426.0625,215.7031 426.1562,216.1094 C426.2187,216.5156 426.25,216.6406 426.3906,216.7656 C426.5312,216.9063 426.7656,217.0156 426.9844,217.0156 C427.25,217.0156 427.5156,216.875 427.6875,216.6563 C427.7969,216.5 427.8281,216.3125 427.8281,215.8906 L427.8281,214.4688 C427.8281,214.0313 427.8125,213.9063 427.7187,213.75 C427.5625,213.4844 427.2812,213.3438 426.9844,213.3438 C426.6875,213.3438 426.4844,213.4375 426.2656,213.75 L426.0937,213.6719 Z " fill="#000000"/><text fill="#000000" font-family="sans-serif" font-size="12" lengthAdjust="spacingAndGlyphs" textLength="116" x="444.25" y="222.1543">&lt;Halal_Certificate&gt;</text><line style="stroke:#A80036;stroke-width:1.5;" x1="354.5" x2="617.5" y1="234" y2="234"/><text fill="#000000" font-family="sans-serif" font-size="11" lengthAdjust="spacingAndGlyphs" textLength="94" x="359.5" y="248.2104">a fsm:Certificate</text><text fill="#000000" font-family="sans-serif" font-size="11" lengthAdjust="spacingAndGlyphs" textLength="253" x="359.5" y="261.0151">gs1:expirationDate "2021-03-31"^^xsd:date</text><line style="stroke:#A80036;stroke-width:1.5;" x1="354.5" x2="617.5" y1="267.6094" y2="267.6094"/><!--MD5=[05e8c5497b5235308a932f26358fe011]
class _Organization1_--><rect codeLine="5" fill="#FEFECE" filter="url(#fu27quciljt1g)" height="73.6094" id="_Organization1_" style="stroke:#A80036;stroke-width:1.5;" width="253" x="653.5" y="202"/><ellipse cx="724.25" cy="218" fill="#ADD1B2" rx="11" ry="11" style="stroke:#A80036;stroke-width:1.0;"/><path d="M726.5938,213.6719 C725.6563,213.2344 725.0625,213.0938 724.1875,213.0938 C721.5625,213.0938 719.5625,215.1719 719.5625,217.8906 L719.5625,219.0156 C719.5625,221.5938 721.6719,223.4844 724.5625,223.4844 C725.7813,223.4844 726.9375,223.1875 727.6875,222.6406 C728.2656,222.2344 728.5938,221.7813 728.5938,221.3906 C728.5938,220.9375 728.2031,220.5469 727.7344,220.5469 C727.5156,220.5469 727.3125,220.625 727.125,220.8125 C726.6719,221.2969 726.6719,221.2969 726.4844,221.3906 C726.0625,221.6563 725.375,221.7813 724.6094,221.7813 C722.5625,221.7813 721.2656,220.6875 721.2656,218.9844 L721.2656,217.8906 C721.2656,216.1094 722.5156,214.7969 724.25,214.7969 C724.8281,214.7969 725.4375,214.9531 725.9063,215.2031 C726.3906,215.4844 726.5625,215.7031 726.6563,216.1094 C726.7188,216.5156 726.75,216.6406 726.8906,216.7656 C727.0313,216.9063 727.2656,217.0156 727.4844,217.0156 C727.75,217.0156 728.0156,216.875 728.1875,216.6563 C728.2969,216.5 728.3281,216.3125 728.3281,215.8906 L728.3281,214.4688 C728.3281,214.0313 728.3125,213.9063 728.2188,213.75 C728.0625,213.4844 727.7813,213.3438 727.4844,213.3438 C727.1875,213.3438 726.9844,213.4375 726.7656,213.75 L726.5938,213.6719 Z " fill="#000000"/><text fill="#000000" font-family="sans-serif" font-size="12" lengthAdjust="spacingAndGlyphs" textLength="103" x="744.75" y="222.1543">&lt;Organization1&gt;</text><line style="stroke:#A80036;stroke-width:1.5;" x1="654.5" x2="905.5" y1="234" y2="234"/><text fill="#000000" font-family="sans-serif" font-size="11" lengthAdjust="spacingAndGlyphs" textLength="106" x="659.5" y="248.2104">a gs1:Organization</text><text fill="#000000" font-family="sans-serif" font-size="11" lengthAdjust="spacingAndGlyphs" textLength="241" x="659.5" y="261.0151">gs1:organizationName "NSE Products, Inc."</text><line style="stroke:#A80036;stroke-width:1.5;" x1="654.5" x2="905.5" y1="267.6094" y2="267.6094"/><!--MD5=[6705633e1c8fc35d9888806550b0d2b9]
class _TheIslamicFoodAndNutritionCouncilOfAmerica_--><rect codeLine="7" fill="#FEFECE" filter="url(#fu27quciljt1g)" height="73.6094" id="_TheIslamicFoodAndNutritionCouncilOfAmerica_" style="stroke:#A80036;stroke-width:1.5;" width="439" x="941.5" y="202"/><ellipse cx="1010.75" cy="218" fill="#ADD1B2" rx="11" ry="11" style="stroke:#A80036;stroke-width:1.0;"/><path d="M1013.0938,213.6719 C1012.1563,213.2344 1011.5625,213.0938 1010.6875,213.0938 C1008.0625,213.0938 1006.0625,215.1719 1006.0625,217.8906 L1006.0625,219.0156 C1006.0625,221.5938 1008.1719,223.4844 1011.0625,223.4844 C1012.2813,223.4844 1013.4375,223.1875 1014.1875,222.6406 C1014.7656,222.2344 1015.0938,221.7813 1015.0938,221.3906 C1015.0938,220.9375 1014.7031,220.5469 1014.2344,220.5469 C1014.0156,220.5469 1013.8125,220.625 1013.625,220.8125 C1013.1719,221.2969 1013.1719,221.2969 1012.9844,221.3906 C1012.5625,221.6563 1011.875,221.7813 1011.1094,221.7813 C1009.0625,221.7813 1007.7656,220.6875 1007.7656,218.9844 L1007.7656,217.8906 C1007.7656,216.1094 1009.0156,214.7969 1010.75,214.7969 C1011.3281,214.7969 1011.9375,214.9531 1012.4063,215.2031 C1012.8906,215.4844 1013.0625,215.7031 1013.1563,216.1094 C1013.2188,216.5156 1013.25,216.6406 1013.3906,216.7656 C1013.5313,216.9063 1013.7656,217.0156 1013.9844,217.0156 C1014.25,217.0156 1014.5156,216.875 1014.6875,216.6563 C1014.7969,216.5 1014.8281,216.3125 1014.8281,215.8906 L1014.8281,214.4688 C1014.8281,214.0313 1014.8125,213.9063 1014.7188,213.75 C1014.5625,213.4844 1014.2813,213.3438 1013.9844,213.3438 C1013.6875,213.3438 1013.4844,213.4375 1013.2656,213.75 L1013.0938,213.6719 Z " fill="#000000"/><text fill="#000000" font-family="sans-serif" font-size="12" lengthAdjust="spacingAndGlyphs" textLength="292" x="1031.25" y="222.1543">&lt;TheIslamicFoodAndNutritionCouncilOfAmerica&gt;</text><line style="stroke:#A80036;stroke-width:1.5;" x1="942.5" x2="1379.5" y1="234" y2="234"/><text fill="#000000" font-family="sans-serif" font-size="11" lengthAdjust="spacingAndGlyphs" textLength="132" x="947.5" y="248.2104">a fsm:CertificationBody</text><text fill="#000000" font-family="sans-serif" font-size="11" lengthAdjust="spacingAndGlyphs" textLength="427" x="947.5" y="261.0151">gs1:organizationName "The Islamic Food And Nutrition Council Of America"</text><line style="stroke:#A80036;stroke-width:1.5;" x1="942.5" x2="1379.5" y1="267.6094" y2="267.6094"/><!--MD5=[65ba5aab5b331cac875556c9c6e01c8b]
class urn_epcglobal_cbv_bizstep_receiving--><rect codeLine="9" fill="#FEFECE" filter="url(#fu27quciljt1g)" height="48" id="urn_epcglobal_cbv_bizstep_receiving" style="stroke:#A80036;stroke-width:1.5;" width="250" x="1416" y="215"/><ellipse cx="1431" cy="231" fill="#ADD1B2" rx="11" ry="11" style="stroke:#A80036;stroke-width:1.0;"/><path d="M1433.3438,226.6719 C1432.4063,226.2344 1431.8125,226.0938 1430.9375,226.0938 C1428.3125,226.0938 1426.3125,228.1719 1426.3125,230.8906 L1426.3125,232.0156 C1426.3125,234.5938 1428.4219,236.4844 1431.3125,236.4844 C1432.5313,236.4844 1433.6875,236.1875 1434.4375,235.6406 C1435.0156,235.2344 1435.3438,234.7813 1435.3438,234.3906 C1435.3438,233.9375 1434.9531,233.5469 1434.4844,233.5469 C1434.2656,233.5469 1434.0625,233.625 1433.875,233.8125 C1433.4219,234.2969 1433.4219,234.2969 1433.2344,234.3906 C1432.8125,234.6563 1432.125,234.7813 1431.3594,234.7813 C1429.3125,234.7813 1428.0156,233.6875 1428.0156,231.9844 L1428.0156,230.8906 C1428.0156,229.1094 1429.2656,227.7969 1431,227.7969 C1431.5781,227.7969 1432.1875,227.9531 1432.6563,228.2031 C1433.1406,228.4844 1433.3125,228.7031 1433.4063,229.1094 C1433.4688,229.5156 1433.5,229.6406 1433.6406,229.7656 C1433.7813,229.9063 1434.0156,230.0156 1434.2344,230.0156 C1434.5,230.0156 1434.7656,229.875 1434.9375,229.6563 C1435.0469,229.5 1435.0781,229.3125 1435.0781,228.8906 L1435.0781,227.4688 C1435.0781,227.0313 1435.0625,226.9063 1434.9688,226.75 C1434.8125,226.4844 1434.5313,226.3438 1434.2344,226.3438 C1433.9375,226.3438 1433.7344,226.4375 1433.5156,226.75 L1433.3438,226.6719 Z " fill="#000000"/><text fill="#000000" font-family="sans-serif" font-size="12" lengthAdjust="spacingAndGlyphs" textLength="218" x="1445" y="235.1543">urn:epcglobal:cbv:bizstep:receiving</text><line style="stroke:#A80036;stroke-width:1.5;" x1="1417" x2="1665" y1="247" y2="247"/><line style="stroke:#A80036;stroke-width:1.5;" x1="1417" x2="1665" y1="255" y2="255"/><!--MD5=[7c70f83b40655f95ab0ea3758d8d8ba0]
class urn_epcglobal_cbv_disp_active--><rect codeLine="11" fill="#FEFECE" filter="url(#fu27quciljt1g)" height="48" id="urn_epcglobal_cbv_disp_active" style="stroke:#A80036;stroke-width:1.5;" width="211" x="1701.5" y="215"/><ellipse cx="1716.5" cy="231" fill="#ADD1B2" rx="11" ry="11" style="stroke:#A80036;stroke-width:1.0;"/><path d="M1718.8438,226.6719 C1717.9063,226.2344 1717.3125,226.0938 1716.4375,226.0938 C1713.8125,226.0938 1711.8125,228.1719 1711.8125,230.8906 L1711.8125,232.0156 C1711.8125,234.5938 1713.9219,236.4844 1716.8125,236.4844 C1718.0313,236.4844 1719.1875,236.1875 1719.9375,235.6406 C1720.5156,235.2344 1720.8438,234.7813 1720.8438,234.3906 C1720.8438,233.9375 1720.4531,233.5469 1719.9844,233.5469 C1719.7656,233.5469 1719.5625,233.625 1719.375,233.8125 C1718.9219,234.2969 1718.9219,234.2969 1718.7344,234.3906 C1718.3125,234.6563 1717.625,234.7813 1716.8594,234.7813 C1714.8125,234.7813 1713.5156,233.6875 1713.5156,231.9844 L1713.5156,230.8906 C1713.5156,229.1094 1714.7656,227.7969 1716.5,227.7969 C1717.0781,227.7969 1717.6875,227.9531 1718.1563,228.2031 C1718.6406,228.4844 1718.8125,228.7031 1718.9063,229.1094 C1718.9688,229.5156 1719,229.6406 1719.1406,229.7656 C1719.2813,229.9063 1719.5156,230.0156 1719.7344,230.0156 C1720,230.0156 1720.2656,229.875 1720.4375,229.6563 C1720.5469,229.5 1720.5781,229.3125 1720.5781,228.8906 L1720.5781,227.4688 C1720.5781,227.0313 1720.5625,226.9063 1720.4688,226.75 C1720.3125,226.4844 1720.0313,226.3438 1719.7344,226.3438 C1719.4375,226.3438 1719.2344,226.4375 1719.0156,226.75 L1718.8438,226.6719 Z " fill="#000000"/><text fill="#000000" font-family="sans-serif" font-size="12" lengthAdjust="spacingAndGlyphs" textLength="179" x="1730.5" y="235.1543">urn:epcglobal:cbv:disp:active</text><line style="stroke:#A80036;stroke-width:1.5;" x1="1702.5" x2="1911.5" y1="247" y2="247"/><line style="stroke:#A80036;stroke-width:1.5;" x1="1702.5" x2="1911.5" y1="255" y2="255"/><!--MD5=[bef12f541dae63c078c790d43c2fd069]
class _taxonomy_action_type_observe_--><rect codeLine="13" fill="#FEFECE" filter="url(#fu27quciljt1g)" height="48" id="_taxonomy_action_type_observe_" style="stroke:#A80036;stroke-width:1.5;" width="239" x="1947.5" y="215"/><ellipse cx="1962.5" cy="231" fill="#ADD1B2" rx="11" ry="11" style="stroke:#A80036;stroke-width:1.0;"/><path d="M1964.8438,226.6719 C1963.9063,226.2344 1963.3125,226.0938 1962.4375,226.0938 C1959.8125,226.0938 1957.8125,228.1719 1957.8125,230.8906 L1957.8125,232.0156 C1957.8125,234.5938 1959.9219,236.4844 1962.8125,236.4844 C1964.0313,236.4844 1965.1875,236.1875 1965.9375,235.6406 C1966.5156,235.2344 1966.8438,234.7813 1966.8438,234.3906 C1966.8438,233.9375 1966.4531,233.5469 1965.9844,233.5469 C1965.7656,233.5469 1965.5625,233.625 1965.375,233.8125 C1964.9219,234.2969 1964.9219,234.2969 1964.7344,234.3906 C1964.3125,234.6563 1963.625,234.7813 1962.8594,234.7813 C1960.8125,234.7813 1959.5156,233.6875 1959.5156,231.9844 L1959.5156,230.8906 C1959.5156,229.1094 1960.7656,227.7969 1962.5,227.7969 C1963.0781,227.7969 1963.6875,227.9531 1964.1563,228.2031 C1964.6406,228.4844 1964.8125,228.7031 1964.9063,229.1094 C1964.9688,229.5156 1965,229.6406 1965.1406,229.7656 C1965.2813,229.9063 1965.5156,230.0156 1965.7344,230.0156 C1966,230.0156 1966.2656,229.875 1966.4375,229.6563 C1966.5469,229.5 1966.5781,229.3125 1966.5781,228.8906 L1966.5781,227.4688 C1966.5781,227.0313 1966.5625,226.9063 1966.4688,226.75 C1966.3125,226.4844 1966.0313,226.3438 1965.7344,226.3438 C1965.4375,226.3438 1965.2344,226.4375 1965.0156,226.75 L1964.8438,226.6719 Z " fill="#000000"/><text fill="#000000" font-family="sans-serif" font-size="12" lengthAdjust="spacingAndGlyphs" textLength="207" x="1976.5" y="235.1543">&lt;taxonomy/action_type/observe&gt;</text><line style="stroke:#A80036;stroke-width:1.5;" x1="1948.5" x2="2185.5" y1="247" y2="247"/><line style="stroke:#A80036;stroke-width:1.5;" x1="1948.5" x2="2185.5" y1="255" y2="255"/><!--MD5=[be08d27966bd926895fcf1cf0a0ccb2a]
class _gtin_37003902_--><rect codeLine="20" fill="#FEFECE" filter="url(#fu27quciljt1g)" height="73.6094" id="_gtin_37003902_" style="stroke:#A80036;stroke-width:1.5;" width="273" x="1617.5" y="359"/><ellipse cx="1694.75" cy="375" fill="#ADD1B2" rx="11" ry="11" style="stroke:#A80036;stroke-width:1.0;"/><path d="M1697.0938,370.6719 C1696.1563,370.2344 1695.5625,370.0938 1694.6875,370.0938 C1692.0625,370.0938 1690.0625,372.1719 1690.0625,374.8906 L1690.0625,376.0156 C1690.0625,378.5938 1692.1719,380.4844 1695.0625,380.4844 C1696.2813,380.4844 1697.4375,380.1875 1698.1875,379.6406 C1698.7656,379.2344 1699.0938,378.7813 1699.0938,378.3906 C1699.0938,377.9375 1698.7031,377.5469 1698.2344,377.5469 C1698.0156,377.5469 1697.8125,377.625 1697.625,377.8125 C1697.1719,378.2969 1697.1719,378.2969 1696.9844,378.3906 C1696.5625,378.6563 1695.875,378.7813 1695.1094,378.7813 C1693.0625,378.7813 1691.7656,377.6875 1691.7656,375.9844 L1691.7656,374.8906 C1691.7656,373.1094 1693.0156,371.7969 1694.75,371.7969 C1695.3281,371.7969 1695.9375,371.9531 1696.4063,372.2031 C1696.8906,372.4844 1697.0625,372.7031 1697.1563,373.1094 C1697.2188,373.5156 1697.25,373.6406 1697.3906,373.7656 C1697.5313,373.9063 1697.7656,374.0156 1697.9844,374.0156 C1698.25,374.0156 1698.5156,373.875 1698.6875,373.6563 C1698.7969,373.5 1698.8281,373.3125 1698.8281,372.8906 L1698.8281,371.4688 C1698.8281,371.0313 1698.8125,370.9063 1698.7188,370.75 C1698.5625,370.4844 1698.2813,370.3438 1697.9844,370.3438 C1697.6875,370.3438 1697.4844,370.4375 1697.2656,370.75 L1697.0938,370.6719 Z " fill="#000000"/><text fill="#000000" font-family="sans-serif" font-size="12" lengthAdjust="spacingAndGlyphs" textLength="110" x="1715.25" y="379.1543">&lt;gtin/37003902&gt;</text><line style="stroke:#A80036;stroke-width:1.5;" x1="1618.5" x2="1889.5" y1="391" y2="391"/><text fill="#000000" font-family="sans-serif" font-size="11" lengthAdjust="spacingAndGlyphs" textLength="81" x="1623.5" y="405.2104">a gs1:Products</text><text fill="#000000" font-family="sans-serif" font-size="11" lengthAdjust="spacingAndGlyphs" textLength="261" x="1623.5" y="418.0151">gs1:productName "ageLoc Body Shaping Gel"</text><line style="stroke:#A80036;stroke-width:1.5;" x1="1618.5" x2="1889.5" y1="424.6094" y2="424.6094"/><!--MD5=[0a4256547333209b1d00ac39862cb8d9]
class _https_www_nuskin_com_content_nuskin_en_MY_products_nu_skin_halal_certificate__jcr_content_bodyContent_image_fef8_img_jpg_16eb5681485_cache_jpg_--><rect codeLine="22" fill="#FEFECE" filter="url(#fu27quciljt1g)" height="48" id="_https_www_nuskin_com_content_nuskin_en_MY_products_nu_skin_halal_certificate__jcr_content_bodyContent_image_fef8_img_jpg_16eb5681485_cache_jpg_" style="stroke:#A80036;stroke-width:1.5;" width="958" x="7" y="372"/><ellipse cx="22" cy="388" fill="#ADD1B2" rx="11" ry="11" style="stroke:#A80036;stroke-width:1.0;"/><path d="M24.3438,383.6719 C23.4063,383.2344 22.8125,383.0938 21.9375,383.0938 C19.3125,383.0938 17.3125,385.1719 17.3125,387.8906 L17.3125,389.0156 C17.3125,391.5938 19.4219,393.4844 22.3125,393.4844 C23.5313,393.4844 24.6875,393.1875 25.4375,392.6406 C26.0156,392.2344 26.3438,391.7813 26.3438,391.3906 C26.3438,390.9375 25.9531,390.5469 25.4844,390.5469 C25.2656,390.5469 25.0625,390.625 24.875,390.8125 C24.4219,391.2969 24.4219,391.2969 24.2344,391.3906 C23.8125,391.6563 23.125,391.7813 22.3594,391.7813 C20.3125,391.7813 19.0156,390.6875 19.0156,388.9844 L19.0156,387.8906 C19.0156,386.1094 20.2656,384.7969 22,384.7969 C22.5781,384.7969 23.1875,384.9531 23.6563,385.2031 C24.1406,385.4844 24.3125,385.7031 24.4063,386.1094 C24.4688,386.5156 24.5,386.6406 24.6406,386.7656 C24.7813,386.9063 25.0156,387.0156 25.2344,387.0156 C25.5,387.0156 25.7656,386.875 25.9375,386.6563 C26.0469,386.5 26.0781,386.3125 26.0781,385.8906 L26.0781,384.4688 C26.0781,384.0313 26.0625,383.9063 25.9688,383.75 C25.8125,383.4844 25.5313,383.3438 25.2344,383.3438 C24.9375,383.3438 24.7344,383.4375 24.5156,383.75 L24.3438,383.6719 Z " fill="#000000"/><text fill="#000000" font-family="sans-serif" font-size="12" lengthAdjust="spacingAndGlyphs" textLength="926" x="36" y="392.1543">&lt;https://www.nuskin.com/content/nuskin/en_MY/products/nu_skin/halal_certificate/_jcr_content/bodyContent/image_fef8.img.jpg/16eb5681485-cache.jpg&gt;</text><line style="stroke:#A80036;stroke-width:1.5;" x1="8" x2="964" y1="404" y2="404"/><line style="stroke:#A80036;stroke-width:1.5;" x1="8" x2="964" y1="412" y2="412"/><!--MD5=[2a681db367acbaa40d25ba6b3364da21]
class _gtin_37003902_lot_1_--><rect codeLine="31" fill="#FEFECE" filter="url(#fu27quciljt1g)" height="86.4141" id="_gtin_37003902_lot_1_" style="stroke:#A80036;stroke-width:1.5;" width="299" x="2221.5" y="196"/><ellipse cx="2296.75" cy="212" fill="#ADD1B2" rx="11" ry="11" style="stroke:#A80036;stroke-width:1.0;"/><path d="M2299.0938,207.6719 C2298.1563,207.2344 2297.5625,207.0938 2296.6875,207.0938 C2294.0625,207.0938 2292.0625,209.1719 2292.0625,211.8906 L2292.0625,213.0156 C2292.0625,215.5938 2294.1719,217.4844 2297.0625,217.4844 C2298.2813,217.4844 2299.4375,217.1875 2300.1875,216.6406 C2300.7656,216.2344 2301.0938,215.7813 2301.0938,215.3906 C2301.0938,214.9375 2300.7031,214.5469 2300.2344,214.5469 C2300.0156,214.5469 2299.8125,214.625 2299.625,214.8125 C2299.1719,215.2969 2299.1719,215.2969 2298.9844,215.3906 C2298.5625,215.6563 2297.875,215.7813 2297.1094,215.7813 C2295.0625,215.7813 2293.7656,214.6875 2293.7656,212.9844 L2293.7656,211.8906 C2293.7656,210.1094 2295.0156,208.7969 2296.75,208.7969 C2297.3281,208.7969 2297.9375,208.9531 2298.4063,209.2031 C2298.8906,209.4844 2299.0625,209.7031 2299.1563,210.1094 C2299.2188,210.5156 2299.25,210.6406 2299.3906,210.7656 C2299.5313,210.9063 2299.7656,211.0156 2299.9844,211.0156 C2300.25,211.0156 2300.5156,210.875 2300.6875,210.6563 C2300.7969,210.5 2300.8281,210.3125 2300.8281,209.8906 L2300.8281,208.4688 C2300.8281,208.0313 2300.8125,207.9063 2300.7188,207.75 C2300.5625,207.4844 2300.2813,207.3438 2299.9844,207.3438 C2299.6875,207.3438 2299.4844,207.4375 2299.2656,207.75 L2299.0938,207.6719 Z " fill="#000000"/><text fill="#000000" font-family="sans-serif" font-size="12" lengthAdjust="spacingAndGlyphs" textLength="140" x="2317.25" y="216.1543">&lt;gtin/37003902/lot/1&gt;</text><line style="stroke:#A80036;stroke-width:1.5;" x1="2222.5" x2="2519.5" y1="228" y2="228"/><text fill="#000000" font-family="sans-serif" font-size="11" lengthAdjust="spacingAndGlyphs" textLength="67" x="2227.5" y="242.2104">a fsm:Batch</text><text fill="#000000" font-family="sans-serif" font-size="11" lengthAdjust="spacingAndGlyphs" textLength="158" x="2227.5" y="255.0151">gs1:hasBatchLotNumber "1"</text><text fill="#000000" font-family="sans-serif" font-size="11" lengthAdjust="spacingAndGlyphs" textLength="287" x="2227.5" y="267.8198">gs1:productName "ageLoc Body Shaping Gel test"</text><line style="stroke:#A80036;stroke-width:1.5;" x1="2222.5" x2="2519.5" y1="274.4141" y2="274.4141"/><!--MD5=[ecf160785fe458617341785123f64fc8]
link _CertificateGrant1_ to _Halal_Certificate_--><path codeLine="4" d="M1196.75,88.333 C1051.38,112.243 827.832,151.532 636,196 C629.597,197.484 623.058,199.065 616.466,200.711 " fill="none" id="_CertificateGrant1_-to-_Halal_Certificate_" style="stroke:#A80036;stroke-width:1.0;"/><polygon fill="#A80036" points="611.416,201.982,621.12,203.665,616.2649,200.7619,619.1679,195.9068,611.416,201.982" style="stroke:#A80036;stroke-width:1.0;"/><text fill="#000000" font-family="sans-serif" font-size="13" lengthAdjust="spacingAndGlyphs" textLength="89" x="852" y="162.0669">gs1-epcis:epc</text><!--MD5=[d614daeda8415b12fb62ee7e0d3cb661]
link _CertificateGrant1_ to _Organization1_--><path codeLine="6" d="M1196.86,110.972 C1104.79,139.027 989.424,174.183 903.41,200.393 " fill="none" id="_CertificateGrant1_-to-_Organization1_" style="stroke:#A80036;stroke-width:1.0;"/><polygon fill="#A80036" points="898.563,201.87,908.3381,203.0735,903.346,200.4128,906.0066,195.4207,898.563,201.87" style="stroke:#A80036;stroke-width:1.0;"/><text fill="#000000" font-family="sans-serif" font-size="13" lengthAdjust="spacingAndGlyphs" textLength="137" x="1067" y="162.0669">gs1-epcis:destination</text><!--MD5=[5adec6440b6bbee6efd231425347df3c]
link _CertificateGrant1_ to _TheIslamicFoodAndNutritionCouncilOfAmerica_--><path codeLine="8" d="M1290.88,119.055 C1262.7,144.867 1229.75,175.035 1204.1,198.53 " fill="none" id="_CertificateGrant1_-to-_TheIslamicFoodAndNutritionCouncilOfAmerica_" style="stroke:#A80036;stroke-width:1.0;"/><polygon fill="#A80036" points="1200.37,201.947,1209.7046,198.8061,1204.0529,198.5652,1204.2937,192.9135,1200.37,201.947" style="stroke:#A80036;stroke-width:1.0;"/><text fill="#000000" font-family="sans-serif" font-size="13" lengthAdjust="spacingAndGlyphs" textLength="109" x="1257" y="162.0669">gs1-epcis:source</text><!--MD5=[fed0ac80f72de7edf114f78fd6f5327c]
link _CertificateGrant1_ to urn_epcglobal_cbv_bizstep_receiving--><path codeLine="10" d="M1411.12,119.055 C1444.69,149.801 1485.01,186.729 1511.73,211.197 " fill="none" id="_CertificateGrant1_-to-urn_epcglobal_cbv_bizstep_receiving" style="stroke:#A80036;stroke-width:1.0;"/><polygon fill="#A80036" points="1515.57,214.714,1511.6463,205.6805,1511.8871,211.3322,1506.2354,211.5731,1515.57,214.714" style="stroke:#A80036;stroke-width:1.0;"/><text fill="#000000" font-family="sans-serif" font-size="13" lengthAdjust="spacingAndGlyphs" textLength="151" x="1459" y="162.0669">gs1-epcis:businessStep</text><!--MD5=[a4500f2e4c05b401ce9146612713d420]
link _CertificateGrant1_ to urn_epcglobal_cbv_disp_active--><path codeLine="12" d="M1505.31,109.023 C1542.86,121.051 1582.66,134.71 1619,149 C1667.28,167.984 1720.58,193.689 1758.06,212.593 " fill="none" id="_CertificateGrant1_-to-urn_epcglobal_cbv_disp_active" style="stroke:#A80036;stroke-width:1.0;"/><polygon fill="#A80036" points="1762.55,214.864,1756.3056,207.2478,1758.0827,212.6182,1752.7123,214.3954,1762.55,214.864" style="stroke:#A80036;stroke-width:1.0;"/><text fill="#000000" font-family="sans-serif" font-size="13" lengthAdjust="spacingAndGlyphs" textLength="134" x="1657" y="162.0669">gs1-epcis:disposition</text><!--MD5=[1565ee55de65518ef2038fd2e7687ef0]
link _CertificateGrant1_ to _taxonomy_action_type_observe_--><path codeLine="14" d="M1505.14,87.9 C1592.32,102.731 1702.97,123.766 1800,149 C1869.54,167.085 1947.3,193.762 2000.88,213.192 " fill="none" id="_CertificateGrant1_-to-_taxonomy_action_type_observe_" style="stroke:#A80036;stroke-width:1.0;"/><polygon fill="#A80036" points="2005.66,214.931,1998.5578,208.1076,2000.9583,213.2299,1995.836,215.6303,2005.66,214.931" style="stroke:#A80036;stroke-width:1.0;"/><text fill="#000000" font-family="sans-serif" font-size="13" lengthAdjust="spacingAndGlyphs" textLength="105" x="1861" y="162.0669">gs1-epcis:action</text><!--MD5=[2dc4188434e0f979810dadf7a5394903]
link _Halal_Certificate_ to _gtin_37003902_--><path codeLine="21" d="M607.972,276.024 C617.412,278.238 626.833,280.267 636,282 C983.339,347.6734 1399.09,376.9905 1612.39,388.5161 " fill="none" id="_Halal_Certificate_-to-_gtin_37003902_" style="stroke:#A80036;stroke-width:1.0;"/><polygon fill="#A80036" points="1617.39,388.7851,1608.6204,384.3024,1612.3974,388.5137,1608.1861,392.2906,1617.39,388.7851" style="stroke:#A80036;stroke-width:1.0;"/><text fill="#000000" font-family="sans-serif" font-size="13" lengthAdjust="spacingAndGlyphs" textLength="79" x="911" y="325.0669">fsm:product</text><!--MD5=[a35c383577c49d23d926bf17535e5d30]
link _Halal_Certificate_ to _https_www_nuskin_com_content_nuskin_en_MY_products_nu_skin_halal_certificate__jcr_content_bodyContent_image_fef8_img_jpg_16eb5681485_cache_jpg_--><path codeLine="23" d="M486,276.341 C486,303.908 486,341.2632 486,366.6454 " fill="none" id="_Halal_Certificate_-to-_https_www_nuskin_com_content_nuskin_en_MY_products_nu_skin_halal_certificate__jcr_content_bodyContent_image_fef8_img_jpg_16eb5681485_cache_jpg_" style="stroke:#A80036;stroke-width:1.0;"/><polygon fill="#A80036" points="486,371.8721,490,362.8721,486,366.8721,482,362.8721,486,371.8721" style="stroke:#A80036;stroke-width:1.0;"/><text fill="#000000" font-family="sans-serif" font-size="13" lengthAdjust="spacingAndGlyphs" textLength="81" x="487" y="325.0669">gs1:linkType</text><!--MD5=[df1075925f456e5446dc6276e8953744]
link _gtin_37003902_lot_1_ to _gtin_37003902_--><path codeLine="33" d="M2221.24,277.668 C2215.42,279.131 2209.65,280.579 2204,282 C2100.88,307.915 1984.45,337.1499 1895.87,359.3899 " fill="none" id="_gtin_37003902_lot_1_-to-_gtin_37003902_" style="stroke:#A80036;stroke-width:1.0;"/><polygon fill="#A80036" points="1890.87,360.6438,1900.5767,362.311,1895.7169,359.4159,1898.612,354.556,1890.87,360.6438" style="stroke:#A80036;stroke-width:1.0;"/><text fill="#000000" font-family="sans-serif" font-size="13" lengthAdjust="spacingAndGlyphs" textLength="79" x="2081" y="325.0669">fsm:product</text><!--MD5=[4c250ad8a821339242046bae10487313]
@startuml
class _CertificateGrant1_ as "<CertificateGrant1>"
_CertificateGrant1_ : a fsm:CertificateGrant
class _Halal_Certificate_ as "<Halal_Certificate>"
_CertificateGrant1_ -down-> _Halal_Certificate_ : gs1-epcis:epc
class _Organization1_ as "<Organization1>"
_CertificateGrant1_ -down-> _Organization1_ : gs1-epcis:destination
class _TheIslamicFoodAndNutritionCouncilOfAmerica_ as "<TheIslamicFoodAndNutritionCouncilOfAmerica>"
_CertificateGrant1_ -down-> _TheIslamicFoodAndNutritionCouncilOfAmerica_ : gs1-epcis:source
class urn_epcglobal_cbv_bizstep_receiving as "urn:epcglobal:cbv:bizstep:receiving"
_CertificateGrant1_ -down-> urn_epcglobal_cbv_bizstep_receiving : gs1-epcis:businessStep
class urn_epcglobal_cbv_disp_active as "urn:epcglobal:cbv:disp:active"
_CertificateGrant1_ -down-> urn_epcglobal_cbv_disp_active : gs1-epcis:disposition
class _taxonomy_action_type_observe_ as "<taxonomy/action_type/observe>"
_CertificateGrant1_ -down-> _taxonomy_action_type_observe_ : gs1-epcis:action
_CertificateGrant1_ : gs1-epcis:eventID "certificate_grant2"
_CertificateGrant1_ : gs1-epcis:eventTime "2019-08-22"^^xsd:dateTime
_CertificateGrant1_ : gs1-epcis:eventTimeZoneOffset "00"
_CertificateGrant1_ : gs1-epcis:recordTime "2020-12-02"^^xsd:dateTime
_Halal_Certificate_ : a fsm:Certificate
class _gtin_37003902_ as "<gtin/37003902>"
_Halal_Certificate_ -down-> _gtin_37003902_ : fsm:product
class _https_www_nuskin_com_content_nuskin_en_MY_products_nu_skin_halal_certificate__jcr_content_bodyContent_image_fef8_img_jpg_16eb5681485_cache_jpg_ as "<https://www.nuskin.com/content/nuskin/en_MY/products/nu_skin/halal_certificate/_jcr_content/bodyContent/image_fef8.img.jpg/16eb5681485-cache.jpg>"
_Halal_Certificate_ -down-> _https_www_nuskin_com_content_nuskin_en_MY_products_nu_skin_halal_certificate__jcr_content_bodyContent_image_fef8_img_jpg_16eb5681485_cache_jpg_ : gs1:linkType
_Halal_Certificate_ : gs1:expirationDate "2021-03-31"^^xsd:date
_Organization1_ : a gs1:Organization
_Organization1_ : gs1:organizationName "NSE Products, Inc."
_TheIslamicFoodAndNutritionCouncilOfAmerica_ : a fsm:CertificationBody
_TheIslamicFoodAndNutritionCouncilOfAmerica_ : gs1:organizationName "The Islamic Food And Nutrition Council Of America"
_gtin_37003902_ : a gs1:Products
_gtin_37003902_ : gs1:productName "ageLoc Body Shaping Gel"
class _gtin_37003902_lot_1_ as "<gtin/37003902/lot/1>"
_gtin_37003902_lot_1_ : a fsm:Batch
_gtin_37003902_lot_1_ -down-> _gtin_37003902_ : fsm:product
_gtin_37003902_lot_1_ : gs1:hasBatchLotNumber "1"
_gtin_37003902_lot_1_ : gs1:productName "ageLoc Body Shaping Gel test"
@enduml

PlantUML version 1.2020.24beta4(Unknown compile time)
(GPL source distribution)
Java Runtime: Java(TM) SE Runtime Environment
JVM: Java HotSpot(TM) 64-Bit Server VM
Default Encoding: UTF-8
Language: en
Country: US
--></g></svg>