<?xml version="1.0" encoding="UTF-8" standalone="no"?><svg xmlns="http://www.w3.org/2000/svg" xmlns:xlink="http://www.w3.org/1999/xlink" contentScriptType="application/ecmascript" contentStyleType="text/css" height="660px" preserveAspectRatio="none" style="width:1808px;height:660px;" version="1.1" viewBox="0 0 1808 660" width="1808px" zoomAndPan="magnify"><defs><filter height="300%" id="f1qhrj7h1mjzw7" width="300%" x="-1" y="-1"><feGaussianBlur result="blurOut" stdDeviation="2.0"/><feColorMatrix in="blurOut" result="blurOut2" type="matrix" values="0 0 0 0 0 0 0 0 0 0 0 0 0 0 0 0 0 0 .4 0"/><feOffset dx="4.0" dy="4.0" in="blurOut2" result="blurOut3"/><feBlend in="SourceGraphic" in2="blurOut3" mode="normal"/></filter></defs><g><!--MD5=[914dda0f3408553e9dbeb676f62d87a9]
class CertificateGrant1--><rect codeLine="1" fill="#FEFECE" filter="url(#f1qhrj7h1mjzw7)" height="150.4375" id="CertificateGrant1" style="stroke:#A80036;stroke-width:1.5;" width="394" x="335.5" y="7"/><ellipse cx="478.25" cy="23" fill="#ADD1B2" rx="11" ry="11" style="stroke:#A80036;stroke-width:1.0;"/><path d="M480.5938,18.6719 C479.6563,18.2344 479.0625,18.0938 478.1875,18.0938 C475.5625,18.0938 473.5625,20.1719 473.5625,22.8906 L473.5625,24.0156 C473.5625,26.5938 475.6719,28.4844 478.5625,28.4844 C479.7813,28.4844 480.9375,28.1875 481.6875,27.6406 C482.2656,27.2344 482.5938,26.7813 482.5938,26.3906 C482.5938,25.9375 482.2031,25.5469 481.7344,25.5469 C481.5156,25.5469 481.3125,25.625 481.125,25.8125 C480.6719,26.2969 480.6719,26.2969 480.4844,26.3906 C480.0625,26.6563 479.375,26.7813 478.6094,26.7813 C476.5625,26.7813 475.2656,25.6875 475.2656,23.9844 L475.2656,22.8906 C475.2656,21.1094 476.5156,19.7969 478.25,19.7969 C478.8281,19.7969 479.4375,19.9531 479.9063,20.2031 C480.3906,20.4844 480.5625,20.7031 480.6563,21.1094 C480.7188,21.5156 480.75,21.6406 480.8906,21.7656 C481.0313,21.9063 481.2656,22.0156 481.4844,22.0156 C481.75,22.0156 482.0156,21.875 482.1875,21.6563 C482.2969,21.5 482.3281,21.3125 482.3281,20.8906 L482.3281,19.4688 C482.3281,19.0313 482.3125,18.9063 482.2188,18.75 C482.0625,18.4844 481.7813,18.3438 481.4844,18.3438 C481.1875,18.3438 480.9844,18.4375 480.7656,18.75 L480.5938,18.6719 Z " fill="#000000"/><text fill="#000000" font-family="sans-serif" font-size="12" lengthAdjust="spacingAndGlyphs" textLength="100" x="498.75" y="27.1543">CertificateGrant1</text><line style="stroke:#A80036;stroke-width:1.5;" x1="336.5" x2="728.5" y1="39" y2="39"/><text fill="#000000" font-family="sans-serif" font-size="11" lengthAdjust="spacingAndGlyphs" textLength="253" x="341.5" y="53.2104">a                                 fsm:CertificateGrant</text><text fill="#000000" font-family="sans-serif" font-size="11" lengthAdjust="spacingAndGlyphs" textLength="350" x="341.5" y="66.0151">gs1-epcis:eventTime               "22-08-2019"^^xsd:dateTime</text><text fill="#000000" font-family="sans-serif" font-size="11" lengthAdjust="spacingAndGlyphs" textLength="330" x="341.5" y="78.8198">gs1-epcis:recordTime              "02-12-2020"xsd:dateTime</text><text fill="#000000" font-family="sans-serif" font-size="11" lengthAdjust="spacingAndGlyphs" textLength="229" x="341.5" y="91.6245">gs1-epcis:eventTimeZoneOffset     "00"</text><text fill="#000000" font-family="sans-serif" font-size="11" lengthAdjust="spacingAndGlyphs" textLength="280" x="341.5" y="104.4292">gs1-epcis:eventID                 "certificate_grant2"</text><text fill="#000000" font-family="sans-serif" font-size="11" lengthAdjust="spacingAndGlyphs" textLength="359" x="341.5" y="117.2339">gs1-epcis:action                  &lt;taxonomy/action_type/observe&gt;</text><text fill="#000000" font-family="sans-serif" font-size="11" lengthAdjust="spacingAndGlyphs" textLength="382" x="341.5" y="130.0386">gs1-epcis:businessStep            urn:epcglobal:cbv:bizstep:receiving</text><text fill="#000000" font-family="sans-serif" font-size="11" lengthAdjust="spacingAndGlyphs" textLength="332" x="341.5" y="142.8433">gs1-epcis:disposition             urn:epcglobal:cbv:disp:active</text><line style="stroke:#A80036;stroke-width:1.5;" x1="336.5" x2="728.5" y1="149.4375" y2="149.4375"/><!--MD5=[4cc9c652b05b125f509887c8c4c96b22]
class Organization1--><rect codeLine="12" fill="#FEFECE" filter="url(#f1qhrj7h1mjzw7)" height="73.6094" id="Organization1" style="stroke:#A80036;stroke-width:1.5;" width="265" x="7" y="240"/><ellipse cx="93.75" cy="256" fill="#ADD1B2" rx="11" ry="11" style="stroke:#A80036;stroke-width:1.0;"/><path d="M96.0938,251.6719 C95.1563,251.2344 94.5625,251.0938 93.6875,251.0938 C91.0625,251.0938 89.0625,253.1719 89.0625,255.8906 L89.0625,257.0156 C89.0625,259.5938 91.1719,261.4844 94.0625,261.4844 C95.2813,261.4844 96.4375,261.1875 97.1875,260.6406 C97.7656,260.2344 98.0938,259.7813 98.0938,259.3906 C98.0938,258.9375 97.7031,258.5469 97.2344,258.5469 C97.0156,258.5469 96.8125,258.625 96.625,258.8125 C96.1719,259.2969 96.1719,259.2969 95.9844,259.3906 C95.5625,259.6563 94.875,259.7813 94.1094,259.7813 C92.0625,259.7813 90.7656,258.6875 90.7656,256.9844 L90.7656,255.8906 C90.7656,254.1094 92.0156,252.7969 93.75,252.7969 C94.3281,252.7969 94.9375,252.9531 95.4063,253.2031 C95.8906,253.4844 96.0625,253.7031 96.1563,254.1094 C96.2188,254.5156 96.25,254.6406 96.3906,254.7656 C96.5313,254.9063 96.7656,255.0156 96.9844,255.0156 C97.25,255.0156 97.5156,254.875 97.6875,254.6563 C97.7969,254.5 97.8281,254.3125 97.8281,253.8906 L97.8281,252.4688 C97.8281,252.0313 97.8125,251.9063 97.7188,251.75 C97.5625,251.4844 97.2813,251.3438 96.9844,251.3438 C96.6875,251.3438 96.4844,251.4375 96.2656,251.75 L96.0938,251.6719 Z " fill="#000000"/><text fill="#000000" font-family="sans-serif" font-size="12" lengthAdjust="spacingAndGlyphs" textLength="83" x="114.25" y="260.1543">Organization1</text><line style="stroke:#A80036;stroke-width:1.5;" x1="8" x2="271" y1="272" y2="272"/><text fill="#000000" font-family="sans-serif" font-size="11" lengthAdjust="spacingAndGlyphs" textLength="194" x="13" y="286.2104">a                       gs1:Organization</text><text fill="#000000" font-family="sans-serif" font-size="11" lengthAdjust="spacingAndGlyphs" textLength="253" x="13" y="299.0151">gs1:organizationName    "NSE Products, Inc."</text><line style="stroke:#A80036;stroke-width:1.5;" x1="8" x2="271" y1="305.6094" y2="305.6094"/><!--MD5=[25e1014d96d4838ec0aac029c2b177b9]
class TheIslamicFoodAndNutritionCouncilOfAmerica--><rect codeLine="18" fill="#FEFECE" filter="url(#f1qhrj7h1mjzw7)" height="73.6094" id="TheIslamicFoodAndNutritionCouncilOfAmerica" style="stroke:#A80036;stroke-width:1.5;" width="451" x="307" y="240"/><ellipse cx="392.25" cy="256" fill="#ADD1B2" rx="11" ry="11" style="stroke:#A80036;stroke-width:1.0;"/><path d="M394.5938,251.6719 C393.6563,251.2344 393.0625,251.0938 392.1875,251.0938 C389.5625,251.0938 387.5625,253.1719 387.5625,255.8906 L387.5625,257.0156 C387.5625,259.5938 389.6719,261.4844 392.5625,261.4844 C393.7813,261.4844 394.9375,261.1875 395.6875,260.6406 C396.2656,260.2344 396.5938,259.7813 396.5938,259.3906 C396.5938,258.9375 396.2031,258.5469 395.7344,258.5469 C395.5156,258.5469 395.3125,258.625 395.125,258.8125 C394.6719,259.2969 394.6719,259.2969 394.4844,259.3906 C394.0625,259.6563 393.375,259.7813 392.6094,259.7813 C390.5625,259.7813 389.2656,258.6875 389.2656,256.9844 L389.2656,255.8906 C389.2656,254.1094 390.5156,252.7969 392.25,252.7969 C392.8281,252.7969 393.4375,252.9531 393.9063,253.2031 C394.3906,253.4844 394.5625,253.7031 394.6563,254.1094 C394.7188,254.5156 394.75,254.6406 394.8906,254.7656 C395.0313,254.9063 395.2656,255.0156 395.4844,255.0156 C395.75,255.0156 396.0156,254.875 396.1875,254.6563 C396.2969,254.5 396.3281,254.3125 396.3281,253.8906 L396.3281,252.4688 C396.3281,252.0313 396.3125,251.9063 396.2188,251.75 C396.0625,251.4844 395.7813,251.3438 395.4844,251.3438 C395.1875,251.3438 394.9844,251.4375 394.7656,251.75 L394.5938,251.6719 Z " fill="#000000"/><text fill="#000000" font-family="sans-serif" font-size="12" lengthAdjust="spacingAndGlyphs" textLength="272" x="412.75" y="260.1543">TheIslamicFoodAndNutritionCouncilOfAmerica</text><line style="stroke:#A80036;stroke-width:1.5;" x1="308" x2="757" y1="272" y2="272"/><text fill="#000000" font-family="sans-serif" font-size="11" lengthAdjust="spacingAndGlyphs" textLength="220" x="313" y="286.2104">a                       fsm:CertificationBody</text><text fill="#000000" font-family="sans-serif" font-size="11" lengthAdjust="spacingAndGlyphs" textLength="439" x="313" y="299.0151">gs1:organizationName    "The Islamic Food And Nutrition Council Of America"</text><line style="stroke:#A80036;stroke-width:1.5;" x1="308" x2="757" y1="305.6094" y2="305.6094"/><!--MD5=[c988def7f7b4ca7830822af1ae1340a5]
class Halal_Certificate--><rect codeLine="23" fill="#FEFECE" filter="url(#f1qhrj7h1mjzw7)" height="86.4141" id="Halal_Certificate" style="stroke:#A80036;stroke-width:1.5;" width="1001" x="793" y="234"/><ellipse cx="1241.25" cy="250" fill="#ADD1B2" rx="11" ry="11" style="stroke:#A80036;stroke-width:1.0;"/><path d="M1243.5938,245.6719 C1242.6563,245.2344 1242.0625,245.0938 1241.1875,245.0938 C1238.5625,245.0938 1236.5625,247.1719 1236.5625,249.8906 L1236.5625,251.0156 C1236.5625,253.5938 1238.6719,255.4844 1241.5625,255.4844 C1242.7813,255.4844 1243.9375,255.1875 1244.6875,254.6406 C1245.2656,254.2344 1245.5938,253.7813 1245.5938,253.3906 C1245.5938,252.9375 1245.2031,252.5469 1244.7344,252.5469 C1244.5156,252.5469 1244.3125,252.625 1244.125,252.8125 C1243.6719,253.2969 1243.6719,253.2969 1243.4844,253.3906 C1243.0625,253.6563 1242.375,253.7813 1241.6094,253.7813 C1239.5625,253.7813 1238.2656,252.6875 1238.2656,250.9844 L1238.2656,249.8906 C1238.2656,248.1094 1239.5156,246.7969 1241.25,246.7969 C1241.8281,246.7969 1242.4375,246.9531 1242.9063,247.2031 C1243.3906,247.4844 1243.5625,247.7031 1243.6563,248.1094 C1243.7188,248.5156 1243.75,248.6406 1243.8906,248.7656 C1244.0313,248.9063 1244.2656,249.0156 1244.4844,249.0156 C1244.75,249.0156 1245.0156,248.875 1245.1875,248.6563 C1245.2969,248.5 1245.3281,248.3125 1245.3281,247.8906 L1245.3281,246.4688 C1245.3281,246.0313 1245.3125,245.9063 1245.2188,245.75 C1245.0625,245.4844 1244.7813,245.3438 1244.4844,245.3438 C1244.1875,245.3438 1243.9844,245.4375 1243.7656,245.75 L1243.5938,245.6719 Z " fill="#000000"/><text fill="#000000" font-family="sans-serif" font-size="12" lengthAdjust="spacingAndGlyphs" textLength="96" x="1261.75" y="254.1543">Halal_Certificate</text><line style="stroke:#A80036;stroke-width:1.5;" x1="794" x2="1793" y1="266" y2="266"/><text fill="#000000" font-family="sans-serif" font-size="11" lengthAdjust="spacingAndGlyphs" textLength="198" x="799" y="280.2104">a                           fsm:Certificate</text><text fill="#000000" font-family="sans-serif" font-size="11" lengthAdjust="spacingAndGlyphs" textLength="989" x="799" y="293.0151">gs1:linkType                https://www.nuskin.com/content/nuskin/en_MY/products/nu_skin/halal_certificate/_jcr_content/bodyContent/image_fef8.img.jpg/16eb5681485-cache.jpg</text><text fill="#000000" font-family="sans-serif" font-size="11" lengthAdjust="spacingAndGlyphs" textLength="289" x="799" y="305.8198">gs1:expirationDate          "31-03-2021"^^xsd:date</text><line style="stroke:#A80036;stroke-width:1.5;" x1="794" x2="1793" y1="312.4141" y2="312.4141"/><!--MD5=[10b9991d80d09731b3bade87f479032d]
class gtin/37003902--><rect codeLine="29" fill="#FEFECE" filter="url(#f1qhrj7h1mjzw7)" height="86.4141" id="gtin/37003902" style="stroke:#A80036;stroke-width:1.5;" width="305" x="1141" y="397"/><ellipse cx="1244.25" cy="413" fill="#ADD1B2" rx="11" ry="11" style="stroke:#A80036;stroke-width:1.0;"/><path d="M1246.5938,408.6719 C1245.6563,408.2344 1245.0625,408.0938 1244.1875,408.0938 C1241.5625,408.0938 1239.5625,410.1719 1239.5625,412.8906 L1239.5625,414.0156 C1239.5625,416.5938 1241.6719,418.4844 1244.5625,418.4844 C1245.7813,418.4844 1246.9375,418.1875 1247.6875,417.6406 C1248.2656,417.2344 1248.5938,416.7813 1248.5938,416.3906 C1248.5938,415.9375 1248.2031,415.5469 1247.7344,415.5469 C1247.5156,415.5469 1247.3125,415.625 1247.125,415.8125 C1246.6719,416.2969 1246.6719,416.2969 1246.4844,416.3906 C1246.0625,416.6563 1245.375,416.7813 1244.6094,416.7813 C1242.5625,416.7813 1241.2656,415.6875 1241.2656,413.9844 L1241.2656,412.8906 C1241.2656,411.1094 1242.5156,409.7969 1244.25,409.7969 C1244.8281,409.7969 1245.4375,409.9531 1245.9063,410.2031 C1246.3906,410.4844 1246.5625,410.7031 1246.6563,411.1094 C1246.7188,411.5156 1246.75,411.6406 1246.8906,411.7656 C1247.0313,411.9063 1247.2656,412.0156 1247.4844,412.0156 C1247.75,412.0156 1248.0156,411.875 1248.1875,411.6563 C1248.2969,411.5 1248.3281,411.3125 1248.3281,410.8906 L1248.3281,409.4688 C1248.3281,409.0313 1248.3125,408.9063 1248.2188,408.75 C1248.0625,408.4844 1247.7813,408.3438 1247.4844,408.3438 C1247.1875,408.3438 1246.9844,408.4375 1246.7656,408.75 L1246.5938,408.6719 Z " fill="#000000"/><text fill="#000000" font-family="sans-serif" font-size="12" lengthAdjust="spacingAndGlyphs" textLength="90" x="1264.75" y="417.1543">gtin/37003902</text><line style="stroke:#A80036;stroke-width:1.5;" x1="1142" x2="1445" y1="429" y2="429"/><text fill="#000000" font-family="sans-serif" font-size="11" lengthAdjust="spacingAndGlyphs" textLength="188" x="1147" y="443.2104">"https://id.gs1.org/gtin/37003902"</text><text fill="#000000" font-family="sans-serif" font-size="11" lengthAdjust="spacingAndGlyphs" textLength="169" x="1147" y="456.0151">a                       gs1:Products</text><text fill="#000000" font-family="sans-serif" font-size="11" lengthAdjust="spacingAndGlyphs" textLength="293" x="1147" y="468.8198">gs1:productName         "ageLoc Body Shaping Gel"</text><line style="stroke:#A80036;stroke-width:1.5;" x1="1142" x2="1445" y1="475.4141" y2="475.4141"/><!--MD5=[3676aea819fbd41bc9bf7ac0171f0bb0]
class gtin/37003902/lot/1--><rect codeLine="35" fill="#FEFECE" filter="url(#f1qhrj7h1mjzw7)" height="86.4141" id="gtin/37003902/lot/1" style="stroke:#A80036;stroke-width:1.5;" width="305" x="1141" y="560"/><ellipse cx="1229.25" cy="576" fill="#ADD1B2" rx="11" ry="11" style="stroke:#A80036;stroke-width:1.0;"/><path d="M1231.5938,571.6719 C1230.6563,571.2344 1230.0625,571.0938 1229.1875,571.0938 C1226.5625,571.0938 1224.5625,573.1719 1224.5625,575.8906 L1224.5625,577.0156 C1224.5625,579.5938 1226.6719,581.4844 1229.5625,581.4844 C1230.7813,581.4844 1231.9375,581.1875 1232.6875,580.6406 C1233.2656,580.2344 1233.5938,579.7813 1233.5938,579.3906 C1233.5938,578.9375 1233.2031,578.5469 1232.7344,578.5469 C1232.5156,578.5469 1232.3125,578.625 1232.125,578.8125 C1231.6719,579.2969 1231.6719,579.2969 1231.4844,579.3906 C1231.0625,579.6563 1230.375,579.7813 1229.6094,579.7813 C1227.5625,579.7813 1226.2656,578.6875 1226.2656,576.9844 L1226.2656,575.8906 C1226.2656,574.1094 1227.5156,572.7969 1229.25,572.7969 C1229.8281,572.7969 1230.4375,572.9531 1230.9063,573.2031 C1231.3906,573.4844 1231.5625,573.7031 1231.6563,574.1094 C1231.7188,574.5156 1231.75,574.6406 1231.8906,574.7656 C1232.0313,574.9063 1232.2656,575.0156 1232.4844,575.0156 C1232.75,575.0156 1233.0156,574.875 1233.1875,574.6563 C1233.2969,574.5 1233.3281,574.3125 1233.3281,573.8906 L1233.3281,572.4688 C1233.3281,572.0313 1233.3125,571.9063 1233.2188,571.75 C1233.0625,571.4844 1232.7813,571.3438 1232.4844,571.3438 C1232.1875,571.3438 1231.9844,571.4375 1231.7656,571.75 L1231.5938,571.6719 Z " fill="#000000"/><text fill="#000000" font-family="sans-serif" font-size="12" lengthAdjust="spacingAndGlyphs" textLength="120" x="1249.75" y="580.1543">gtin/37003902/lot/1</text><line style="stroke:#A80036;stroke-width:1.5;" x1="1142" x2="1445" y1="592" y2="592"/><text fill="#000000" font-family="sans-serif" font-size="11" lengthAdjust="spacingAndGlyphs" textLength="155" x="1147" y="606.2104">a                       fsm:Batch</text><text fill="#000000" font-family="sans-serif" font-size="11" lengthAdjust="spacingAndGlyphs" textLength="293" x="1147" y="619.0151">gs1:productName         "ageLoc Body Shaping Gel"</text><text fill="#000000" font-family="sans-serif" font-size="11" lengthAdjust="spacingAndGlyphs" textLength="166" x="1147" y="631.8198">gs1:hasBatchLotNumber   "1"</text><line style="stroke:#A80036;stroke-width:1.5;" x1="1142" x2="1445" y1="638.4141" y2="638.4141"/><!--MD5=[cfd66bc084fc1c172490e46545282d00]
link CertificateGrant1 to Organization1--><path codeLine="41" d="M381.68,157.067 C325.586,184.614 264.235,214.744 217.317,237.784 " fill="none" id="CertificateGrant1-to-Organization1" style="stroke:#A80036;stroke-width:1.0;"/><polygon fill="#A80036" points="212.823,239.992,222.6646,239.6139,217.3107,237.7874,219.1373,232.4336,212.823,239.992" style="stroke:#A80036;stroke-width:1.0;"/><text fill="#000000" font-family="sans-serif" font-size="13" lengthAdjust="spacingAndGlyphs" textLength="137" x="313.5" y="200.0669">gs1-epcis:destination</text><!--MD5=[b8734f6c6f94c321079032501b6e9546]
link CertificateGrant1 to TheIslamicFoodAndNutritionCouncilOfAmerica--><path codeLine="42" d="M532.5,157.067 C532.5,183.454 532.5,212.21 532.5,234.836 " fill="none" id="CertificateGrant1-to-TheIslamicFoodAndNutritionCouncilOfAmerica" style="stroke:#A80036;stroke-width:1.0;"/><polygon fill="#A80036" points="532.5,239.861,536.5,230.861,532.5,234.861,528.5,230.861,532.5,239.861" style="stroke:#A80036;stroke-width:1.0;"/><text fill="#000000" font-family="sans-serif" font-size="13" lengthAdjust="spacingAndGlyphs" textLength="109" x="533.5" y="200.0669">gs1-epcis:source</text><!--MD5=[a7a0afdbaa331c215f2f56416f572d52]
link CertificateGrant1 to Halal_Certificate--><path codeLine="43" d="M729.961,133.079 C851.682,163.949 1006.209,203.139 1122.65,232.671 " fill="none" id="CertificateGrant1-to-Halal_Certificate" style="stroke:#A80036;stroke-width:1.0;"/><polygon fill="#A80036" points="1127.82,233.981,1120.0791,227.8918,1122.9733,232.7522,1118.113,235.6465,1127.82,233.981" style="stroke:#A80036;stroke-width:1.0;"/><text fill="#000000" font-family="sans-serif" font-size="13" lengthAdjust="spacingAndGlyphs" textLength="23" x="1005.5" y="200.0669">epc</text><!--MD5=[4ec308bd4eaf036413e50030552e6c34]
link Halal_Certificate to gtin/37003902--><path codeLine="44" d="M1293.5,320.301 C1293.5,342.301 1293.5,369.257 1293.5,391.918 " fill="none" id="Halal_Certificate-to-gtin/37003902" style="stroke:#A80036;stroke-width:1.0;"/><polygon fill="#A80036" points="1293.5,396.982,1297.5,387.982,1293.5,391.982,1289.5,387.982,1293.5,396.982" style="stroke:#A80036;stroke-width:1.0;"/><text fill="#000000" font-family="sans-serif" font-size="13" lengthAdjust="spacingAndGlyphs" textLength="79" x="1294.5" y="363.0669">fsm:product</text><!--MD5=[9d3153d0b1df6608637f932959ced440]
reverse link gtin/37003902 to gtin/37003902/lot/1--><path codeLine="45" d="M1293.5,488.374 C1293.5,511.071 1293.5,538.024 1293.5,559.9817 " fill="none" id="gtin/37003902-backto-gtin/37003902/lot/1" style="stroke:#A80036;stroke-width:1.0;"/><polygon fill="#A80036" points="1293.5,483.301,1289.5,492.301,1293.5,488.301,1297.5,492.301,1293.5,483.301" style="stroke:#A80036;stroke-width:1.0;"/><text fill="#000000" font-family="sans-serif" font-size="13" lengthAdjust="spacingAndGlyphs" textLength="79" x="1294.5" y="526.0669">fsm:product</text><!--MD5=[fa1a7fdb00d09741383edab25a6303f6]
@startuml
class CertificateGrant1 {
    a                                 fsm:CertificateGrant
    gs1-epcis:eventTime               "22-08-2019"^^xsd:dateTime
    gs1-epcis:recordTime              "02-12-2020"xsd:dateTime
    gs1-epcis:eventTimeZoneOffset     "00"
    gs1-epcis:eventID                 "certificate_grant2"
    gs1-epcis:action                  <taxonomy/action_type/observe>
    gs1-epcis:businessStep            urn:epcglobal:cbv:bizstep:receiving
    gs1-epcis:disposition             urn:epcglobal:cbv:disp:active 
}

class Organization1 {
    a                       gs1:Organization
    gs1:organizationName    "NSE Products, Inc."
}


class TheIslamicFoodAndNutritionCouncilOfAmerica {
    a                       fsm:CertificationBody
    gs1:organizationName    "The Islamic Food And Nutrition Council Of America"
}

class Halal_Certificate {
    a                           fsm:Certificate
    gs1:linkType                https://www.nuskin.com/content/nuskin/en_MY/products/nu_skin/halal_certificate/_jcr_content/bodyContent/image_fef8.img.jpg/16eb5681485-cache.jpg 
    gs1:expirationDate          "31-03-2021"^^xsd:date
}

class gtin/37003902 {
    "https://id.gs1.org/gtin/37003902"
    a                       gs1:Products
    gs1:productName         "ageLoc Body Shaping Gel"
}

class gtin/37003902/lot/1 {
    a                       fsm:Batch
    gs1:productName         "ageLoc Body Shaping Gel"
    gs1:hasBatchLotNumber   "1"
}

CertificateGrant1 - -> Organization1 : gs1-epcis:destination
CertificateGrant1 - -> TheIslamicFoodAndNutritionCouncilOfAmerica : gs1-epcis:source
CertificateGrant1 - -> Halal_Certificate : epc
Halal_Certificate - -> "gtin/37003902" : fsm:product
"gtin/37003902/lot/1" -up-> "gtin/37003902" : fsm:product
@enduml

PlantUML version 1.2020.22beta2(Unknown compile time)
(GPL source distribution)
Java Runtime: Java(TM) SE Runtime Environment
JVM: Java HotSpot(TM) 64-Bit Server VM
Default Encoding: UTF-8
Language: en
Country: US
--></g></svg>