<?xml version="1.0" encoding="UTF-8" standalone="no"?><svg xmlns="http://www.w3.org/2000/svg" xmlns:xlink="http://www.w3.org/1999/xlink" contentScriptType="application/ecmascript" contentStyleType="text/css" height="334px" preserveAspectRatio="none" style="width:1524px;height:334px;" version="1.1" viewBox="0 0 1524 334" width="1524px" zoomAndPan="magnify"><defs><filter height="300%" id="f1x2887bphpr33" width="300%" x="-1" y="-1"><feGaussianBlur result="blurOut" stdDeviation="2.0"/><feColorMatrix in="blurOut" result="blurOut2" type="matrix" values="0 0 0 0 0 0 0 0 0 0 0 0 0 0 0 0 0 0 .4 0"/><feOffset dx="4.0" dy="4.0" in="blurOut2" result="blurOut3"/><feBlend in="SourceGraphic" in2="blurOut3" mode="normal"/></filter></defs><g><!--MD5=[914dda0f3408553e9dbeb676f62d87a9]
class CertificateGrant1--><rect codeLine="1" fill="#FEFECE" filter="url(#f1x2887bphpr33)" height="150.4375" id="CertificateGrant1" style="stroke:#A80036;stroke-width:1.5;" width="415" x="361.5" y="7"/><ellipse cx="514.75" cy="23" fill="#ADD1B2" rx="11" ry="11" style="stroke:#A80036;stroke-width:1.0;"/><path d="M517.0938,18.6719 C516.1563,18.2344 515.5625,18.0938 514.6875,18.0938 C512.0625,18.0938 510.0625,20.1719 510.0625,22.8906 L510.0625,24.0156 C510.0625,26.5938 512.1719,28.4844 515.0625,28.4844 C516.2813,28.4844 517.4375,28.1875 518.1875,27.6406 C518.7656,27.2344 519.0938,26.7813 519.0938,26.3906 C519.0938,25.9375 518.7031,25.5469 518.2344,25.5469 C518.0156,25.5469 517.8125,25.625 517.625,25.8125 C517.1719,26.2969 517.1719,26.2969 516.9844,26.3906 C516.5625,26.6563 515.875,26.7813 515.1094,26.7813 C513.0625,26.7813 511.7656,25.6875 511.7656,23.9844 L511.7656,22.8906 C511.7656,21.1094 513.0156,19.7969 514.75,19.7969 C515.3281,19.7969 515.9375,19.9531 516.4063,20.2031 C516.8906,20.4844 517.0625,20.7031 517.1563,21.1094 C517.2188,21.5156 517.25,21.6406 517.3906,21.7656 C517.5313,21.9063 517.7656,22.0156 517.9844,22.0156 C518.25,22.0156 518.5156,21.875 518.6875,21.6563 C518.7969,21.5 518.8281,21.3125 518.8281,20.8906 L518.8281,19.4688 C518.8281,19.0313 518.8125,18.9063 518.7188,18.75 C518.5625,18.4844 518.2813,18.3438 517.9844,18.3438 C517.6875,18.3438 517.4844,18.4375 517.2656,18.75 L517.0938,18.6719 Z " fill="#000000"/><text fill="#000000" font-family="sans-serif" font-size="12" lengthAdjust="spacingAndGlyphs" textLength="100" x="535.25" y="27.1543">CertificateGrant1</text><line style="stroke:#A80036;stroke-width:1.5;" x1="362.5" x2="775.5" y1="39" y2="39"/><text fill="#000000" font-family="sans-serif" font-size="11" lengthAdjust="spacingAndGlyphs" textLength="253" x="367.5" y="53.2104">a                                 fsm:CertificateGrant</text><text fill="#000000" font-family="sans-serif" font-size="11" lengthAdjust="spacingAndGlyphs" textLength="350" x="367.5" y="66.0151">gs1-epcis:eventTime               "2012-05-09"^^xsd:dateTime</text><text fill="#000000" font-family="sans-serif" font-size="11" lengthAdjust="spacingAndGlyphs" textLength="403" x="367.5" y="78.8198">gs1-epcis:recordTime              "2020-12-02T00:00:00"^^xsd:dateTime</text><text fill="#000000" font-family="sans-serif" font-size="11" lengthAdjust="spacingAndGlyphs" textLength="229" x="367.5" y="91.6245">gs1-epcis:eventTimeZoneOffset     "00"</text><text fill="#000000" font-family="sans-serif" font-size="11" lengthAdjust="spacingAndGlyphs" textLength="280" x="367.5" y="104.4292">gs1-epcis:eventID                 "certificate_grant1"</text><text fill="#000000" font-family="sans-serif" font-size="11" lengthAdjust="spacingAndGlyphs" textLength="359" x="367.5" y="117.2339">gs1-epcis:action                  &lt;taxonomy/action_type/observe&gt;</text><text fill="#000000" font-family="sans-serif" font-size="11" lengthAdjust="spacingAndGlyphs" textLength="382" x="367.5" y="130.0386">gs1-epcis:businessStep            urn:epcglobal:cbv:bizstep:receiving</text><text fill="#000000" font-family="sans-serif" font-size="11" lengthAdjust="spacingAndGlyphs" textLength="332" x="367.5" y="142.8433">gs1-epcis:disposition             urn:epcglobal:cbv:disp:active</text><line style="stroke:#A80036;stroke-width:1.5;" x1="362.5" x2="775.5" y1="149.4375" y2="149.4375"/><!--MD5=[4cc9c652b05b125f509887c8c4c96b22]
class Organization1--><rect codeLine="12" fill="#FEFECE" filter="url(#f1x2887bphpr33)" height="73.6094" id="Organization1" style="stroke:#A80036;stroke-width:1.5;" width="330" x="7" y="240"/><ellipse cx="126.25" cy="256" fill="#ADD1B2" rx="11" ry="11" style="stroke:#A80036;stroke-width:1.0;"/><path d="M128.5938,251.6719 C127.6563,251.2344 127.0625,251.0938 126.1875,251.0938 C123.5625,251.0938 121.5625,253.1719 121.5625,255.8906 L121.5625,257.0156 C121.5625,259.5938 123.6719,261.4844 126.5625,261.4844 C127.7813,261.4844 128.9375,261.1875 129.6875,260.6406 C130.2656,260.2344 130.5938,259.7813 130.5938,259.3906 C130.5938,258.9375 130.2031,258.5469 129.7344,258.5469 C129.5156,258.5469 129.3125,258.625 129.125,258.8125 C128.6719,259.2969 128.6719,259.2969 128.4844,259.3906 C128.0625,259.6563 127.375,259.7813 126.6094,259.7813 C124.5625,259.7813 123.2656,258.6875 123.2656,256.9844 L123.2656,255.8906 C123.2656,254.1094 124.5156,252.7969 126.25,252.7969 C126.8281,252.7969 127.4375,252.9531 127.9063,253.2031 C128.3906,253.4844 128.5625,253.7031 128.6563,254.1094 C128.7188,254.5156 128.75,254.6406 128.8906,254.7656 C129.0313,254.9063 129.2656,255.0156 129.4844,255.0156 C129.75,255.0156 130.0156,254.875 130.1875,254.6563 C130.2969,254.5 130.3281,254.3125 130.3281,253.8906 L130.3281,252.4688 C130.3281,252.0313 130.3125,251.9063 130.2188,251.75 C130.0625,251.4844 129.7813,251.3438 129.4844,251.3438 C129.1875,251.3438 128.9844,251.4375 128.7656,251.75 L128.5938,251.6719 Z " fill="#000000"/><text fill="#000000" font-family="sans-serif" font-size="12" lengthAdjust="spacingAndGlyphs" textLength="83" x="146.75" y="260.1543">Organization1</text><line style="stroke:#A80036;stroke-width:1.5;" x1="8" x2="336" y1="272" y2="272"/><text fill="#000000" font-family="sans-serif" font-size="11" lengthAdjust="spacingAndGlyphs" textLength="194" x="13" y="286.2104">a                       gs1:Organization</text><text fill="#000000" font-family="sans-serif" font-size="11" lengthAdjust="spacingAndGlyphs" textLength="318" x="13" y="299.0151">gs1:organizationName    "Charlottetown Metal Products"</text><line style="stroke:#A80036;stroke-width:1.5;" x1="8" x2="336" y1="305.6094" y2="305.6094"/><!--MD5=[ddc9a5215bf0b1a0722dea369282003e]
class NSFInternationalStrategicRegistrations--><rect codeLine="18" fill="#FEFECE" filter="url(#f1x2887bphpr33)" height="73.6094" id="NSFInternationalStrategicRegistrations" style="stroke:#A80036;stroke-width:1.5;" width="394" x="372" y="240"/><ellipse cx="450.75" cy="256" fill="#ADD1B2" rx="11" ry="11" style="stroke:#A80036;stroke-width:1.0;"/><path d="M453.0938,251.6719 C452.1563,251.2344 451.5625,251.0938 450.6875,251.0938 C448.0625,251.0938 446.0625,253.1719 446.0625,255.8906 L446.0625,257.0156 C446.0625,259.5938 448.1719,261.4844 451.0625,261.4844 C452.2813,261.4844 453.4375,261.1875 454.1875,260.6406 C454.7656,260.2344 455.0938,259.7813 455.0938,259.3906 C455.0938,258.9375 454.7031,258.5469 454.2344,258.5469 C454.0156,258.5469 453.8125,258.625 453.625,258.8125 C453.1719,259.2969 453.1719,259.2969 452.9844,259.3906 C452.5625,259.6563 451.875,259.7813 451.1094,259.7813 C449.0625,259.7813 447.7656,258.6875 447.7656,256.9844 L447.7656,255.8906 C447.7656,254.1094 449.0156,252.7969 450.75,252.7969 C451.3281,252.7969 451.9375,252.9531 452.4063,253.2031 C452.8906,253.4844 453.0625,253.7031 453.1563,254.1094 C453.2188,254.5156 453.25,254.6406 453.3906,254.7656 C453.5313,254.9063 453.7656,255.0156 453.9844,255.0156 C454.25,255.0156 454.5156,254.875 454.6875,254.6563 C454.7969,254.5 454.8281,254.3125 454.8281,253.8906 L454.8281,252.4688 C454.8281,252.0313 454.8125,251.9063 454.7188,251.75 C454.5625,251.4844 454.2813,251.3438 453.9844,251.3438 C453.6875,251.3438 453.4844,251.4375 453.2656,251.75 L453.0938,251.6719 Z " fill="#000000"/><text fill="#000000" font-family="sans-serif" font-size="12" lengthAdjust="spacingAndGlyphs" textLength="228" x="471.25" y="260.1543">NSFInternationalStrategicRegistrations</text><line style="stroke:#A80036;stroke-width:1.5;" x1="373" x2="765" y1="272" y2="272"/><text fill="#000000" font-family="sans-serif" font-size="11" lengthAdjust="spacingAndGlyphs" textLength="220" x="378" y="286.2104">a                       fsm:CertificationBody</text><text fill="#000000" font-family="sans-serif" font-size="11" lengthAdjust="spacingAndGlyphs" textLength="382" x="378" y="299.0151">gs1:organizationName    "NSF International Strategic Registrations"</text><line style="stroke:#A80036;stroke-width:1.5;" x1="373" x2="765" y1="305.6094" y2="305.6094"/><!--MD5=[7690bb96c95bb98cca2c87d8eb6519d1]
class ISO22000_Certificate--><rect codeLine="23" fill="#FEFECE" filter="url(#f1x2887bphpr33)" height="86.4141" id="ISO22000_Certificate" style="stroke:#A80036;stroke-width:1.5;" width="709" x="801.5" y="234"/><ellipse cx="1087.75" cy="250" fill="#ADD1B2" rx="11" ry="11" style="stroke:#A80036;stroke-width:1.0;"/><path d="M1090.0938,245.6719 C1089.1563,245.2344 1088.5625,245.0938 1087.6875,245.0938 C1085.0625,245.0938 1083.0625,247.1719 1083.0625,249.8906 L1083.0625,251.0156 C1083.0625,253.5938 1085.1719,255.4844 1088.0625,255.4844 C1089.2813,255.4844 1090.4375,255.1875 1091.1875,254.6406 C1091.7656,254.2344 1092.0938,253.7813 1092.0938,253.3906 C1092.0938,252.9375 1091.7031,252.5469 1091.2344,252.5469 C1091.0156,252.5469 1090.8125,252.625 1090.625,252.8125 C1090.1719,253.2969 1090.1719,253.2969 1089.9844,253.3906 C1089.5625,253.6563 1088.875,253.7813 1088.1094,253.7813 C1086.0625,253.7813 1084.7656,252.6875 1084.7656,250.9844 L1084.7656,249.8906 C1084.7656,248.1094 1086.0156,246.7969 1087.75,246.7969 C1088.3281,246.7969 1088.9375,246.9531 1089.4063,247.2031 C1089.8906,247.4844 1090.0625,247.7031 1090.1563,248.1094 C1090.2188,248.5156 1090.25,248.6406 1090.3906,248.7656 C1090.5313,248.9063 1090.7656,249.0156 1090.9844,249.0156 C1091.25,249.0156 1091.5156,248.875 1091.6875,248.6563 C1091.7969,248.5 1091.8281,248.3125 1091.8281,247.8906 L1091.8281,246.4688 C1091.8281,246.0313 1091.8125,245.9063 1091.7188,245.75 C1091.5625,245.4844 1091.2813,245.3438 1090.9844,245.3438 C1090.6875,245.3438 1090.4844,245.4375 1090.2656,245.75 L1090.0938,245.6719 Z " fill="#000000"/><text fill="#000000" font-family="sans-serif" font-size="12" lengthAdjust="spacingAndGlyphs" textLength="128" x="1108.25" y="254.1543">ISO22000_Certificate</text><line style="stroke:#A80036;stroke-width:1.5;" x1="802.5" x2="1509.5" y1="266" y2="266"/><text fill="#000000" font-family="sans-serif" font-size="11" lengthAdjust="spacingAndGlyphs" textLength="198" x="807.5" y="280.2104">a                           fsm:Certificate</text><text fill="#000000" font-family="sans-serif" font-size="11" lengthAdjust="spacingAndGlyphs" textLength="697" x="807.5" y="293.0151">gs1:linkType                https://certifications.thomasnet.com/certifications/glossary/quality-certifications/iso/iso-22000-2005/</text><text fill="#000000" font-family="sans-serif" font-size="11" lengthAdjust="spacingAndGlyphs" textLength="289" x="807.5" y="305.8198">gs1:expirationDate          "2015-05-08"^^xsd:date</text><line style="stroke:#A80036;stroke-width:1.5;" x1="802.5" x2="1509.5" y1="312.4141" y2="312.4141"/><!--MD5=[cfd66bc084fc1c172490e46545282d00]
link CertificateGrant1 to Organization1--><path codeLine="29" d="M416.645,157.067 C359.98,184.614 298.004,214.744 250.609,237.7844 " fill="none" id="CertificateGrant1-to-Organization1" style="stroke:#A80036;stroke-width:1.0;"/><polygon fill="#A80036" points="246.069,239.9917,255.9121,239.6548,250.5659,237.8059,252.4148,232.4597,246.069,239.9917" style="stroke:#A80036;stroke-width:1.0;"/><text fill="#000000" font-family="sans-serif" font-size="13" lengthAdjust="spacingAndGlyphs" textLength="137" x="348" y="200.0669">gs1-epcis:destination</text><!--MD5=[5dbf9c7f5b15eb39abaa9abe83f7dd4f]
link CertificateGrant1 to NSFInternationalStrategicRegistrations--><path codeLine="30" d="M569,157.067 C569,183.454 569,212.21 569,234.8362 " fill="none" id="CertificateGrant1-to-NSFInternationalStrategicRegistrations" style="stroke:#A80036;stroke-width:1.0;"/><polygon fill="#A80036" points="569,239.861,573,230.861,569,234.861,565,230.861,569,239.861" style="stroke:#A80036;stroke-width:1.0;"/><text fill="#000000" font-family="sans-serif" font-size="13" lengthAdjust="spacingAndGlyphs" textLength="109" x="570" y="200.0669">gs1-epcis:source</text><!--MD5=[4151142f3ad529227ef5da12d9bc4b30]
link CertificateGrant1 to ISO22000_Certificate--><path codeLine="31" d="M776.78,151.316 C858.752,178.268 950.502,208.434 1023.22,232.3432 " fill="none" id="CertificateGrant1-to-ISO22000_Certificate" style="stroke:#A80036;stroke-width:1.0;"/><polygon fill="#A80036" points="1027.98,233.9089,1020.6739,227.3043,1023.2288,232.3513,1018.1818,234.9062,1027.98,233.9089" style="stroke:#A80036;stroke-width:1.0;"/><text fill="#000000" font-family="sans-serif" font-size="13" lengthAdjust="spacingAndGlyphs" textLength="23" x="934" y="200.0669">epc</text><!--MD5=[9d546cc21aefd95fb80b9b6e67a46238]
@startuml
class CertificateGrant1 {
    a                                 fsm:CertificateGrant
    gs1-epcis:eventTime               "2012-05-09"^^xsd:dateTime
    gs1-epcis:recordTime              "2020-12-02T00:00:00"^^xsd:dateTime
    gs1-epcis:eventTimeZoneOffset     "00"
    gs1-epcis:eventID                 "certificate_grant1"
    gs1-epcis:action                  <taxonomy/action_type/observe>
    gs1-epcis:businessStep            urn:epcglobal:cbv:bizstep:receiving
    gs1-epcis:disposition             urn:epcglobal:cbv:disp:active 
}

class Organization1 {
    a                       gs1:Organization
    gs1:organizationName    "Charlottetown Metal Products"
}


class NSFInternationalStrategicRegistrations {
    a                       fsm:CertificationBody
    gs1:organizationName    "NSF International Strategic Registrations"
}

class ISO22000_Certificate {
    a                           fsm:Certificate
    gs1:linkType                https://certifications.thomasnet.com/certifications/glossary/quality-certifications/iso/iso-22000-2005/ 
    gs1:expirationDate          "2015-05-08"^^xsd:date
}

CertificateGrant1 - -> Organization1 : gs1-epcis:destination
CertificateGrant1 - -> NSFInternationalStrategicRegistrations : gs1-epcis:source
CertificateGrant1 - -> ISO22000_Certificate : epc
@enduml

PlantUML version 1.2020.22beta2(Unknown compile time)
(GPL source distribution)
Java Runtime: Java(TM) SE Runtime Environment
JVM: Java HotSpot(TM) 64-Bit Server VM
Default Encoding: UTF-8
Language: en
Country: US
--></g></svg>