<?xml version="1.0" encoding="UTF-8" standalone="no"?><svg xmlns="http://www.w3.org/2000/svg" xmlns:xlink="http://www.w3.org/1999/xlink" contentScriptType="application/ecmascript" contentStyleType="text/css" height="472px" preserveAspectRatio="none" style="width:842px;height:472px;" version="1.1" viewBox="0 0 842 472" width="842px" zoomAndPan="magnify"><defs><filter height="300%" id="f3l2rwdt3vabr" width="300%" x="-1" y="-1"><feGaussianBlur result="blurOut" stdDeviation="2.0"/><feColorMatrix in="blurOut" result="blurOut2" type="matrix" values="0 0 0 0 0 0 0 0 0 0 0 0 0 0 0 0 0 0 .4 0"/><feOffset dx="4.0" dy="4.0" in="blurOut2" result="blurOut3"/><feBlend in="SourceGraphic" in2="blurOut3" mode="normal"/></filter></defs><g><!--MD5=[a2a32eb8740a34a1508bfb05a6833e01]
class Incident--><rect codeLine="1" fill="#FEFECE" filter="url(#f3l2rwdt3vabr)" height="150.4375" id="Incident" style="stroke:#A80036;stroke-width:1.5;" width="415" x="208" y="7"/><ellipse cx="387.75" cy="23" fill="#ADD1B2" rx="11" ry="11" style="stroke:#A80036;stroke-width:1.0;"/><path d="M390.0938,18.6719 C389.1563,18.2344 388.5625,18.0938 387.6875,18.0938 C385.0625,18.0938 383.0625,20.1719 383.0625,22.8906 L383.0625,24.0156 C383.0625,26.5938 385.1719,28.4844 388.0625,28.4844 C389.2813,28.4844 390.4375,28.1875 391.1875,27.6406 C391.7656,27.2344 392.0938,26.7813 392.0938,26.3906 C392.0938,25.9375 391.7031,25.5469 391.2344,25.5469 C391.0156,25.5469 390.8125,25.625 390.625,25.8125 C390.1719,26.2969 390.1719,26.2969 389.9844,26.3906 C389.5625,26.6563 388.875,26.7813 388.1094,26.7813 C386.0625,26.7813 384.7656,25.6875 384.7656,23.9844 L384.7656,22.8906 C384.7656,21.1094 386.0156,19.7969 387.75,19.7969 C388.3281,19.7969 388.9375,19.9531 389.4063,20.2031 C389.8906,20.4844 390.0625,20.7031 390.1563,21.1094 C390.2188,21.5156 390.25,21.6406 390.3906,21.7656 C390.5313,21.9063 390.7656,22.0156 390.9844,22.0156 C391.25,22.0156 391.5156,21.875 391.6875,21.6563 C391.7969,21.5 391.8281,21.3125 391.8281,20.8906 L391.8281,19.4688 C391.8281,19.0313 391.8125,18.9063 391.7188,18.75 C391.5625,18.4844 391.2813,18.3438 390.9844,18.3438 C390.6875,18.3438 390.4844,18.4375 390.2656,18.75 L390.0938,18.6719 Z " fill="#000000"/><text fill="#000000" font-family="sans-serif" font-size="12" lengthAdjust="spacingAndGlyphs" textLength="47" x="408.25" y="27.1543">Incident</text><line style="stroke:#A80036;stroke-width:1.5;" x1="209" x2="622" y1="39" y2="39"/><text fill="#000000" font-family="sans-serif" font-size="11" lengthAdjust="spacingAndGlyphs" textLength="208" x="214" y="53.2104">a                                 fsm:Incident</text><text fill="#000000" font-family="sans-serif" font-size="11" lengthAdjust="spacingAndGlyphs" textLength="350" x="214" y="66.0151">gs1-epcis:eventTime               "2020-11-29"^^xsd:dateTime</text><text fill="#000000" font-family="sans-serif" font-size="11" lengthAdjust="spacingAndGlyphs" textLength="403" x="214" y="78.8198">gs1-epcis:recordTime              "2020-12-03T00:00:00"^^xsd:dateTime</text><text fill="#000000" font-family="sans-serif" font-size="11" lengthAdjust="spacingAndGlyphs" textLength="229" x="214" y="91.6245">gs1-epcis:eventTimeZoneOffset     "00"</text><text fill="#000000" font-family="sans-serif" font-size="11" lengthAdjust="spacingAndGlyphs" textLength="233" x="214" y="104.4292">gs1-epcis:eventID                 "incident1"</text><text fill="#000000" font-family="sans-serif" font-size="11" lengthAdjust="spacingAndGlyphs" textLength="359" x="214" y="117.2339">gs1-epcis:action                  &lt;taxonomy/action_type/observe&gt;</text><text fill="#000000" font-family="sans-serif" font-size="11" lengthAdjust="spacingAndGlyphs" textLength="382" x="214" y="130.0386">gs1-epcis:businessStep            urn:epcglobal:cbv:bizstep:receiving</text><text fill="#000000" font-family="sans-serif" font-size="11" lengthAdjust="spacingAndGlyphs" textLength="332" x="214" y="142.8433">gs1-epcis:disposition             urn:epcglobal:cbv:disp:active</text><line style="stroke:#A80036;stroke-width:1.5;" x1="209" x2="622" y1="149.4375" y2="149.4375"/><!--MD5=[1409eca727f1ad26d6de97a574c565ba]
class FDK_18341542--><rect codeLine="12" fill="#FEFECE" filter="url(#f3l2rwdt3vabr)" height="73.6094" id="FDK_18341542" style="stroke:#A80036;stroke-width:1.5;" width="261" x="7" y="234"/><ellipse cx="87.25" cy="250" fill="#ADD1B2" rx="11" ry="11" style="stroke:#A80036;stroke-width:1.0;"/><path d="M89.5938,245.6719 C88.6563,245.2344 88.0625,245.0938 87.1875,245.0938 C84.5625,245.0938 82.5625,247.1719 82.5625,249.8906 L82.5625,251.0156 C82.5625,253.5938 84.6719,255.4844 87.5625,255.4844 C88.7813,255.4844 89.9375,255.1875 90.6875,254.6406 C91.2656,254.2344 91.5938,253.7813 91.5938,253.3906 C91.5938,252.9375 91.2031,252.5469 90.7344,252.5469 C90.5156,252.5469 90.3125,252.625 90.125,252.8125 C89.6719,253.2969 89.6719,253.2969 89.4844,253.3906 C89.0625,253.6563 88.375,253.7813 87.6094,253.7813 C85.5625,253.7813 84.2656,252.6875 84.2656,250.9844 L84.2656,249.8906 C84.2656,248.1094 85.5156,246.7969 87.25,246.7969 C87.8281,246.7969 88.4375,246.9531 88.9063,247.2031 C89.3906,247.4844 89.5625,247.7031 89.6563,248.1094 C89.7188,248.5156 89.75,248.6406 89.8906,248.7656 C90.0313,248.9063 90.2656,249.0156 90.4844,249.0156 C90.75,249.0156 91.0156,248.875 91.1875,248.6563 C91.2969,248.5 91.3281,248.3125 91.3281,247.8906 L91.3281,246.4688 C91.3281,246.0313 91.3125,245.9063 91.2188,245.75 C91.0625,245.4844 90.7813,245.3438 90.4844,245.3438 C90.1875,245.3438 89.9844,245.4375 89.7656,245.75 L89.5938,245.6719 Z " fill="#000000"/><text fill="#000000" font-family="sans-serif" font-size="12" lengthAdjust="spacingAndGlyphs" textLength="92" x="107.75" y="254.1543">FDK_18341542</text><line style="stroke:#A80036;stroke-width:1.5;" x1="8" x2="267" y1="266" y2="266"/><text fill="#000000" font-family="sans-serif" font-size="11" lengthAdjust="spacingAndGlyphs" textLength="194" x="13" y="280.2104">a                       gs1:Organization</text><text fill="#000000" font-family="sans-serif" font-size="11" lengthAdjust="spacingAndGlyphs" textLength="249" x="13" y="293.0151">gs1:organizationName    "«  1001 France »"</text><line style="stroke:#A80036;stroke-width:1.5;" x1="8" x2="267" y1="299.6094" y2="299.6094"/><!--MD5=[951219747d514214c081d4e367f2919a]
class FOODAKAI--><rect codeLine="18" fill="#FEFECE" filter="url(#f3l2rwdt3vabr)" height="73.6094" id="FOODAKAI" style="stroke:#A80036;stroke-width:1.5;" width="224" x="303.5" y="234"/><ellipse cx="379.75" cy="250" fill="#ADD1B2" rx="11" ry="11" style="stroke:#A80036;stroke-width:1.0;"/><path d="M382.0938,245.6719 C381.1563,245.2344 380.5625,245.0938 379.6875,245.0938 C377.0625,245.0938 375.0625,247.1719 375.0625,249.8906 L375.0625,251.0156 C375.0625,253.5938 377.1719,255.4844 380.0625,255.4844 C381.2813,255.4844 382.4375,255.1875 383.1875,254.6406 C383.7656,254.2344 384.0938,253.7813 384.0938,253.3906 C384.0938,252.9375 383.7031,252.5469 383.2344,252.5469 C383.0156,252.5469 382.8125,252.625 382.625,252.8125 C382.1719,253.2969 382.1719,253.2969 381.9844,253.3906 C381.5625,253.6563 380.875,253.7813 380.1094,253.7813 C378.0625,253.7813 376.7656,252.6875 376.7656,250.9844 L376.7656,249.8906 C376.7656,248.1094 378.0156,246.7969 379.75,246.7969 C380.3281,246.7969 380.9375,246.9531 381.4063,247.2031 C381.8906,247.4844 382.0625,247.7031 382.1563,248.1094 C382.2188,248.5156 382.25,248.6406 382.3906,248.7656 C382.5313,248.9063 382.7656,249.0156 382.9844,249.0156 C383.25,249.0156 383.5156,248.875 383.6875,248.6563 C383.7969,248.5 383.8281,248.3125 383.8281,247.8906 L383.8281,246.4688 C383.8281,246.0313 383.8125,245.9063 383.7188,245.75 C383.5625,245.4844 383.2813,245.3438 382.9844,245.3438 C382.6875,245.3438 382.4844,245.4375 382.2656,245.75 L382.0938,245.6719 Z " fill="#000000"/><text fill="#000000" font-family="sans-serif" font-size="12" lengthAdjust="spacingAndGlyphs" textLength="63" x="400.25" y="254.1543">FOODAKAI</text><line style="stroke:#A80036;stroke-width:1.5;" x1="304.5" x2="526.5" y1="266" y2="266"/><text fill="#000000" font-family="sans-serif" font-size="11" lengthAdjust="spacingAndGlyphs" textLength="194" x="309.5" y="280.2104">a                       gs1:Organization</text><text fill="#000000" font-family="sans-serif" font-size="11" lengthAdjust="spacingAndGlyphs" textLength="212" x="309.5" y="293.0151">gs1:organizationName    "FOODAKAI"</text><line style="stroke:#A80036;stroke-width:1.5;" x1="304.5" x2="526.5" y1="299.6094" y2="299.6094"/><!--MD5=[c196e6e9294f83550a5d06156445b1f0]
class IncidentReport--><rect codeLine="23" fill="#FEFECE" filter="url(#f3l2rwdt3vabr)" height="73.6094" id="IncidentReport" style="stroke:#A80036;stroke-width:1.5;" width="266" x="562.5" y="234"/><ellipse cx="647.75" cy="250" fill="#ADD1B2" rx="11" ry="11" style="stroke:#A80036;stroke-width:1.0;"/><path d="M650.0938,245.6719 C649.1563,245.2344 648.5625,245.0938 647.6875,245.0938 C645.0625,245.0938 643.0625,247.1719 643.0625,249.8906 L643.0625,251.0156 C643.0625,253.5938 645.1719,255.4844 648.0625,255.4844 C649.2813,255.4844 650.4375,255.1875 651.1875,254.6406 C651.7656,254.2344 652.0938,253.7813 652.0938,253.3906 C652.0938,252.9375 651.7031,252.5469 651.2344,252.5469 C651.0156,252.5469 650.8125,252.625 650.625,252.8125 C650.1719,253.2969 650.1719,253.2969 649.9844,253.3906 C649.5625,253.6563 648.875,253.7813 648.1094,253.7813 C646.0625,253.7813 644.7656,252.6875 644.7656,250.9844 L644.7656,249.8906 C644.7656,248.1094 646.0156,246.7969 647.75,246.7969 C648.3281,246.7969 648.9375,246.9531 649.4063,247.2031 C649.8906,247.4844 650.0625,247.7031 650.1563,248.1094 C650.2188,248.5156 650.25,248.6406 650.3906,248.7656 C650.5313,248.9063 650.7656,249.0156 650.9844,249.0156 C651.25,249.0156 651.5156,248.875 651.6875,248.6563 C651.7969,248.5 651.8281,248.3125 651.8281,247.8906 L651.8281,246.4688 C651.8281,246.0313 651.8125,245.9063 651.7188,245.75 C651.5625,245.4844 651.2813,245.3438 650.9844,245.3438 C650.6875,245.3438 650.4844,245.4375 650.2656,245.75 L650.0938,245.6719 Z " fill="#000000"/><text fill="#000000" font-family="sans-serif" font-size="12" lengthAdjust="spacingAndGlyphs" textLength="87" x="668.25" y="254.1543">IncidentReport</text><line style="stroke:#A80036;stroke-width:1.5;" x1="563.5" x2="827.5" y1="266" y2="266"/><text fill="#000000" font-family="sans-serif" font-size="11" lengthAdjust="spacingAndGlyphs" textLength="198" x="568.5" y="280.2104">a                           fsm:Document</text><text fill="#000000" font-family="sans-serif" font-size="11" lengthAdjust="spacingAndGlyphs" textLength="254" x="568.5" y="293.0151">gs1:linkType                "http://link-to-reuslt?"</text><line style="stroke:#A80036;stroke-width:1.5;" x1="563.5" x2="827.5" y1="299.6094" y2="299.6094"/><!--MD5=[22d2b41ad45c7c66bf046ffc4a1eb454]
class ProductBatch--><rect codeLine="28" fill="#FEFECE" filter="url(#f3l2rwdt3vabr)" height="73.6094" id="ProductBatch" style="stroke:#A80036;stroke-width:1.5;" width="245" x="573" y="385"/><ellipse cx="652.25" cy="401" fill="#ADD1B2" rx="11" ry="11" style="stroke:#A80036;stroke-width:1.0;"/><path d="M654.5938,396.6719 C653.6563,396.2344 653.0625,396.0938 652.1875,396.0938 C649.5625,396.0938 647.5625,398.1719 647.5625,400.8906 L647.5625,402.0156 C647.5625,404.5938 649.6719,406.4844 652.5625,406.4844 C653.7813,406.4844 654.9375,406.1875 655.6875,405.6406 C656.2656,405.2344 656.5938,404.7813 656.5938,404.3906 C656.5938,403.9375 656.2031,403.5469 655.7344,403.5469 C655.5156,403.5469 655.3125,403.625 655.125,403.8125 C654.6719,404.2969 654.6719,404.2969 654.4844,404.3906 C654.0625,404.6563 653.375,404.7813 652.6094,404.7813 C650.5625,404.7813 649.2656,403.6875 649.2656,401.9844 L649.2656,400.8906 C649.2656,399.1094 650.5156,397.7969 652.25,397.7969 C652.8281,397.7969 653.4375,397.9531 653.9063,398.2031 C654.3906,398.4844 654.5625,398.7031 654.6563,399.1094 C654.7188,399.5156 654.75,399.6406 654.8906,399.7656 C655.0313,399.9063 655.2656,400.0156 655.4844,400.0156 C655.75,400.0156 656.0156,399.875 656.1875,399.6563 C656.2969,399.5 656.3281,399.3125 656.3281,398.8906 L656.3281,397.4688 C656.3281,397.0313 656.3125,396.9063 656.2188,396.75 C656.0625,396.4844 655.7813,396.3438 655.4844,396.3438 C655.1875,396.3438 654.9844,396.4375 654.7656,396.75 L654.5938,396.6719 Z " fill="#000000"/><text fill="#000000" font-family="sans-serif" font-size="12" lengthAdjust="spacingAndGlyphs" textLength="78" x="672.75" y="405.1543">ProductBatch</text><line style="stroke:#A80036;stroke-width:1.5;" x1="574" x2="817" y1="417" y2="417"/><text fill="#000000" font-family="sans-serif" font-size="11" lengthAdjust="spacingAndGlyphs" textLength="212" x="579" y="431.2104">a                           fsm:ProductBatch</text><text fill="#000000" font-family="sans-serif" font-size="11" lengthAdjust="spacingAndGlyphs" textLength="233" x="579" y="444.0151">fsm:product                 "If it had a batch"</text><line style="stroke:#A80036;stroke-width:1.5;" x1="574" x2="817" y1="450.6094" y2="450.6094"/><!--MD5=[5fb7cd9526fc06a9ac5108953911510d]
link Incident to FDK_18341542--><path codeLine="33" d="M305.228,157.176 C267.652,182.452 227.148,209.697 195.357,231.082 " fill="none" id="Incident-to-FDK_18341542" style="stroke:#A80036;stroke-width:1.0;"/><polygon fill="#A80036" points="191.129,233.926,200.8294,232.2227,195.278,231.1357,196.365,225.5843,191.129,233.926" style="stroke:#A80036;stroke-width:1.0;"/><text fill="#000000" font-family="sans-serif" font-size="13" lengthAdjust="spacingAndGlyphs" textLength="137" x="261.5" y="200.0669">gs1-epcis:destination</text><!--MD5=[a56f6b842dfbfc5a8ed9c49f2f8e595c]
link Incident to FOODAKAI--><path codeLine="34" d="M415.5,157.176 C415.5,181.523 415.5,207.698 415.5,228.702 " fill="none" id="Incident-to-FOODAKAI" style="stroke:#A80036;stroke-width:1.0;"/><polygon fill="#A80036" points="415.5,233.926,419.5,224.926,415.5,228.926,411.5,224.926,415.5,233.926" style="stroke:#A80036;stroke-width:1.0;"/><text fill="#000000" font-family="sans-serif" font-size="13" lengthAdjust="spacingAndGlyphs" textLength="109" x="416.5" y="200.0669">gs1-epcis:source</text><!--MD5=[81a91caf1d74c10f17c9425f3a296be4]
link Incident to IncidentReport--><path codeLine="35" d="M526.566,157.176 C564.412,182.452 605.207,209.697 637.227,231.082 " fill="none" id="Incident-to-IncidentReport" style="stroke:#A80036;stroke-width:1.0;"/><polygon fill="#A80036" points="641.485,233.926,636.2233,225.6005,637.3274,231.1485,631.7793,232.2527,641.485,233.926" style="stroke:#A80036;stroke-width:1.0;"/><text fill="#000000" font-family="sans-serif" font-size="13" lengthAdjust="spacingAndGlyphs" textLength="23" x="589.5" y="200.0669">epc</text><!--MD5=[3444c625d71f46f8c28a049a1f5fa17f]
link IncidentReport to ProductBatch--><path codeLine="36" d="M695.5,308.069 C695.5,329.688 695.5,357.253 695.5,379.7374 " fill="none" id="IncidentReport-to-ProductBatch" style="stroke:#A80036;stroke-width:1.0;"/><polygon fill="#A80036" points="695.5,384.747,699.5,375.747,695.5,379.747,691.5,375.747,695.5,384.747" style="stroke:#A80036;stroke-width:1.0;"/><text fill="#000000" font-family="sans-serif" font-size="13" lengthAdjust="spacingAndGlyphs" textLength="79" x="696.5" y="351.0669">fsm:product</text><!--MD5=[dbf5f5a73c0b5950a4d2eb35ad3cad4b]
@startuml
class Incident {
    a                                 fsm:Incident
    gs1-epcis:eventTime               "2020-11-29"^^xsd:dateTime
    gs1-epcis:recordTime              "2020-12-03T00:00:00"^^xsd:dateTime
    gs1-epcis:eventTimeZoneOffset     "00"
    gs1-epcis:eventID                 "incident1"
    gs1-epcis:action                  <taxonomy/action_type/observe>
    gs1-epcis:businessStep            urn:epcglobal:cbv:bizstep:receiving
    gs1-epcis:disposition             urn:epcglobal:cbv:disp:active 
}

class FDK_18341542 {
    a                       gs1:Organization
    gs1:organizationName    "«  1001 France »"
}


class FOODAKAI {
    a                       gs1:Organization
    gs1:organizationName    "FOODAKAI"
}

class IncidentReport {
    a                           fsm:Document
    gs1:linkType                "http://link-to-reuslt?" 
}

class ProductBatch {
    a                           fsm:ProductBatch
    fsm:product                 "If it had a batch"
}

Incident - -> FDK_18341542 : gs1-epcis:destination
Incident - -> FOODAKAI : gs1-epcis:source
Incident - -> IncidentReport : epc
IncidentReport - -> ProductBatch : fsm:product
@enduml

PlantUML version 1.2020.22beta2(Unknown compile time)
(GPL source distribution)
Java Runtime: Java(TM) SE Runtime Environment
JVM: Java HotSpot(TM) 64-Bit Server VM
Default Encoding: UTF-8
Language: en
Country: US
--></g></svg>