<?xml version="1.0" encoding="UTF-8" standalone="no"?><svg xmlns="http://www.w3.org/2000/svg" xmlns:xlink="http://www.w3.org/1999/xlink" contentScriptType="application/ecmascript" contentStyleType="text/css" height="1278px" preserveAspectRatio="none" style="width:2129px;height:1278px;" version="1.1" viewBox="0 0 2129 1278" width="2129px" zoomAndPan="magnify"><defs><filter height="300%" id="f1ckivj5hgfzrx" width="300%" x="-1" y="-1"><feGaussianBlur result="blurOut" stdDeviation="2.0"/><feColorMatrix in="blurOut" result="blurOut2" type="matrix" values="0 0 0 0 0 0 0 0 0 0 0 0 0 0 0 0 0 0 .4 0"/><feOffset dx="4.0" dy="4.0" in="blurOut2" result="blurOut3"/><feBlend in="SourceGraphic" in2="blurOut3" mode="normal"/></filter></defs><g><!--MD5=[ac13618b1a974308c1f12eb6c57723dc]
class Event--><rect codeLine="1" fill="#FEFECE" filter="url(#f1ckivj5hgfzrx)" height="112.0234" id="Event" style="stroke:#A80036;stroke-width:1.5;" width="213" x="1038" y="472"/><ellipse cx="1123.75" cy="488" fill="#ADD1B2" rx="11" ry="11" style="stroke:#A80036;stroke-width:1.0;"/><path d="M1126.0938,483.6719 C1125.1563,483.2344 1124.5625,483.0938 1123.6875,483.0938 C1121.0625,483.0938 1119.0625,485.1719 1119.0625,487.8906 L1119.0625,489.0156 C1119.0625,491.5938 1121.1719,493.4844 1124.0625,493.4844 C1125.2813,493.4844 1126.4375,493.1875 1127.1875,492.6406 C1127.7656,492.2344 1128.0938,491.7813 1128.0938,491.3906 C1128.0938,490.9375 1127.7031,490.5469 1127.2344,490.5469 C1127.0156,490.5469 1126.8125,490.625 1126.625,490.8125 C1126.1719,491.2969 1126.1719,491.2969 1125.9844,491.3906 C1125.5625,491.6563 1124.875,491.7813 1124.1094,491.7813 C1122.0625,491.7813 1120.7656,490.6875 1120.7656,488.9844 L1120.7656,487.8906 C1120.7656,486.1094 1122.0156,484.7969 1123.75,484.7969 C1124.3281,484.7969 1124.9375,484.9531 1125.4063,485.2031 C1125.8906,485.4844 1126.0625,485.7031 1126.1563,486.1094 C1126.2188,486.5156 1126.25,486.6406 1126.3906,486.7656 C1126.5313,486.9063 1126.7656,487.0156 1126.9844,487.0156 C1127.25,487.0156 1127.5156,486.875 1127.6875,486.6563 C1127.7969,486.5 1127.8281,486.3125 1127.8281,485.8906 L1127.8281,484.4688 C1127.8281,484.0313 1127.8125,483.9063 1127.7188,483.75 C1127.5625,483.4844 1127.2813,483.3438 1126.9844,483.3438 C1126.6875,483.3438 1126.4844,483.4375 1126.2656,483.75 L1126.0938,483.6719 Z " fill="#000000"/><text fill="#000000" font-family="sans-serif" font-size="12" lengthAdjust="spacingAndGlyphs" textLength="33" x="1144.25" y="492.1543">Event</text><line style="stroke:#A80036;stroke-width:1.5;" x1="1039" x2="1250" y1="504" y2="504"/><text fill="#000000" font-family="sans-serif" font-size="11" lengthAdjust="spacingAndGlyphs" textLength="189" x="1044" y="518.2104">a                       gs1-epcis:Event</text><text fill="#000000" font-family="sans-serif" font-size="11" lengthAdjust="spacingAndGlyphs" textLength="201" x="1044" y="531.0151">eventTime               xsd:dateTime</text><text fill="#000000" font-family="sans-serif" font-size="11" lengthAdjust="spacingAndGlyphs" textLength="199" x="1044" y="543.8198">recordTime              xsd:dateTime</text><text fill="#000000" font-family="sans-serif" font-size="11" lengthAdjust="spacingAndGlyphs" textLength="179" x="1044" y="556.6245">eventTimeZoneOffset     string</text><text fill="#000000" font-family="sans-serif" font-size="11" lengthAdjust="spacingAndGlyphs" textLength="145" x="1044" y="569.4292">eventID                 string</text><line style="stroke:#A80036;stroke-width:1.5;" x1="1039" x2="1250" y1="576.0234" y2="576.0234"/><!--MD5=[6b68982876ee98f296d2e7bc4d997e5e]
class ObjectEvent--><rect codeLine="9" fill="#FEFECE" filter="url(#f1ckivj5hgfzrx)" height="60.8047" id="ObjectEvent" style="stroke:#A80036;stroke-width:1.5;" width="238" x="504.5" y="667.5"/><ellipse cx="582.75" cy="683.5" fill="#ADD1B2" rx="11" ry="11" style="stroke:#A80036;stroke-width:1.0;"/><path d="M585.0938,679.1719 C584.1563,678.7344 583.5625,678.5938 582.6875,678.5938 C580.0625,678.5938 578.0625,680.6719 578.0625,683.3906 L578.0625,684.5156 C578.0625,687.0938 580.1719,688.9844 583.0625,688.9844 C584.2813,688.9844 585.4375,688.6875 586.1875,688.1406 C586.7656,687.7344 587.0938,687.2813 587.0938,686.8906 C587.0938,686.4375 586.7031,686.0469 586.2344,686.0469 C586.0156,686.0469 585.8125,686.125 585.625,686.3125 C585.1719,686.7969 585.1719,686.7969 584.9844,686.8906 C584.5625,687.1563 583.875,687.2813 583.1094,687.2813 C581.0625,687.2813 579.7656,686.1875 579.7656,684.4844 L579.7656,683.3906 C579.7656,681.6094 581.0156,680.2969 582.75,680.2969 C583.3281,680.2969 583.9375,680.4531 584.4063,680.7031 C584.8906,680.9844 585.0625,681.2031 585.1563,681.6094 C585.2188,682.0156 585.25,682.1406 585.3906,682.2656 C585.5313,682.4063 585.7656,682.5156 585.9844,682.5156 C586.25,682.5156 586.5156,682.375 586.6875,682.1563 C586.7969,682 586.8281,681.8125 586.8281,681.3906 L586.8281,679.9688 C586.8281,679.5313 586.8125,679.4063 586.7188,679.25 C586.5625,678.9844 586.2813,678.8438 585.9844,678.8438 C585.6875,678.8438 585.4844,678.9375 585.2656,679.25 L585.0938,679.1719 Z " fill="#000000"/><text fill="#000000" font-family="sans-serif" font-size="12" lengthAdjust="spacingAndGlyphs" textLength="73" x="603.25" y="687.6543">ObjectEvent</text><line style="stroke:#A80036;stroke-width:1.5;" x1="505.5" x2="741.5" y1="699.5" y2="699.5"/><text fill="#000000" font-family="sans-serif" font-size="11" lengthAdjust="spacingAndGlyphs" textLength="226" x="510.5" y="713.7104">a                       gs1-epcis:ObjectEvent</text><line style="stroke:#A80036;stroke-width:1.5;" x1="505.5" x2="741.5" y1="720.3047" y2="720.3047"/><!--MD5=[cf06f249deb0bbf92a67922dafb239f6]
class AggregationEvent--><rect codeLine="13" fill="#FEFECE" filter="url(#f1ckivj5hgfzrx)" height="60.8047" id="AggregationEvent" style="stroke:#A80036;stroke-width:1.5;" width="270" x="778.5" y="667.5"/><ellipse cx="855.75" cy="683.5" fill="#ADD1B2" rx="11" ry="11" style="stroke:#A80036;stroke-width:1.0;"/><path d="M858.0938,679.1719 C857.1563,678.7344 856.5625,678.5938 855.6875,678.5938 C853.0625,678.5938 851.0625,680.6719 851.0625,683.3906 L851.0625,684.5156 C851.0625,687.0938 853.1719,688.9844 856.0625,688.9844 C857.2813,688.9844 858.4375,688.6875 859.1875,688.1406 C859.7656,687.7344 860.0938,687.2813 860.0938,686.8906 C860.0938,686.4375 859.7031,686.0469 859.2344,686.0469 C859.0156,686.0469 858.8125,686.125 858.625,686.3125 C858.1719,686.7969 858.1719,686.7969 857.9844,686.8906 C857.5625,687.1563 856.875,687.2813 856.1094,687.2813 C854.0625,687.2813 852.7656,686.1875 852.7656,684.4844 L852.7656,683.3906 C852.7656,681.6094 854.0156,680.2969 855.75,680.2969 C856.3281,680.2969 856.9375,680.4531 857.4063,680.7031 C857.8906,680.9844 858.0625,681.2031 858.1563,681.6094 C858.2188,682.0156 858.25,682.1406 858.3906,682.2656 C858.5313,682.4063 858.7656,682.5156 858.9844,682.5156 C859.25,682.5156 859.5156,682.375 859.6875,682.1563 C859.7969,682 859.8281,681.8125 859.8281,681.3906 L859.8281,679.9688 C859.8281,679.5313 859.8125,679.4063 859.7188,679.25 C859.5625,678.9844 859.2813,678.8438 858.9844,678.8438 C858.6875,678.8438 858.4844,678.9375 858.2656,679.25 L858.0938,679.1719 Z " fill="#000000"/><text fill="#000000" font-family="sans-serif" font-size="12" lengthAdjust="spacingAndGlyphs" textLength="107" x="876.25" y="687.6543">AggregationEvent</text><line style="stroke:#A80036;stroke-width:1.5;" x1="779.5" x2="1047.5" y1="699.5" y2="699.5"/><text fill="#000000" font-family="sans-serif" font-size="11" lengthAdjust="spacingAndGlyphs" textLength="258" x="784.5" y="713.7104">a                       gs1-epcis:AggregationEvent</text><line style="stroke:#A80036;stroke-width:1.5;" x1="779.5" x2="1047.5" y1="720.3047" y2="720.3047"/><!--MD5=[6b557f23d08adf00be0fd7f95e5177af]
class TransactionEvent--><rect codeLine="17" fill="#FEFECE" filter="url(#f1ckivj5hgfzrx)" height="60.8047" id="TransactionEvent" style="stroke:#A80036;stroke-width:1.5;" width="266" x="1083.5" y="667.5"/><ellipse cx="1161.25" cy="683.5" fill="#ADD1B2" rx="11" ry="11" style="stroke:#A80036;stroke-width:1.0;"/><path d="M1163.5938,679.1719 C1162.6563,678.7344 1162.0625,678.5938 1161.1875,678.5938 C1158.5625,678.5938 1156.5625,680.6719 1156.5625,683.3906 L1156.5625,684.5156 C1156.5625,687.0938 1158.6719,688.9844 1161.5625,688.9844 C1162.7813,688.9844 1163.9375,688.6875 1164.6875,688.1406 C1165.2656,687.7344 1165.5938,687.2813 1165.5938,686.8906 C1165.5938,686.4375 1165.2031,686.0469 1164.7344,686.0469 C1164.5156,686.0469 1164.3125,686.125 1164.125,686.3125 C1163.6719,686.7969 1163.6719,686.7969 1163.4844,686.8906 C1163.0625,687.1563 1162.375,687.2813 1161.6094,687.2813 C1159.5625,687.2813 1158.2656,686.1875 1158.2656,684.4844 L1158.2656,683.3906 C1158.2656,681.6094 1159.5156,680.2969 1161.25,680.2969 C1161.8281,680.2969 1162.4375,680.4531 1162.9063,680.7031 C1163.3906,680.9844 1163.5625,681.2031 1163.6563,681.6094 C1163.7188,682.0156 1163.75,682.1406 1163.8906,682.2656 C1164.0313,682.4063 1164.2656,682.5156 1164.4844,682.5156 C1164.75,682.5156 1165.0156,682.375 1165.1875,682.1563 C1165.2969,682 1165.3281,681.8125 1165.3281,681.3906 L1165.3281,679.9688 C1165.3281,679.5313 1165.3125,679.4063 1165.2188,679.25 C1165.0625,678.9844 1164.7813,678.8438 1164.4844,678.8438 C1164.1875,678.8438 1163.9844,678.9375 1163.7656,679.25 L1163.5938,679.1719 Z " fill="#000000"/><text fill="#000000" font-family="sans-serif" font-size="12" lengthAdjust="spacingAndGlyphs" textLength="102" x="1181.75" y="687.6543">TransactionEvent</text><line style="stroke:#A80036;stroke-width:1.5;" x1="1084.5" x2="1348.5" y1="699.5" y2="699.5"/><text fill="#000000" font-family="sans-serif" font-size="11" lengthAdjust="spacingAndGlyphs" textLength="254" x="1089.5" y="713.7104">a                       gs1-epcis:TransactionEvent</text><line style="stroke:#A80036;stroke-width:1.5;" x1="1084.5" x2="1348.5" y1="720.3047" y2="720.3047"/><!--MD5=[7c0cfa3862919436838352e0461fd6a9]
class TransformationEvent--><rect codeLine="21" fill="#FEFECE" filter="url(#f1ckivj5hgfzrx)" height="73.6094" id="TransformationEvent" style="stroke:#A80036;stroke-width:1.5;" width="266" x="1384.5" y="661"/><ellipse cx="1451.75" cy="677" fill="#ADD1B2" rx="11" ry="11" style="stroke:#A80036;stroke-width:1.0;"/><path d="M1454.0938,672.6719 C1453.1563,672.2344 1452.5625,672.0938 1451.6875,672.0938 C1449.0625,672.0938 1447.0625,674.1719 1447.0625,676.8906 L1447.0625,678.0156 C1447.0625,680.5938 1449.1719,682.4844 1452.0625,682.4844 C1453.2813,682.4844 1454.4375,682.1875 1455.1875,681.6406 C1455.7656,681.2344 1456.0938,680.7813 1456.0938,680.3906 C1456.0938,679.9375 1455.7031,679.5469 1455.2344,679.5469 C1455.0156,679.5469 1454.8125,679.625 1454.625,679.8125 C1454.1719,680.2969 1454.1719,680.2969 1453.9844,680.3906 C1453.5625,680.6563 1452.875,680.7813 1452.1094,680.7813 C1450.0625,680.7813 1448.7656,679.6875 1448.7656,677.9844 L1448.7656,676.8906 C1448.7656,675.1094 1450.0156,673.7969 1451.75,673.7969 C1452.3281,673.7969 1452.9375,673.9531 1453.4063,674.2031 C1453.8906,674.4844 1454.0625,674.7031 1454.1563,675.1094 C1454.2188,675.5156 1454.25,675.6406 1454.3906,675.7656 C1454.5313,675.9063 1454.7656,676.0156 1454.9844,676.0156 C1455.25,676.0156 1455.5156,675.875 1455.6875,675.6563 C1455.7969,675.5 1455.8281,675.3125 1455.8281,674.8906 L1455.8281,673.4688 C1455.8281,673.0313 1455.8125,672.9063 1455.7188,672.75 C1455.5625,672.4844 1455.2813,672.3438 1454.9844,672.3438 C1454.6875,672.3438 1454.4844,672.4375 1454.2656,672.75 L1454.0938,672.6719 Z " fill="#000000"/><text fill="#000000" font-family="sans-serif" font-size="12" lengthAdjust="spacingAndGlyphs" textLength="123" x="1472.25" y="681.1543">TransformationEvent</text><line style="stroke:#A80036;stroke-width:1.5;" x1="1385.5" x2="1649.5" y1="693" y2="693"/><text fill="#000000" font-family="sans-serif" font-size="11" lengthAdjust="spacingAndGlyphs" textLength="254" x="1390.5" y="707.2104">a                       gs1-epcis:TransactionEvent</text><text fill="#000000" font-family="sans-serif" font-size="11" lengthAdjust="spacingAndGlyphs" textLength="157" x="1390.5" y="720.0151">transformationID        string</text><line style="stroke:#A80036;stroke-width:1.5;" x1="1385.5" x2="1649.5" y1="726.6094" y2="726.6094"/><!--MD5=[72136138052d025cffdce3c22fbd185f]
class Product--><rect codeLine="26" fill="#FEFECE" filter="url(#f1ckivj5hgfzrx)" height="112.0234" id="Product" style="stroke:#A80036;stroke-width:1.5;" width="228" x="976.5" y="963"/><ellipse cx="1063.75" cy="979" fill="#ADD1B2" rx="11" ry="11" style="stroke:#A80036;stroke-width:1.0;"/><path d="M1066.0938,974.6719 C1065.1563,974.2344 1064.5625,974.0938 1063.6875,974.0938 C1061.0625,974.0938 1059.0625,976.1719 1059.0625,978.8906 L1059.0625,980.0156 C1059.0625,982.5938 1061.1719,984.4844 1064.0625,984.4844 C1065.2813,984.4844 1066.4375,984.1875 1067.1875,983.6406 C1067.7656,983.2344 1068.0938,982.7813 1068.0938,982.3906 C1068.0938,981.9375 1067.7031,981.5469 1067.2344,981.5469 C1067.0156,981.5469 1066.8125,981.625 1066.625,981.8125 C1066.1719,982.2969 1066.1719,982.2969 1065.9844,982.3906 C1065.5625,982.6563 1064.875,982.7813 1064.1094,982.7813 C1062.0625,982.7813 1060.7656,981.6875 1060.7656,979.9844 L1060.7656,978.8906 C1060.7656,977.1094 1062.0156,975.7969 1063.75,975.7969 C1064.3281,975.7969 1064.9375,975.9531 1065.4063,976.2031 C1065.8906,976.4844 1066.0625,976.7031 1066.1563,977.1094 C1066.2188,977.5156 1066.25,977.6406 1066.3906,977.7656 C1066.5313,977.9063 1066.7656,978.0156 1066.9844,978.0156 C1067.25,978.0156 1067.5156,977.875 1067.6875,977.6563 C1067.7969,977.5 1067.8281,977.3125 1067.8281,976.8906 L1067.8281,975.4688 C1067.8281,975.0313 1067.8125,974.9063 1067.7188,974.75 C1067.5625,974.4844 1067.2813,974.3438 1066.9844,974.3438 C1066.6875,974.3438 1066.4844,974.4375 1066.2656,974.75 L1066.0938,974.6719 Z " fill="#000000"/><text fill="#000000" font-family="sans-serif" font-size="12" lengthAdjust="spacingAndGlyphs" textLength="45" x="1084.25" y="983.1543">Product</text><line style="stroke:#A80036;stroke-width:1.5;" x1="977.5" x2="1203.5" y1="995" y2="995"/><text fill="#000000" font-family="sans-serif" font-size="11" lengthAdjust="spacingAndGlyphs" textLength="179" x="982.5" y="1009.2104">a                           gs1:Product</text><text fill="#000000" font-family="sans-serif" font-size="11" lengthAdjust="spacingAndGlyphs" textLength="215" x="982.5" y="1022.0151">gs1:gpcCategoryCode         xsd:string</text><text fill="#000000" font-family="sans-serif" font-size="11" lengthAdjust="spacingAndGlyphs" textLength="197" x="982.5" y="1034.8198">gs1:linkType                xsd:anyURI</text><text fill="#000000" font-family="sans-serif" font-size="11" lengthAdjust="spacingAndGlyphs" textLength="216" x="982.5" y="1047.6245">fsm:Organization            Organization</text><text fill="#000000" font-family="sans-serif" font-size="11" lengthAdjust="spacingAndGlyphs" textLength="179" x="982.5" y="1060.4292">https://www.gs1.org/voc/Product</text><line style="stroke:#A80036;stroke-width:1.5;" x1="977.5" x2="1203.5" y1="1067.0234" y2="1067.0234"/><!--MD5=[86c7c362de55a38b660185a1328fe18d]
class Organization--><rect codeLine="34" fill="#FEFECE" filter="url(#f1ckivj5hgfzrx)" height="73.6094" id="Organization" style="stroke:#A80036;stroke-width:1.5;" width="222" x="573.5" y="302"/><ellipse cx="642.25" cy="318" fill="#ADD1B2" rx="11" ry="11" style="stroke:#A80036;stroke-width:1.0;"/><path d="M644.5938,313.6719 C643.6563,313.2344 643.0625,313.0938 642.1875,313.0938 C639.5625,313.0938 637.5625,315.1719 637.5625,317.8906 L637.5625,319.0156 C637.5625,321.5938 639.6719,323.4844 642.5625,323.4844 C643.7813,323.4844 644.9375,323.1875 645.6875,322.6406 C646.2656,322.2344 646.5938,321.7813 646.5938,321.3906 C646.5938,320.9375 646.2031,320.5469 645.7344,320.5469 C645.5156,320.5469 645.3125,320.625 645.125,320.8125 C644.6719,321.2969 644.6719,321.2969 644.4844,321.3906 C644.0625,321.6563 643.375,321.7813 642.6094,321.7813 C640.5625,321.7813 639.2656,320.6875 639.2656,318.9844 L639.2656,317.8906 C639.2656,316.1094 640.5156,314.7969 642.25,314.7969 C642.8281,314.7969 643.4375,314.9531 643.9063,315.2031 C644.3906,315.4844 644.5625,315.7031 644.6563,316.1094 C644.7188,316.5156 644.75,316.6406 644.8906,316.7656 C645.0313,316.9063 645.2656,317.0156 645.4844,317.0156 C645.75,317.0156 646.0156,316.875 646.1875,316.6563 C646.2969,316.5 646.3281,316.3125 646.3281,315.8906 L646.3281,314.4688 C646.3281,314.0313 646.3125,313.9063 646.2188,313.75 C646.0625,313.4844 645.7813,313.3438 645.4844,313.3438 C645.1875,313.3438 644.9844,313.4375 644.7656,313.75 L644.5938,313.6719 Z " fill="#000000"/><text fill="#000000" font-family="sans-serif" font-size="12" lengthAdjust="spacingAndGlyphs" textLength="76" x="662.75" y="322.1543">Organization</text><line style="stroke:#A80036;stroke-width:1.5;" x1="574.5" x2="794.5" y1="334" y2="334"/><text fill="#000000" font-family="sans-serif" font-size="11" lengthAdjust="spacingAndGlyphs" textLength="106" x="579.5" y="348.2104">a gs1:Organization</text><text fill="#000000" font-family="sans-serif" font-size="11" lengthAdjust="spacingAndGlyphs" textLength="210" x="579.5" y="361.0151">https://www.gs1.org/voc/Organization</text><line style="stroke:#A80036;stroke-width:1.5;" x1="574.5" x2="794.5" y1="367.6094" y2="367.6094"/><!--MD5=[4555bb1b0911a5adf28ce6dbe60fed2e]
class Transaction--><rect codeLine="39" fill="#FEFECE" filter="url(#f1ckivj5hgfzrx)" height="60.8047" id="Transaction" style="stroke:#A80036;stroke-width:1.5;" width="233" x="305" y="308.5"/><ellipse cx="382.75" cy="324.5" fill="#ADD1B2" rx="11" ry="11" style="stroke:#A80036;stroke-width:1.0;"/><path d="M385.0938,320.1719 C384.1563,319.7344 383.5625,319.5938 382.6875,319.5938 C380.0625,319.5938 378.0625,321.6719 378.0625,324.3906 L378.0625,325.5156 C378.0625,328.0938 380.1719,329.9844 383.0625,329.9844 C384.2813,329.9844 385.4375,329.6875 386.1875,329.1406 C386.7656,328.7344 387.0938,328.2813 387.0938,327.8906 C387.0938,327.4375 386.7031,327.0469 386.2344,327.0469 C386.0156,327.0469 385.8125,327.125 385.625,327.3125 C385.1719,327.7969 385.1719,327.7969 384.9844,327.8906 C384.5625,328.1563 383.875,328.2813 383.1094,328.2813 C381.0625,328.2813 379.7656,327.1875 379.7656,325.4844 L379.7656,324.3906 C379.7656,322.6094 381.0156,321.2969 382.75,321.2969 C383.3281,321.2969 383.9375,321.4531 384.4063,321.7031 C384.8906,321.9844 385.0625,322.2031 385.1563,322.6094 C385.2188,323.0156 385.25,323.1406 385.3906,323.2656 C385.5313,323.4063 385.7656,323.5156 385.9844,323.5156 C386.25,323.5156 386.5156,323.375 386.6875,323.1563 C386.7969,323 386.8281,322.8125 386.8281,322.3906 L386.8281,320.9688 C386.8281,320.5313 386.8125,320.4063 386.7188,320.25 C386.5625,319.9844 386.2813,319.8438 385.9844,319.8438 C385.6875,319.8438 385.4844,319.9375 385.2656,320.25 L385.0938,320.1719 Z " fill="#000000"/><text fill="#000000" font-family="sans-serif" font-size="12" lengthAdjust="spacingAndGlyphs" textLength="69" x="403.25" y="328.6543">Transaction</text><line style="stroke:#A80036;stroke-width:1.5;" x1="306" x2="537" y1="340.5" y2="340.5"/><text fill="#000000" font-family="sans-serif" font-size="11" lengthAdjust="spacingAndGlyphs" textLength="221" x="311" y="354.7104">transactionType         TransactionType</text><line style="stroke:#A80036;stroke-width:1.5;" x1="306" x2="537" y1="361.3047" y2="361.3047"/><!--MD5=[8515a37c80da559ff7ce07f8a9e75d30]
class Place--><rect codeLine="43" fill="#FEFECE" filter="url(#f1ckivj5hgfzrx)" height="73.6094" id="Place" style="stroke:#A80036;stroke-width:1.5;" width="164" x="886.5" y="302"/><ellipse cx="948.75" cy="318" fill="#ADD1B2" rx="11" ry="11" style="stroke:#A80036;stroke-width:1.0;"/><path d="M951.0938,313.6719 C950.1563,313.2344 949.5625,313.0938 948.6875,313.0938 C946.0625,313.0938 944.0625,315.1719 944.0625,317.8906 L944.0625,319.0156 C944.0625,321.5938 946.1719,323.4844 949.0625,323.4844 C950.2813,323.4844 951.4375,323.1875 952.1875,322.6406 C952.7656,322.2344 953.0938,321.7813 953.0938,321.3906 C953.0938,320.9375 952.7031,320.5469 952.2344,320.5469 C952.0156,320.5469 951.8125,320.625 951.625,320.8125 C951.1719,321.2969 951.1719,321.2969 950.9844,321.3906 C950.5625,321.6563 949.875,321.7813 949.1094,321.7813 C947.0625,321.7813 945.7656,320.6875 945.7656,318.9844 L945.7656,317.8906 C945.7656,316.1094 947.0156,314.7969 948.75,314.7969 C949.3281,314.7969 949.9375,314.9531 950.4063,315.2031 C950.8906,315.4844 951.0625,315.7031 951.1563,316.1094 C951.2188,316.5156 951.25,316.6406 951.3906,316.7656 C951.5313,316.9063 951.7656,317.0156 951.9844,317.0156 C952.25,317.0156 952.5156,316.875 952.6875,316.6563 C952.7969,316.5 952.8281,316.3125 952.8281,315.8906 L952.8281,314.4688 C952.8281,314.0313 952.8125,313.9063 952.7188,313.75 C952.5625,313.4844 952.2813,313.3438 951.9844,313.3438 C951.6875,313.3438 951.4844,313.4375 951.2656,313.75 L951.0938,313.6719 Z " fill="#000000"/><text fill="#000000" font-family="sans-serif" font-size="12" lengthAdjust="spacingAndGlyphs" textLength="31" x="969.25" y="322.1543">Place</text><line style="stroke:#A80036;stroke-width:1.5;" x1="887.5" x2="1049.5" y1="334" y2="334"/><text fill="#000000" font-family="sans-serif" font-size="11" lengthAdjust="spacingAndGlyphs" textLength="152" x="892.5" y="348.2104">a                       gs1:Place</text><text fill="#000000" font-family="sans-serif" font-size="11" lengthAdjust="spacingAndGlyphs" textLength="138" x="892.5" y="361.0151">https://gs1.org/voc/Place</text><line style="stroke:#A80036;stroke-width:1.5;" x1="887.5" x2="1049.5" y1="367.6094" y2="367.6094"/><!--MD5=[b72a7b7565457a5fd6b510e59693982e]
class BusinessStep--><rect codeLine="48" fill="#FEFECE" filter="url(#f1ckivj5hgfzrx)" height="112.0234" id="BusinessStep" style="stroke:#A80036;stroke-width:1.5;" width="317" x="1461" y="283"/><ellipse cx="1574.25" cy="299" fill="#ADD1B2" rx="11" ry="11" style="stroke:#A80036;stroke-width:1.0;"/><path d="M1576.5938,294.6719 C1575.6563,294.2344 1575.0625,294.0938 1574.1875,294.0938 C1571.5625,294.0938 1569.5625,296.1719 1569.5625,298.8906 L1569.5625,300.0156 C1569.5625,302.5938 1571.6719,304.4844 1574.5625,304.4844 C1575.7813,304.4844 1576.9375,304.1875 1577.6875,303.6406 C1578.2656,303.2344 1578.5938,302.7813 1578.5938,302.3906 C1578.5938,301.9375 1578.2031,301.5469 1577.7344,301.5469 C1577.5156,301.5469 1577.3125,301.625 1577.125,301.8125 C1576.6719,302.2969 1576.6719,302.2969 1576.4844,302.3906 C1576.0625,302.6563 1575.375,302.7813 1574.6094,302.7813 C1572.5625,302.7813 1571.2656,301.6875 1571.2656,299.9844 L1571.2656,298.8906 C1571.2656,297.1094 1572.5156,295.7969 1574.25,295.7969 C1574.8281,295.7969 1575.4375,295.9531 1575.9063,296.2031 C1576.3906,296.4844 1576.5625,296.7031 1576.6563,297.1094 C1576.7188,297.5156 1576.75,297.6406 1576.8906,297.7656 C1577.0313,297.9063 1577.2656,298.0156 1577.4844,298.0156 C1577.75,298.0156 1578.0156,297.875 1578.1875,297.6563 C1578.2969,297.5 1578.3281,297.3125 1578.3281,296.8906 L1578.3281,295.4688 C1578.3281,295.0313 1578.3125,294.9063 1578.2188,294.75 C1578.0625,294.4844 1577.7813,294.3438 1577.4844,294.3438 C1577.1875,294.3438 1576.9844,294.4375 1576.7656,294.75 L1576.5938,294.6719 Z " fill="#000000"/><text fill="#000000" font-family="sans-serif" font-size="12" lengthAdjust="spacingAndGlyphs" textLength="82" x="1594.75" y="303.1543">BusinessStep</text><line style="stroke:#A80036;stroke-width:1.5;" x1="1462" x2="1777" y1="315" y2="315"/><text fill="#000000" font-family="sans-serif" font-size="11" lengthAdjust="spacingAndGlyphs" textLength="86" x="1467" y="329.2104">a skos:Concept</text><text fill="#000000" font-family="sans-serif" font-size="11" lengthAdjust="spacingAndGlyphs" textLength="305" x="1467" y="342.0151">skos:conceptScheme      &lt;taxonomy/business_step&gt;</text><text fill="#000000" font-family="sans-serif" font-size="11" lengthAdjust="spacingAndGlyphs" textLength="153" x="1467" y="354.8198">skos:prefLabel          string</text><text fill="#000000" font-family="sans-serif" font-size="11" lengthAdjust="spacingAndGlyphs" textLength="153" x="1467" y="367.6245">skos:description        string</text><text fill="#000000" font-family="sans-serif" font-size="11" lengthAdjust="spacingAndGlyphs" textLength="158" x="1467" y="380.4292">fsm:example             string</text><line style="stroke:#A80036;stroke-width:1.5;" x1="1462" x2="1777" y1="387.0234" y2="387.0234"/><!--MD5=[a66e46a001d181163432baad639e98b3]
class Disposition--><rect codeLine="56" fill="#FEFECE" filter="url(#f1ckivj5hgfzrx)" height="112.0234" id="Disposition" style="stroke:#A80036;stroke-width:1.5;" width="296" x="1129.5" y="283"/><ellipse cx="1239.75" cy="299" fill="#ADD1B2" rx="11" ry="11" style="stroke:#A80036;stroke-width:1.0;"/><path d="M1242.0938,294.6719 C1241.1563,294.2344 1240.5625,294.0938 1239.6875,294.0938 C1237.0625,294.0938 1235.0625,296.1719 1235.0625,298.8906 L1235.0625,300.0156 C1235.0625,302.5938 1237.1719,304.4844 1240.0625,304.4844 C1241.2813,304.4844 1242.4375,304.1875 1243.1875,303.6406 C1243.7656,303.2344 1244.0938,302.7813 1244.0938,302.3906 C1244.0938,301.9375 1243.7031,301.5469 1243.2344,301.5469 C1243.0156,301.5469 1242.8125,301.625 1242.625,301.8125 C1242.1719,302.2969 1242.1719,302.2969 1241.9844,302.3906 C1241.5625,302.6563 1240.875,302.7813 1240.1094,302.7813 C1238.0625,302.7813 1236.7656,301.6875 1236.7656,299.9844 L1236.7656,298.8906 C1236.7656,297.1094 1238.0156,295.7969 1239.75,295.7969 C1240.3281,295.7969 1240.9375,295.9531 1241.4063,296.2031 C1241.8906,296.4844 1242.0625,296.7031 1242.1563,297.1094 C1242.2188,297.5156 1242.25,297.6406 1242.3906,297.7656 C1242.5313,297.9063 1242.7656,298.0156 1242.9844,298.0156 C1243.25,298.0156 1243.5156,297.875 1243.6875,297.6563 C1243.7969,297.5 1243.8281,297.3125 1243.8281,296.8906 L1243.8281,295.4688 C1243.8281,295.0313 1243.8125,294.9063 1243.7188,294.75 C1243.5625,294.4844 1243.2813,294.3438 1242.9844,294.3438 C1242.6875,294.3438 1242.4844,294.4375 1242.2656,294.75 L1242.0938,294.6719 Z " fill="#000000"/><text fill="#000000" font-family="sans-serif" font-size="12" lengthAdjust="spacingAndGlyphs" textLength="67" x="1260.25" y="303.1543">Disposition</text><line style="stroke:#A80036;stroke-width:1.5;" x1="1130.5" x2="1424.5" y1="315" y2="315"/><text fill="#000000" font-family="sans-serif" font-size="11" lengthAdjust="spacingAndGlyphs" textLength="86" x="1135.5" y="329.2104">a skos:Concept</text><text fill="#000000" font-family="sans-serif" font-size="11" lengthAdjust="spacingAndGlyphs" textLength="284" x="1135.5" y="342.0151">skos:conceptScheme      &lt;taxonomy/disposition&gt;</text><text fill="#000000" font-family="sans-serif" font-size="11" lengthAdjust="spacingAndGlyphs" textLength="153" x="1135.5" y="354.8198">skos:prefLabel          string</text><text fill="#000000" font-family="sans-serif" font-size="11" lengthAdjust="spacingAndGlyphs" textLength="153" x="1135.5" y="367.6245">skos:description        string</text><text fill="#000000" font-family="sans-serif" font-size="11" lengthAdjust="spacingAndGlyphs" textLength="158" x="1135.5" y="380.4292">fsm:example             string</text><line style="stroke:#A80036;stroke-width:1.5;" x1="1130.5" x2="1424.5" y1="387.0234" y2="387.0234"/><!--MD5=[994a5a3820d9ca46072a21178650f513]
class ActionType--><rect codeLine="64" fill="#FEFECE" filter="url(#f1ckivj5hgfzrx)" height="112.0234" id="ActionType" style="stroke:#A80036;stroke-width:1.5;" width="302" x="1813.5" y="283"/><ellipse cx="1926.75" cy="299" fill="#ADD1B2" rx="11" ry="11" style="stroke:#A80036;stroke-width:1.0;"/><path d="M1929.0938,294.6719 C1928.1563,294.2344 1927.5625,294.0938 1926.6875,294.0938 C1924.0625,294.0938 1922.0625,296.1719 1922.0625,298.8906 L1922.0625,300.0156 C1922.0625,302.5938 1924.1719,304.4844 1927.0625,304.4844 C1928.2813,304.4844 1929.4375,304.1875 1930.1875,303.6406 C1930.7656,303.2344 1931.0938,302.7813 1931.0938,302.3906 C1931.0938,301.9375 1930.7031,301.5469 1930.2344,301.5469 C1930.0156,301.5469 1929.8125,301.625 1929.625,301.8125 C1929.1719,302.2969 1929.1719,302.2969 1928.9844,302.3906 C1928.5625,302.6563 1927.875,302.7813 1927.1094,302.7813 C1925.0625,302.7813 1923.7656,301.6875 1923.7656,299.9844 L1923.7656,298.8906 C1923.7656,297.1094 1925.0156,295.7969 1926.75,295.7969 C1927.3281,295.7969 1927.9375,295.9531 1928.4063,296.2031 C1928.8906,296.4844 1929.0625,296.7031 1929.1563,297.1094 C1929.2188,297.5156 1929.25,297.6406 1929.3906,297.7656 C1929.5313,297.9063 1929.7656,298.0156 1929.9844,298.0156 C1930.25,298.0156 1930.5156,297.875 1930.6875,297.6563 C1930.7969,297.5 1930.8281,297.3125 1930.8281,296.8906 L1930.8281,295.4688 C1930.8281,295.0313 1930.8125,294.9063 1930.7188,294.75 C1930.5625,294.4844 1930.2813,294.3438 1929.9844,294.3438 C1929.6875,294.3438 1929.4844,294.4375 1929.2656,294.75 L1929.0938,294.6719 Z " fill="#000000"/><text fill="#000000" font-family="sans-serif" font-size="12" lengthAdjust="spacingAndGlyphs" textLength="67" x="1947.25" y="303.1543">ActionType</text><line style="stroke:#A80036;stroke-width:1.5;" x1="1814.5" x2="2114.5" y1="315" y2="315"/><text fill="#000000" font-family="sans-serif" font-size="11" lengthAdjust="spacingAndGlyphs" textLength="86" x="1819.5" y="329.2104">a skos:Concept</text><text fill="#000000" font-family="sans-serif" font-size="11" lengthAdjust="spacingAndGlyphs" textLength="290" x="1819.5" y="342.0151">skos:conceptScheme      &lt;taxonomy/action_type&gt;</text><text fill="#000000" font-family="sans-serif" font-size="11" lengthAdjust="spacingAndGlyphs" textLength="153" x="1819.5" y="354.8198">skos:prefLabel          string</text><text fill="#000000" font-family="sans-serif" font-size="11" lengthAdjust="spacingAndGlyphs" textLength="153" x="1819.5" y="367.6245">skos:description        string</text><text fill="#000000" font-family="sans-serif" font-size="11" lengthAdjust="spacingAndGlyphs" textLength="158" x="1819.5" y="380.4292">fsm:example             string</text><line style="stroke:#A80036;stroke-width:1.5;" x1="1814.5" x2="2114.5" y1="387.0234" y2="387.0234"/><!--MD5=[c10c36ce2c02dedc3d02a76c5154070d]
class Quantity--><rect codeLine="72" fill="#FEFECE" filter="url(#f1ckivj5hgfzrx)" height="73.6094" id="Quantity" style="stroke:#A80036;stroke-width:1.5;" width="184" x="1332.5" y="812"/><ellipse cx="1395.75" cy="828" fill="#ADD1B2" rx="11" ry="11" style="stroke:#A80036;stroke-width:1.0;"/><path d="M1398.0938,823.6719 C1397.1563,823.2344 1396.5625,823.0938 1395.6875,823.0938 C1393.0625,823.0938 1391.0625,825.1719 1391.0625,827.8906 L1391.0625,829.0156 C1391.0625,831.5938 1393.1719,833.4844 1396.0625,833.4844 C1397.2813,833.4844 1398.4375,833.1875 1399.1875,832.6406 C1399.7656,832.2344 1400.0938,831.7813 1400.0938,831.3906 C1400.0938,830.9375 1399.7031,830.5469 1399.2344,830.5469 C1399.0156,830.5469 1398.8125,830.625 1398.625,830.8125 C1398.1719,831.2969 1398.1719,831.2969 1397.9844,831.3906 C1397.5625,831.6563 1396.875,831.7813 1396.1094,831.7813 C1394.0625,831.7813 1392.7656,830.6875 1392.7656,828.9844 L1392.7656,827.8906 C1392.7656,826.1094 1394.0156,824.7969 1395.75,824.7969 C1396.3281,824.7969 1396.9375,824.9531 1397.4063,825.2031 C1397.8906,825.4844 1398.0625,825.7031 1398.1563,826.1094 C1398.2188,826.5156 1398.25,826.6406 1398.3906,826.7656 C1398.5313,826.9063 1398.7656,827.0156 1398.9844,827.0156 C1399.25,827.0156 1399.5156,826.875 1399.6875,826.6563 C1399.7969,826.5 1399.8281,826.3125 1399.8281,825.8906 L1399.8281,824.4688 C1399.8281,824.0313 1399.8125,823.9063 1399.7188,823.75 C1399.5625,823.4844 1399.2813,823.3438 1398.9844,823.3438 C1398.6875,823.3438 1398.4844,823.4375 1398.2656,823.75 L1398.0938,823.6719 Z " fill="#000000"/><text fill="#000000" font-family="sans-serif" font-size="12" lengthAdjust="spacingAndGlyphs" textLength="49" x="1416.25" y="832.1543">Quantity</text><line style="stroke:#A80036;stroke-width:1.5;" x1="1333.5" x2="1515.5" y1="844" y2="844"/><text fill="#000000" font-family="sans-serif" font-size="11" lengthAdjust="spacingAndGlyphs" textLength="172" x="1338.5" y="858.2104">quantity                xsd:double</text><text fill="#000000" font-family="sans-serif" font-size="11" lengthAdjust="spacingAndGlyphs" textLength="140" x="1338.5" y="871.0151">uom                     string</text><line style="stroke:#A80036;stroke-width:1.5;" x1="1333.5" x2="1515.5" y1="877.6094" y2="877.6094"/><!--MD5=[3a082f03ada48a9c9760bc64ea0753c5]
class Retailer--><rect codeLine="103" fill="#FEFECE" filter="url(#f1ckivj5hgfzrx)" height="60.8047" id="Retailer" style="stroke:#A80036;stroke-width:1.5;" width="131" x="303" y="145"/><ellipse cx="342.3" cy="161" fill="#ADD1B2" rx="11" ry="11" style="stroke:#A80036;stroke-width:1.0;"/><path d="M344.6438,156.6719 C343.7063,156.2344 343.1125,156.0938 342.2375,156.0938 C339.6125,156.0938 337.6125,158.1719 337.6125,160.8906 L337.6125,162.0156 C337.6125,164.5938 339.7219,166.4844 342.6125,166.4844 C343.8313,166.4844 344.9875,166.1875 345.7375,165.6406 C346.3156,165.2344 346.6438,164.7813 346.6438,164.3906 C346.6438,163.9375 346.2531,163.5469 345.7844,163.5469 C345.5656,163.5469 345.3625,163.625 345.175,163.8125 C344.7219,164.2969 344.7219,164.2969 344.5344,164.3906 C344.1125,164.6563 343.425,164.7813 342.6594,164.7813 C340.6125,164.7813 339.3156,163.6875 339.3156,161.9844 L339.3156,160.8906 C339.3156,159.1094 340.5656,157.7969 342.3,157.7969 C342.8781,157.7969 343.4875,157.9531 343.9563,158.2031 C344.4406,158.4844 344.6125,158.7031 344.7063,159.1094 C344.7688,159.5156 344.8,159.6406 344.9406,159.7656 C345.0813,159.9063 345.3156,160.0156 345.5344,160.0156 C345.8,160.0156 346.0656,159.875 346.2375,159.6563 C346.3469,159.5 346.3781,159.3125 346.3781,158.8906 L346.3781,157.4688 C346.3781,157.0313 346.3625,156.9063 346.2688,156.75 C346.1125,156.4844 345.8313,156.3438 345.5344,156.3438 C345.2375,156.3438 345.0344,156.4375 344.8156,156.75 L344.6438,156.6719 Z " fill="#000000"/><text fill="#000000" font-family="sans-serif" font-size="12" lengthAdjust="spacingAndGlyphs" textLength="45" x="361.7" y="165.1543">Retailer</text><line style="stroke:#A80036;stroke-width:1.5;" x1="304" x2="433" y1="177" y2="177"/><text fill="#000000" font-family="sans-serif" font-size="11" lengthAdjust="spacingAndGlyphs" textLength="119" x="309" y="191.2104">a           fsm:Retailer</text><line style="stroke:#A80036;stroke-width:1.5;" x1="304" x2="433" y1="197.8047" y2="197.8047"/><!--MD5=[09e3160644ea82bed9dc2bfdc7bfe5c8]
class Producer--><rect codeLine="107" fill="#FEFECE" filter="url(#f1ckivj5hgfzrx)" height="60.8047" id="Producer" style="stroke:#A80036;stroke-width:1.5;" width="136" x="778.5" y="7"/><ellipse cx="816" cy="23" fill="#ADD1B2" rx="11" ry="11" style="stroke:#A80036;stroke-width:1.0;"/><path d="M818.3438,18.6719 C817.4063,18.2344 816.8125,18.0938 815.9375,18.0938 C813.3125,18.0938 811.3125,20.1719 811.3125,22.8906 L811.3125,24.0156 C811.3125,26.5938 813.4219,28.4844 816.3125,28.4844 C817.5313,28.4844 818.6875,28.1875 819.4375,27.6406 C820.0156,27.2344 820.3438,26.7813 820.3438,26.3906 C820.3438,25.9375 819.9531,25.5469 819.4844,25.5469 C819.2656,25.5469 819.0625,25.625 818.875,25.8125 C818.4219,26.2969 818.4219,26.2969 818.2344,26.3906 C817.8125,26.6563 817.125,26.7813 816.3594,26.7813 C814.3125,26.7813 813.0156,25.6875 813.0156,23.9844 L813.0156,22.8906 C813.0156,21.1094 814.2656,19.7969 816,19.7969 C816.5781,19.7969 817.1875,19.9531 817.6563,20.2031 C818.1406,20.4844 818.3125,20.7031 818.4063,21.1094 C818.4688,21.5156 818.5,21.6406 818.6406,21.7656 C818.7813,21.9063 819.0156,22.0156 819.2344,22.0156 C819.5,22.0156 819.7656,21.875 819.9375,21.6563 C820.0469,21.5 820.0781,21.3125 820.0781,20.8906 L820.0781,19.4688 C820.0781,19.0313 820.0625,18.9063 819.9688,18.75 C819.8125,18.4844 819.5313,18.3438 819.2344,18.3438 C818.9375,18.3438 818.7344,18.4375 818.5156,18.75 L818.3438,18.6719 Z " fill="#000000"/><text fill="#000000" font-family="sans-serif" font-size="12" lengthAdjust="spacingAndGlyphs" textLength="54" x="835" y="27.1543">Producer</text><line style="stroke:#A80036;stroke-width:1.5;" x1="779.5" x2="913.5" y1="39" y2="39"/><text fill="#000000" font-family="sans-serif" font-size="11" lengthAdjust="spacingAndGlyphs" textLength="124" x="784.5" y="53.2104">a           fsm:Producer</text><line style="stroke:#A80036;stroke-width:1.5;" x1="779.5" x2="913.5" y1="59.8047" y2="59.8047"/><!--MD5=[745cc7ee0ffbadd0e5662d4317a12d8b]
class Manufacturer--><rect codeLine="111" fill="#FEFECE" filter="url(#f1ckivj5hgfzrx)" height="60.8047" id="Manufacturer" style="stroke:#A80036;stroke-width:1.5;" width="161" x="950" y="7"/><ellipse cx="987.95" cy="23" fill="#ADD1B2" rx="11" ry="11" style="stroke:#A80036;stroke-width:1.0;"/><path d="M990.2938,18.6719 C989.3563,18.2344 988.7625,18.0938 987.8875,18.0938 C985.2625,18.0938 983.2625,20.1719 983.2625,22.8906 L983.2625,24.0156 C983.2625,26.5938 985.3719,28.4844 988.2625,28.4844 C989.4813,28.4844 990.6375,28.1875 991.3875,27.6406 C991.9656,27.2344 992.2938,26.7813 992.2938,26.3906 C992.2938,25.9375 991.9031,25.5469 991.4344,25.5469 C991.2156,25.5469 991.0125,25.625 990.825,25.8125 C990.3719,26.2969 990.3719,26.2969 990.1844,26.3906 C989.7625,26.6563 989.075,26.7813 988.3094,26.7813 C986.2625,26.7813 984.9656,25.6875 984.9656,23.9844 L984.9656,22.8906 C984.9656,21.1094 986.2156,19.7969 987.95,19.7969 C988.5281,19.7969 989.1375,19.9531 989.6063,20.2031 C990.0906,20.4844 990.2625,20.7031 990.3563,21.1094 C990.4188,21.5156 990.45,21.6406 990.5906,21.7656 C990.7313,21.9063 990.9656,22.0156 991.1844,22.0156 C991.45,22.0156 991.7156,21.875 991.8875,21.6563 C991.9969,21.5 992.0281,21.3125 992.0281,20.8906 L992.0281,19.4688 C992.0281,19.0313 992.0125,18.9063 991.9188,18.75 C991.7625,18.4844 991.4813,18.3438 991.1844,18.3438 C990.8875,18.3438 990.6844,18.4375 990.4656,18.75 L990.2938,18.6719 Z " fill="#000000"/><text fill="#000000" font-family="sans-serif" font-size="12" lengthAdjust="spacingAndGlyphs" textLength="78" x="1007.05" y="27.1543">Manufacturer</text><line style="stroke:#A80036;stroke-width:1.5;" x1="951" x2="1110" y1="39" y2="39"/><text fill="#000000" font-family="sans-serif" font-size="11" lengthAdjust="spacingAndGlyphs" textLength="149" x="956" y="53.2104">a           fsm:Manufacturer</text><line style="stroke:#A80036;stroke-width:1.5;" x1="951" x2="1110" y1="59.8047" y2="59.8047"/><!--MD5=[d8b7e4e2b4714695e5ea40a6bc5907ed]
class FoodProcessor--><rect codeLine="115" fill="#FEFECE" filter="url(#f1ckivj5hgfzrx)" height="60.8047" id="FoodProcessor" style="stroke:#A80036;stroke-width:1.5;" width="168" x="1146.5" y="7"/><ellipse cx="1181.3" cy="23" fill="#ADD1B2" rx="11" ry="11" style="stroke:#A80036;stroke-width:1.0;"/><path d="M1183.6438,18.6719 C1182.7063,18.2344 1182.1125,18.0938 1181.2375,18.0938 C1178.6125,18.0938 1176.6125,20.1719 1176.6125,22.8906 L1176.6125,24.0156 C1176.6125,26.5938 1178.7219,28.4844 1181.6125,28.4844 C1182.8313,28.4844 1183.9875,28.1875 1184.7375,27.6406 C1185.3156,27.2344 1185.6438,26.7813 1185.6438,26.3906 C1185.6438,25.9375 1185.2531,25.5469 1184.7844,25.5469 C1184.5656,25.5469 1184.3625,25.625 1184.175,25.8125 C1183.7219,26.2969 1183.7219,26.2969 1183.5344,26.3906 C1183.1125,26.6563 1182.425,26.7813 1181.6594,26.7813 C1179.6125,26.7813 1178.3156,25.6875 1178.3156,23.9844 L1178.3156,22.8906 C1178.3156,21.1094 1179.5656,19.7969 1181.3,19.7969 C1181.8781,19.7969 1182.4875,19.9531 1182.9563,20.2031 C1183.4406,20.4844 1183.6125,20.7031 1183.7063,21.1094 C1183.7688,21.5156 1183.8,21.6406 1183.9406,21.7656 C1184.0813,21.9063 1184.3156,22.0156 1184.5344,22.0156 C1184.8,22.0156 1185.0656,21.875 1185.2375,21.6563 C1185.3469,21.5 1185.3781,21.3125 1185.3781,20.8906 L1185.3781,19.4688 C1185.3781,19.0313 1185.3625,18.9063 1185.2688,18.75 C1185.1125,18.4844 1184.8313,18.3438 1184.5344,18.3438 C1184.2375,18.3438 1184.0344,18.4375 1183.8156,18.75 L1183.6438,18.6719 Z " fill="#000000"/><text fill="#000000" font-family="sans-serif" font-size="12" lengthAdjust="spacingAndGlyphs" textLength="92" x="1199.7" y="27.1543">FoodProcessor</text><line style="stroke:#A80036;stroke-width:1.5;" x1="1147.5" x2="1313.5" y1="39" y2="39"/><text fill="#000000" font-family="sans-serif" font-size="11" lengthAdjust="spacingAndGlyphs" textLength="156" x="1152.5" y="53.2104">a           fsm:FoodProcessor</text><line style="stroke:#A80036;stroke-width:1.5;" x1="1147.5" x2="1313.5" y1="59.8047" y2="59.8047"/><!--MD5=[379d885b8122ce1bd4f3b34fe91081af]
class CertificationBody--><rect codeLine="119" fill="#FEFECE" filter="url(#f1ckivj5hgfzrx)" height="60.8047" id="CertificationBody" style="stroke:#A80036;stroke-width:1.5;" width="184" x="469.5" y="145"/><ellipse cx="507" cy="161" fill="#ADD1B2" rx="11" ry="11" style="stroke:#A80036;stroke-width:1.0;"/><path d="M509.3438,156.6719 C508.4063,156.2344 507.8125,156.0938 506.9375,156.0938 C504.3125,156.0938 502.3125,158.1719 502.3125,160.8906 L502.3125,162.0156 C502.3125,164.5938 504.4219,166.4844 507.3125,166.4844 C508.5313,166.4844 509.6875,166.1875 510.4375,165.6406 C511.0156,165.2344 511.3438,164.7813 511.3438,164.3906 C511.3438,163.9375 510.9531,163.5469 510.4844,163.5469 C510.2656,163.5469 510.0625,163.625 509.875,163.8125 C509.4219,164.2969 509.4219,164.2969 509.2344,164.3906 C508.8125,164.6563 508.125,164.7813 507.3594,164.7813 C505.3125,164.7813 504.0156,163.6875 504.0156,161.9844 L504.0156,160.8906 C504.0156,159.1094 505.2656,157.7969 507,157.7969 C507.5781,157.7969 508.1875,157.9531 508.6563,158.2031 C509.1406,158.4844 509.3125,158.7031 509.4063,159.1094 C509.4688,159.5156 509.5,159.6406 509.6406,159.7656 C509.7813,159.9063 510.0156,160.0156 510.2344,160.0156 C510.5,160.0156 510.7656,159.875 510.9375,159.6563 C511.0469,159.5 511.0781,159.3125 511.0781,158.8906 L511.0781,157.4688 C511.0781,157.0313 511.0625,156.9063 510.9688,156.75 C510.8125,156.4844 510.5313,156.3438 510.2344,156.3438 C509.9375,156.3438 509.7344,156.4375 509.5156,156.75 L509.3438,156.6719 Z " fill="#000000"/><text fill="#000000" font-family="sans-serif" font-size="12" lengthAdjust="spacingAndGlyphs" textLength="102" x="526" y="165.1543">CertificationBody</text><line style="stroke:#A80036;stroke-width:1.5;" x1="470.5" x2="652.5" y1="177" y2="177"/><text fill="#000000" font-family="sans-serif" font-size="11" lengthAdjust="spacingAndGlyphs" textLength="172" x="475.5" y="191.2104">a           fsm:CertificationBody</text><line style="stroke:#A80036;stroke-width:1.5;" x1="470.5" x2="652.5" y1="197.8047" y2="197.8047"/><!--MD5=[b7157c1b9811807321a1cf7c7fb75f55]
class CertificationSchemaOwner--><rect codeLine="123" fill="#FEFECE" filter="url(#f1ckivj5hgfzrx)" height="60.8047" id="CertificationSchemaOwner" style="stroke:#A80036;stroke-width:1.5;" width="239" x="689" y="145"/><ellipse cx="725.6" cy="161" fill="#ADD1B2" rx="11" ry="11" style="stroke:#A80036;stroke-width:1.0;"/><path d="M727.9438,156.6719 C727.0063,156.2344 726.4125,156.0938 725.5375,156.0938 C722.9125,156.0938 720.9125,158.1719 720.9125,160.8906 L720.9125,162.0156 C720.9125,164.5938 723.0219,166.4844 725.9125,166.4844 C727.1313,166.4844 728.2875,166.1875 729.0375,165.6406 C729.6156,165.2344 729.9438,164.7813 729.9438,164.3906 C729.9438,163.9375 729.5531,163.5469 729.0844,163.5469 C728.8656,163.5469 728.6625,163.625 728.475,163.8125 C728.0219,164.2969 728.0219,164.2969 727.8344,164.3906 C727.4125,164.6563 726.725,164.7813 725.9594,164.7813 C723.9125,164.7813 722.6156,163.6875 722.6156,161.9844 L722.6156,160.8906 C722.6156,159.1094 723.8656,157.7969 725.6,157.7969 C726.1781,157.7969 726.7875,157.9531 727.2563,158.2031 C727.7406,158.4844 727.9125,158.7031 728.0063,159.1094 C728.0688,159.5156 728.1,159.6406 728.2406,159.7656 C728.3813,159.9063 728.6156,160.0156 728.8344,160.0156 C729.1,160.0156 729.3656,159.875 729.5375,159.6563 C729.6469,159.5 729.6781,159.3125 729.6781,158.8906 L729.6781,157.4688 C729.6781,157.0313 729.6625,156.9063 729.5688,156.75 C729.4125,156.4844 729.1313,156.3438 728.8344,156.3438 C728.5375,156.3438 728.3344,156.4375 728.1156,156.75 L727.9438,156.6719 Z " fill="#000000"/><text fill="#000000" font-family="sans-serif" font-size="12" lengthAdjust="spacingAndGlyphs" textLength="159" x="744.4" y="165.1543">CertificationSchemaOwner</text><line style="stroke:#A80036;stroke-width:1.5;" x1="690" x2="927" y1="177" y2="177"/><text fill="#000000" font-family="sans-serif" font-size="11" lengthAdjust="spacingAndGlyphs" textLength="227" x="695" y="191.2104">a           fsm:CertificationSchemaOwner</text><line style="stroke:#A80036;stroke-width:1.5;" x1="690" x2="927" y1="197.8047" y2="197.8047"/><!--MD5=[6f6af049516bc56aac6e320b3234ce97]
class Supplier--><rect codeLine="127" fill="#FEFECE" filter="url(#f1ckivj5hgfzrx)" height="60.8047" id="Supplier" style="stroke:#A80036;stroke-width:1.5;" width="134" x="963.5" y="145"/><ellipse cx="1001.9" cy="161" fill="#ADD1B2" rx="11" ry="11" style="stroke:#A80036;stroke-width:1.0;"/><path d="M1004.2438,156.6719 C1003.3063,156.2344 1002.7125,156.0938 1001.8375,156.0938 C999.2125,156.0938 997.2125,158.1719 997.2125,160.8906 L997.2125,162.0156 C997.2125,164.5938 999.3219,166.4844 1002.2125,166.4844 C1003.4313,166.4844 1004.5875,166.1875 1005.3375,165.6406 C1005.9156,165.2344 1006.2438,164.7813 1006.2438,164.3906 C1006.2438,163.9375 1005.8531,163.5469 1005.3844,163.5469 C1005.1656,163.5469 1004.9625,163.625 1004.775,163.8125 C1004.3219,164.2969 1004.3219,164.2969 1004.1344,164.3906 C1003.7125,164.6563 1003.025,164.7813 1002.2594,164.7813 C1000.2125,164.7813 998.9156,163.6875 998.9156,161.9844 L998.9156,160.8906 C998.9156,159.1094 1000.1656,157.7969 1001.9,157.7969 C1002.4781,157.7969 1003.0875,157.9531 1003.5563,158.2031 C1004.0406,158.4844 1004.2125,158.7031 1004.3063,159.1094 C1004.3688,159.5156 1004.4,159.6406 1004.5406,159.7656 C1004.6813,159.9063 1004.9156,160.0156 1005.1344,160.0156 C1005.4,160.0156 1005.6656,159.875 1005.8375,159.6563 C1005.9469,159.5 1005.9781,159.3125 1005.9781,158.8906 L1005.9781,157.4688 C1005.9781,157.0313 1005.9625,156.9063 1005.8688,156.75 C1005.7125,156.4844 1005.4313,156.3438 1005.1344,156.3438 C1004.8375,156.3438 1004.6344,156.4375 1004.4156,156.75 L1004.2438,156.6719 Z " fill="#000000"/><text fill="#000000" font-family="sans-serif" font-size="12" lengthAdjust="spacingAndGlyphs" textLength="50" x="1021.1" y="165.1543">Supplier</text><line style="stroke:#A80036;stroke-width:1.5;" x1="964.5" x2="1096.5" y1="177" y2="177"/><text fill="#000000" font-family="sans-serif" font-size="11" lengthAdjust="spacingAndGlyphs" textLength="122" x="969.5" y="191.2104">a           fsm:Supplier</text><line style="stroke:#A80036;stroke-width:1.5;" x1="964.5" x2="1096.5" y1="197.8047" y2="197.8047"/><!--MD5=[a2a32eb8740a34a1508bfb05a6833e01]
class Incident--><rect codeLine="131" fill="#FEFECE" filter="url(#f1ckivj5hgfzrx)" height="60.8047" id="Incident" style="stroke:#A80036;stroke-width:1.5;" width="132" x="219.5" y="497.5"/><ellipse cx="258.35" cy="513.5" fill="#ADD1B2" rx="11" ry="11" style="stroke:#A80036;stroke-width:1.0;"/><path d="M260.6938,509.1719 C259.7563,508.7344 259.1625,508.5938 258.2875,508.5938 C255.6625,508.5938 253.6625,510.6719 253.6625,513.3906 L253.6625,514.5156 C253.6625,517.0938 255.7719,518.9844 258.6625,518.9844 C259.8813,518.9844 261.0375,518.6875 261.7875,518.1406 C262.3656,517.7344 262.6938,517.2813 262.6938,516.8906 C262.6938,516.4375 262.3031,516.0469 261.8344,516.0469 C261.6156,516.0469 261.4125,516.125 261.225,516.3125 C260.7719,516.7969 260.7719,516.7969 260.5844,516.8906 C260.1625,517.1563 259.475,517.2813 258.7094,517.2813 C256.6625,517.2813 255.3656,516.1875 255.3656,514.4844 L255.3656,513.3906 C255.3656,511.6094 256.6156,510.2969 258.35,510.2969 C258.9281,510.2969 259.5375,510.4531 260.0063,510.7031 C260.4906,510.9844 260.6625,511.2031 260.7563,511.6094 C260.8188,512.0156 260.85,512.1406 260.9906,512.2656 C261.1313,512.4063 261.3656,512.5156 261.5844,512.5156 C261.85,512.5156 262.1156,512.375 262.2875,512.1563 C262.3969,512 262.4281,511.8125 262.4281,511.3906 L262.4281,509.9688 C262.4281,509.5313 262.4125,509.4063 262.3188,509.25 C262.1625,508.9844 261.8813,508.8438 261.5844,508.8438 C261.2875,508.8438 261.0844,508.9375 260.8656,509.25 L260.6938,509.1719 Z " fill="#000000"/><text fill="#000000" font-family="sans-serif" font-size="12" lengthAdjust="spacingAndGlyphs" textLength="47" x="277.65" y="517.6543">Incident</text><line style="stroke:#A80036;stroke-width:1.5;" x1="220.5" x2="350.5" y1="529.5" y2="529.5"/><text fill="#000000" font-family="sans-serif" font-size="11" lengthAdjust="spacingAndGlyphs" textLength="120" x="225.5" y="543.7104">a           fsm:Incident</text><line style="stroke:#A80036;stroke-width:1.5;" x1="220.5" x2="350.5" y1="550.3047" y2="550.3047"/><!--MD5=[1f1a18b8128c46004167f2eb357dc2be]
class Inspection--><rect codeLine="135" fill="#FEFECE" filter="url(#f1ckivj5hgfzrx)" height="60.8047" id="Inspection" style="stroke:#A80036;stroke-width:1.5;" width="145" x="387" y="497.5"/><ellipse cx="424.95" cy="513.5" fill="#ADD1B2" rx="11" ry="11" style="stroke:#A80036;stroke-width:1.0;"/><path d="M427.2938,509.1719 C426.3563,508.7344 425.7625,508.5938 424.8875,508.5938 C422.2625,508.5938 420.2625,510.6719 420.2625,513.3906 L420.2625,514.5156 C420.2625,517.0938 422.3719,518.9844 425.2625,518.9844 C426.4813,518.9844 427.6375,518.6875 428.3875,518.1406 C428.9656,517.7344 429.2938,517.2813 429.2938,516.8906 C429.2938,516.4375 428.9031,516.0469 428.4344,516.0469 C428.2156,516.0469 428.0125,516.125 427.825,516.3125 C427.3719,516.7969 427.3719,516.7969 427.1844,516.8906 C426.7625,517.1563 426.075,517.2813 425.3094,517.2813 C423.2625,517.2813 421.9656,516.1875 421.9656,514.4844 L421.9656,513.3906 C421.9656,511.6094 423.2156,510.2969 424.95,510.2969 C425.5281,510.2969 426.1375,510.4531 426.6063,510.7031 C427.0906,510.9844 427.2625,511.2031 427.3563,511.6094 C427.4188,512.0156 427.45,512.1406 427.5906,512.2656 C427.7313,512.4063 427.9656,512.5156 428.1844,512.5156 C428.45,512.5156 428.7156,512.375 428.8875,512.1563 C428.9969,512 429.0281,511.8125 429.0281,511.3906 L429.0281,509.9688 C429.0281,509.5313 429.0125,509.4063 428.9188,509.25 C428.7625,508.9844 428.4813,508.8438 428.1844,508.8438 C427.8875,508.8438 427.6844,508.9375 427.4656,509.25 L427.2938,509.1719 Z " fill="#000000"/><text fill="#000000" font-family="sans-serif" font-size="12" lengthAdjust="spacingAndGlyphs" textLength="62" x="444.05" y="517.6543">Inspection</text><line style="stroke:#A80036;stroke-width:1.5;" x1="388" x2="531" y1="529.5" y2="529.5"/><text fill="#000000" font-family="sans-serif" font-size="11" lengthAdjust="spacingAndGlyphs" textLength="133" x="393" y="543.7104">a           fsm:Inspection</text><line style="stroke:#A80036;stroke-width:1.5;" x1="388" x2="531" y1="550.3047" y2="550.3047"/><!--MD5=[c445f63cc9ac97a6a8cb62fbd2569fbf]
class LabTest--><rect codeLine="139" fill="#FEFECE" filter="url(#f1ckivj5hgfzrx)" height="60.8047" id="LabTest" style="stroke:#A80036;stroke-width:1.5;" width="132" x="567.5" y="497.5"/><ellipse cx="606.35" cy="513.5" fill="#ADD1B2" rx="11" ry="11" style="stroke:#A80036;stroke-width:1.0;"/><path d="M608.6938,509.1719 C607.7563,508.7344 607.1625,508.5938 606.2875,508.5938 C603.6625,508.5938 601.6625,510.6719 601.6625,513.3906 L601.6625,514.5156 C601.6625,517.0938 603.7719,518.9844 606.6625,518.9844 C607.8813,518.9844 609.0375,518.6875 609.7875,518.1406 C610.3656,517.7344 610.6938,517.2813 610.6938,516.8906 C610.6938,516.4375 610.3031,516.0469 609.8344,516.0469 C609.6156,516.0469 609.4125,516.125 609.225,516.3125 C608.7719,516.7969 608.7719,516.7969 608.5844,516.8906 C608.1625,517.1563 607.475,517.2813 606.7094,517.2813 C604.6625,517.2813 603.3656,516.1875 603.3656,514.4844 L603.3656,513.3906 C603.3656,511.6094 604.6156,510.2969 606.35,510.2969 C606.9281,510.2969 607.5375,510.4531 608.0063,510.7031 C608.4906,510.9844 608.6625,511.2031 608.7563,511.6094 C608.8188,512.0156 608.85,512.1406 608.9906,512.2656 C609.1313,512.4063 609.3656,512.5156 609.5844,512.5156 C609.85,512.5156 610.1156,512.375 610.2875,512.1563 C610.3969,512 610.4281,511.8125 610.4281,511.3906 L610.4281,509.9688 C610.4281,509.5313 610.4125,509.4063 610.3188,509.25 C610.1625,508.9844 609.8813,508.8438 609.5844,508.8438 C609.2875,508.8438 609.0844,508.9375 608.8656,509.25 L608.6938,509.1719 Z " fill="#000000"/><text fill="#000000" font-family="sans-serif" font-size="12" lengthAdjust="spacingAndGlyphs" textLength="47" x="625.65" y="517.6543">LabTest</text><line style="stroke:#A80036;stroke-width:1.5;" x1="568.5" x2="698.5" y1="529.5" y2="529.5"/><text fill="#000000" font-family="sans-serif" font-size="11" lengthAdjust="spacingAndGlyphs" textLength="120" x="573.5" y="543.7104">a           fsm:LabTest</text><line style="stroke:#A80036;stroke-width:1.5;" x1="568.5" x2="698.5" y1="550.3047" y2="550.3047"/><!--MD5=[f09905fc32078a6fe8a07188ed33b541]
class Audit--><rect codeLine="143" fill="#FEFECE" filter="url(#f1ckivj5hgfzrx)" height="60.8047" id="Audit" style="stroke:#A80036;stroke-width:1.5;" width="116" x="734.5" y="497.5"/><ellipse cx="773.8" cy="513.5" fill="#ADD1B2" rx="11" ry="11" style="stroke:#A80036;stroke-width:1.0;"/><path d="M776.1438,509.1719 C775.2063,508.7344 774.6125,508.5938 773.7375,508.5938 C771.1125,508.5938 769.1125,510.6719 769.1125,513.3906 L769.1125,514.5156 C769.1125,517.0938 771.2219,518.9844 774.1125,518.9844 C775.3313,518.9844 776.4875,518.6875 777.2375,518.1406 C777.8156,517.7344 778.1438,517.2813 778.1438,516.8906 C778.1438,516.4375 777.7531,516.0469 777.2844,516.0469 C777.0656,516.0469 776.8625,516.125 776.675,516.3125 C776.2219,516.7969 776.2219,516.7969 776.0344,516.8906 C775.6125,517.1563 774.925,517.2813 774.1594,517.2813 C772.1125,517.2813 770.8156,516.1875 770.8156,514.4844 L770.8156,513.3906 C770.8156,511.6094 772.0656,510.2969 773.8,510.2969 C774.3781,510.2969 774.9875,510.4531 775.4563,510.7031 C775.9406,510.9844 776.1125,511.2031 776.2063,511.6094 C776.2688,512.0156 776.3,512.1406 776.4406,512.2656 C776.5813,512.4063 776.8156,512.5156 777.0344,512.5156 C777.3,512.5156 777.5656,512.375 777.7375,512.1563 C777.8469,512 777.8781,511.8125 777.8781,511.3906 L777.8781,509.9688 C777.8781,509.5313 777.8625,509.4063 777.7688,509.25 C777.6125,508.9844 777.3313,508.8438 777.0344,508.8438 C776.7375,508.8438 776.5344,508.9375 776.3156,509.25 L776.1438,509.1719 Z " fill="#000000"/><text fill="#000000" font-family="sans-serif" font-size="12" lengthAdjust="spacingAndGlyphs" textLength="30" x="793.2" y="517.6543">Audit</text><line style="stroke:#A80036;stroke-width:1.5;" x1="735.5" x2="849.5" y1="529.5" y2="529.5"/><text fill="#000000" font-family="sans-serif" font-size="11" lengthAdjust="spacingAndGlyphs" textLength="104" x="740.5" y="543.7104">a           fsm:Audit</text><line style="stroke:#A80036;stroke-width:1.5;" x1="735.5" x2="849.5" y1="550.3047" y2="550.3047"/><!--MD5=[f2a8a16790223d0349d8ab74e2442abe]
class CertificateGrant--><rect codeLine="147" fill="#FEFECE" filter="url(#f1ckivj5hgfzrx)" height="60.8047" id="CertificateGrant" style="stroke:#A80036;stroke-width:1.5;" width="177" x="7" y="497.5"/><ellipse cx="45.4" cy="513.5" fill="#ADD1B2" rx="11" ry="11" style="stroke:#A80036;stroke-width:1.0;"/><path d="M47.7438,509.1719 C46.8063,508.7344 46.2125,508.5938 45.3375,508.5938 C42.7125,508.5938 40.7125,510.6719 40.7125,513.3906 L40.7125,514.5156 C40.7125,517.0938 42.8219,518.9844 45.7125,518.9844 C46.9313,518.9844 48.0875,518.6875 48.8375,518.1406 C49.4156,517.7344 49.7438,517.2813 49.7438,516.8906 C49.7438,516.4375 49.3531,516.0469 48.8844,516.0469 C48.6656,516.0469 48.4625,516.125 48.275,516.3125 C47.8219,516.7969 47.8219,516.7969 47.6344,516.8906 C47.2125,517.1563 46.525,517.2813 45.7594,517.2813 C43.7125,517.2813 42.4156,516.1875 42.4156,514.4844 L42.4156,513.3906 C42.4156,511.6094 43.6656,510.2969 45.4,510.2969 C45.9781,510.2969 46.5875,510.4531 47.0563,510.7031 C47.5406,510.9844 47.7125,511.2031 47.8063,511.6094 C47.8688,512.0156 47.9,512.1406 48.0406,512.2656 C48.1813,512.4063 48.4156,512.5156 48.6344,512.5156 C48.9,512.5156 49.1656,512.375 49.3375,512.1563 C49.4469,512 49.4781,511.8125 49.4781,511.3906 L49.4781,509.9688 C49.4781,509.5313 49.4625,509.4063 49.3688,509.25 C49.2125,508.9844 48.9313,508.8438 48.6344,508.8438 C48.3375,508.8438 48.1344,508.9375 47.9156,509.25 L47.7438,509.1719 Z " fill="#000000"/><text fill="#000000" font-family="sans-serif" font-size="12" lengthAdjust="spacingAndGlyphs" textLength="93" x="64.6" y="517.6543">CertificateGrant</text><line style="stroke:#A80036;stroke-width:1.5;" x1="8" x2="183" y1="529.5" y2="529.5"/><text fill="#000000" font-family="sans-serif" font-size="11" lengthAdjust="spacingAndGlyphs" textLength="165" x="13" y="543.7104">a           fsm:CertificateGrant</text><line style="stroke:#A80036;stroke-width:1.5;" x1="8" x2="183" y1="550.3047" y2="550.3047"/><!--MD5=[b7699d18aaae0c489e416159ee2e11a1]
class Certificate--><rect codeLine="151" fill="#FEFECE" filter="url(#f1ckivj5hgfzrx)" height="73.6094" id="Certificate" style="stroke:#A80036;stroke-width:1.5;" width="223" x="634" y="1171"/><ellipse cx="710.75" cy="1187" fill="#ADD1B2" rx="11" ry="11" style="stroke:#A80036;stroke-width:1.0;"/><path d="M713.0938,1182.6719 C712.1563,1182.2344 711.5625,1182.0938 710.6875,1182.0938 C708.0625,1182.0938 706.0625,1184.1719 706.0625,1186.8906 L706.0625,1188.0156 C706.0625,1190.5938 708.1719,1192.4844 711.0625,1192.4844 C712.2813,1192.4844 713.4375,1192.1875 714.1875,1191.6406 C714.7656,1191.2344 715.0938,1190.7813 715.0938,1190.3906 C715.0938,1189.9375 714.7031,1189.5469 714.2344,1189.5469 C714.0156,1189.5469 713.8125,1189.625 713.625,1189.8125 C713.1719,1190.2969 713.1719,1190.2969 712.9844,1190.3906 C712.5625,1190.6563 711.875,1190.7813 711.1094,1190.7813 C709.0625,1190.7813 707.7656,1189.6875 707.7656,1187.9844 L707.7656,1186.8906 C707.7656,1185.1094 709.0156,1183.7969 710.75,1183.7969 C711.3281,1183.7969 711.9375,1183.9531 712.4063,1184.2031 C712.8906,1184.4844 713.0625,1184.7031 713.1563,1185.1094 C713.2188,1185.5156 713.25,1185.6406 713.3906,1185.7656 C713.5313,1185.9063 713.7656,1186.0156 713.9844,1186.0156 C714.25,1186.0156 714.5156,1185.875 714.6875,1185.6563 C714.7969,1185.5 714.8281,1185.3125 714.8281,1184.8906 L714.8281,1183.4688 C714.8281,1183.0313 714.8125,1182.9063 714.7188,1182.75 C714.5625,1182.4844 714.2813,1182.3438 713.9844,1182.3438 C713.6875,1182.3438 713.4844,1182.4375 713.2656,1182.75 L713.0938,1182.6719 Z " fill="#000000"/><text fill="#000000" font-family="sans-serif" font-size="12" lengthAdjust="spacingAndGlyphs" textLength="61" x="731.25" y="1191.1543">Certificate</text><line style="stroke:#A80036;stroke-width:1.5;" x1="635" x2="856" y1="1203" y2="1203"/><text fill="#000000" font-family="sans-serif" font-size="11" lengthAdjust="spacingAndGlyphs" textLength="198" x="640" y="1217.2104">a                           fsm:Certificate</text><text fill="#000000" font-family="sans-serif" font-size="11" lengthAdjust="spacingAndGlyphs" textLength="211" x="640" y="1230.0151">fsm:forProductsWithGpc      xsd:string</text><line style="stroke:#A80036;stroke-width:1.5;" x1="635" x2="856" y1="1236.6094" y2="1236.6094"/><!--MD5=[c23b8e8717184227503c212491239490]
class GlobalProductClassification--><rect codeLine="156" fill="#FEFECE" filter="url(#f1ckivj5hgfzrx)" height="112.0234" id="GlobalProductClassification" style="stroke:#A80036;stroke-width:1.5;" width="396" x="892.5" y="1152"/><ellipse cx="1005.75" cy="1168" fill="#ADD1B2" rx="11" ry="11" style="stroke:#A80036;stroke-width:1.0;"/><path d="M1008.0938,1163.6719 C1007.1563,1163.2344 1006.5625,1163.0938 1005.6875,1163.0938 C1003.0625,1163.0938 1001.0625,1165.1719 1001.0625,1167.8906 L1001.0625,1169.0156 C1001.0625,1171.5938 1003.1719,1173.4844 1006.0625,1173.4844 C1007.2813,1173.4844 1008.4375,1173.1875 1009.1875,1172.6406 C1009.7656,1172.2344 1010.0938,1171.7813 1010.0938,1171.3906 C1010.0938,1170.9375 1009.7031,1170.5469 1009.2344,1170.5469 C1009.0156,1170.5469 1008.8125,1170.625 1008.625,1170.8125 C1008.1719,1171.2969 1008.1719,1171.2969 1007.9844,1171.3906 C1007.5625,1171.6563 1006.875,1171.7813 1006.1094,1171.7813 C1004.0625,1171.7813 1002.7656,1170.6875 1002.7656,1168.9844 L1002.7656,1167.8906 C1002.7656,1166.1094 1004.0156,1164.7969 1005.75,1164.7969 C1006.3281,1164.7969 1006.9375,1164.9531 1007.4063,1165.2031 C1007.8906,1165.4844 1008.0625,1165.7031 1008.1563,1166.1094 C1008.2188,1166.5156 1008.25,1166.6406 1008.3906,1166.7656 C1008.5313,1166.9063 1008.7656,1167.0156 1008.9844,1167.0156 C1009.25,1167.0156 1009.5156,1166.875 1009.6875,1166.6563 C1009.7969,1166.5 1009.8281,1166.3125 1009.8281,1165.8906 L1009.8281,1164.4688 C1009.8281,1164.0313 1009.8125,1163.9063 1009.7188,1163.75 C1009.5625,1163.4844 1009.2813,1163.3438 1008.9844,1163.3438 C1008.6875,1163.3438 1008.4844,1163.4375 1008.2656,1163.75 L1008.0938,1163.6719 Z " fill="#000000"/><text fill="#000000" font-family="sans-serif" font-size="12" lengthAdjust="spacingAndGlyphs" textLength="161" x="1026.25" y="1172.1543">GlobalProductClassification</text><line style="stroke:#A80036;stroke-width:1.5;" x1="893.5" x2="1287.5" y1="1184" y2="1184"/><text fill="#000000" font-family="sans-serif" font-size="11" lengthAdjust="spacingAndGlyphs" textLength="174" x="898.5" y="1198.2104">a                       skos:Concept</text><text fill="#000000" font-family="sans-serif" font-size="11" lengthAdjust="spacingAndGlyphs" textLength="384" x="898.5" y="1211.0151">skos:conceptScheme      &lt;taxonomy/global_product_classification&gt;</text><text fill="#000000" font-family="sans-serif" font-size="11" lengthAdjust="spacingAndGlyphs" textLength="153" x="898.5" y="1223.8198">skos:prefLabel          string</text><text fill="#000000" font-family="sans-serif" font-size="11" lengthAdjust="spacingAndGlyphs" textLength="153" x="898.5" y="1236.6245">skos:description        string</text><text fill="#000000" font-family="sans-serif" font-size="11" lengthAdjust="spacingAndGlyphs" textLength="137" x="898.5" y="1249.4292">fsm:id                  string</text><line style="stroke:#A80036;stroke-width:1.5;" x1="893.5" x2="1287.5" y1="1256.0234" y2="1256.0234"/><!--MD5=[22d2b41ad45c7c66bf046ffc4a1eb454]
class ProductBatch--><rect codeLine="164" fill="#FEFECE" filter="url(#f1ckivj5hgfzrx)" height="60.8047" id="ProductBatch" style="stroke:#A80036;stroke-width:1.5;" width="208" x="1323.5" y="1177.5"/><ellipse cx="1384.25" cy="1193.5" fill="#ADD1B2" rx="11" ry="11" style="stroke:#A80036;stroke-width:1.0;"/><path d="M1386.5938,1189.1719 C1385.6563,1188.7344 1385.0625,1188.5938 1384.1875,1188.5938 C1381.5625,1188.5938 1379.5625,1190.6719 1379.5625,1193.3906 L1379.5625,1194.5156 C1379.5625,1197.0938 1381.6719,1198.9844 1384.5625,1198.9844 C1385.7813,1198.9844 1386.9375,1198.6875 1387.6875,1198.1406 C1388.2656,1197.7344 1388.5938,1197.2813 1388.5938,1196.8906 C1388.5938,1196.4375 1388.2031,1196.0469 1387.7344,1196.0469 C1387.5156,1196.0469 1387.3125,1196.125 1387.125,1196.3125 C1386.6719,1196.7969 1386.6719,1196.7969 1386.4844,1196.8906 C1386.0625,1197.1563 1385.375,1197.2813 1384.6094,1197.2813 C1382.5625,1197.2813 1381.2656,1196.1875 1381.2656,1194.4844 L1381.2656,1193.3906 C1381.2656,1191.6094 1382.5156,1190.2969 1384.25,1190.2969 C1384.8281,1190.2969 1385.4375,1190.4531 1385.9063,1190.7031 C1386.3906,1190.9844 1386.5625,1191.2031 1386.6563,1191.6094 C1386.7188,1192.0156 1386.75,1192.1406 1386.8906,1192.2656 C1387.0313,1192.4063 1387.2656,1192.5156 1387.4844,1192.5156 C1387.75,1192.5156 1388.0156,1192.375 1388.1875,1192.1563 C1388.2969,1192 1388.3281,1191.8125 1388.3281,1191.3906 L1388.3281,1189.9688 C1388.3281,1189.5313 1388.3125,1189.4063 1388.2188,1189.25 C1388.0625,1188.9844 1387.7813,1188.8438 1387.4844,1188.8438 C1387.1875,1188.8438 1386.9844,1188.9375 1386.7656,1189.25 L1386.5938,1189.1719 Z " fill="#000000"/><text fill="#000000" font-family="sans-serif" font-size="12" lengthAdjust="spacingAndGlyphs" textLength="78" x="1404.75" y="1197.6543">ProductBatch</text><line style="stroke:#A80036;stroke-width:1.5;" x1="1324.5" x2="1530.5" y1="1209.5" y2="1209.5"/><text fill="#000000" font-family="sans-serif" font-size="11" lengthAdjust="spacingAndGlyphs" textLength="196" x="1329.5" y="1223.7104">a                       fsm:ProductBatch</text><line style="stroke:#A80036;stroke-width:1.5;" x1="1324.5" x2="1530.5" y1="1230.3047" y2="1230.3047"/><!--MD5=[7b666bd4d6c73f0f493168d964b8ceb8]
class Distributor--><rect codeLine="188" fill="#FEFECE" filter="url(#f1ckivj5hgfzrx)" height="60.8047" id="Distributor" style="stroke:#A80036;stroke-width:1.5;" width="145" x="1350" y="7"/><ellipse cx="1387.5" cy="23" fill="#ADD1B2" rx="11" ry="11" style="stroke:#A80036;stroke-width:1.0;"/><path d="M1389.8438,18.6719 C1388.9063,18.2344 1388.3125,18.0938 1387.4375,18.0938 C1384.8125,18.0938 1382.8125,20.1719 1382.8125,22.8906 L1382.8125,24.0156 C1382.8125,26.5938 1384.9219,28.4844 1387.8125,28.4844 C1389.0313,28.4844 1390.1875,28.1875 1390.9375,27.6406 C1391.5156,27.2344 1391.8438,26.7813 1391.8438,26.3906 C1391.8438,25.9375 1391.4531,25.5469 1390.9844,25.5469 C1390.7656,25.5469 1390.5625,25.625 1390.375,25.8125 C1389.9219,26.2969 1389.9219,26.2969 1389.7344,26.3906 C1389.3125,26.6563 1388.625,26.7813 1387.8594,26.7813 C1385.8125,26.7813 1384.5156,25.6875 1384.5156,23.9844 L1384.5156,22.8906 C1384.5156,21.1094 1385.7656,19.7969 1387.5,19.7969 C1388.0781,19.7969 1388.6875,19.9531 1389.1563,20.2031 C1389.6406,20.4844 1389.8125,20.7031 1389.9063,21.1094 C1389.9688,21.5156 1390,21.6406 1390.1406,21.7656 C1390.2813,21.9063 1390.5156,22.0156 1390.7344,22.0156 C1391,22.0156 1391.2656,21.875 1391.4375,21.6563 C1391.5469,21.5 1391.5781,21.3125 1391.5781,20.8906 L1391.5781,19.4688 C1391.5781,19.0313 1391.5625,18.9063 1391.4688,18.75 C1391.3125,18.4844 1391.0313,18.3438 1390.7344,18.3438 C1390.4375,18.3438 1390.2344,18.4375 1390.0156,18.75 L1389.8438,18.6719 Z " fill="#000000"/><text fill="#000000" font-family="sans-serif" font-size="12" lengthAdjust="spacingAndGlyphs" textLength="63" x="1406.5" y="27.1543">Distributor</text><line style="stroke:#A80036;stroke-width:1.5;" x1="1351" x2="1494" y1="39" y2="39"/><text fill="#000000" font-family="sans-serif" font-size="11" lengthAdjust="spacingAndGlyphs" textLength="133" x="1356" y="53.2104">a           fsm:Distributor</text><line style="stroke:#A80036;stroke-width:1.5;" x1="1351" x2="1494" y1="59.8047" y2="59.8047"/><!--MD5=[f12f530c84877e2bffdeff48716e6438]
reverse link ActionType to Event--><path codeLine="78" d="M1808.66,390.944 C1804.23,392.32 1799.83,393.674 1795.5,395 C1722.99,417.18 1705.4,425.013 1631.5,442 C1501.64,471.852 1350.18,496.757 1251.08,511.737 " fill="none" id="ActionType-backto-Event" style="stroke:#A80036;stroke-width:1.0;"/><polygon fill="#A80036" points="1813.48,389.443,1803.6979,388.2979,1808.7058,390.9287,1806.075,395.9366,1813.48,389.443" style="stroke:#A80036;stroke-width:1.0;"/><text fill="#000000" font-family="sans-serif" font-size="13" lengthAdjust="spacingAndGlyphs" textLength="105" x="1698.5" y="438.0669">gs1-epcis:action</text><!--MD5=[25770352201ebb0706163a79afa063d6]
reverse link BusinessStep to Event--><path codeLine="79" d="M1523.16,397.621 C1494.59,413.31 1462.82,429.426 1432.5,442 C1373.99,466.267 1306.15,486.646 1251.01,501.361 " fill="none" id="BusinessStep-backto-Event" style="stroke:#A80036;stroke-width:1.0;"/><polygon fill="#A80036" points="1527.72,395.107,1517.9073,395.9498,1523.3415,397.5213,1521.7701,402.9555,1527.72,395.107" style="stroke:#A80036;stroke-width:1.0;"/><text fill="#000000" font-family="sans-serif" font-size="13" lengthAdjust="spacingAndGlyphs" textLength="151" x="1471.5" y="438.0669">gs1-epcis:businessStep</text><!--MD5=[e441ce48895b713cc2100ac93e1ecf5a]
reverse link Disposition to Event--><path codeLine="80" d="M1291.14,400.463 C1291.55,414.793 1289.47,429.524 1282.5,442 C1274.75,455.88 1263.7,467.774 1251.18,477.881 " fill="none" id="Disposition-backto-Event" style="stroke:#A80036;stroke-width:1.0;"/><polygon fill="#A80036" points="1290.88,395.207,1287.3331,404.395,1291.129,400.2008,1295.3232,403.9967,1290.88,395.207" style="stroke:#A80036;stroke-width:1.0;"/><text fill="#000000" font-family="sans-serif" font-size="13" lengthAdjust="spacingAndGlyphs" textLength="134" x="1289.5" y="438.0669">gs1-epcis:disposition</text><!--MD5=[89815d28a959a8410ace6cb3c88409ef]
reverse link Place to Event--><path codeLine="81" d="M954.861,381.111 C950.85,400.932 950.145,424.206 961.5,442 C979.025,469.463 1007.97,488.191 1037.72,500.905 " fill="none" id="Place-backto-Event" style="stroke:#A80036;stroke-width:1.0;"/><polygon fill="#A80036" points="955.947,376.151,950.1137,384.0865,954.877,381.0352,957.9284,385.7985,955.947,376.151" style="stroke:#A80036;stroke-width:1.0;"/><text fill="#000000" font-family="sans-serif" font-size="13" lengthAdjust="spacingAndGlyphs" textLength="311" x="962.5" y="438.0669">gs1-epcis:readPoint, gs1-epcis:businessLocation</text><!--MD5=[a8f75ebfd969415163ee6cf169969528]
reverse link Organization to Event--><path codeLine="82" d="M676.294,381.541 C674.716,402.143 677.012,425.98 691.5,442 C718.113,471.426 828.483,464.803 867.5,472 C923.792,482.384 986.351,494.736 1037.75,505.101 " fill="none" id="Organization-backto-Event" style="stroke:#A80036;stroke-width:1.0;"/><polygon fill="#A80036" points="676.774,376.379,671.958,384.9701,676.3111,381.3575,679.9237,385.7106,676.774,376.379" style="stroke:#A80036;stroke-width:1.0;"/><text fill="#000000" font-family="sans-serif" font-size="13" lengthAdjust="spacingAndGlyphs" textLength="254" x="692.5" y="438.0669">gs1-epcis:source, gs1-epcis:destination</text><!--MD5=[bc754a2564edfb2b418fd17494ec1eb3]
reverse link Transaction to Event--><path codeLine="83" d="M430.256,374.358 C438.08,397.544 452.031,426.619 475.5,442 C548.572,489.889 780.943,460.138 867.5,472 C924.09,479.755 986.54,491.842 1037.8,502.712 " fill="none" id="Transaction-backto-Event" style="stroke:#A80036;stroke-width:1.0;"/><polygon fill="#A80036" points="428.678,369.507,427.6585,379.3029,430.2248,374.2617,435.266,376.828,428.678,369.507" style="stroke:#A80036;stroke-width:1.0;"/><text fill="#000000" font-family="sans-serif" font-size="13" lengthAdjust="spacingAndGlyphs" textLength="197" x="476.5" y="438.0669">gs1-epcis:businessTransaction</text><!--MD5=[8092ee2938c0f2247528b5f468e1d913]
link ObjectEvent to Product--><path codeLine="85" d="M633.931,728.508 C649.788,769.352 683.702,842.937 735.5,886 C803.159,942.25 897.08,975.76 971.322,994.935 " fill="none" id="ObjectEvent-to-Product" style="stroke:#A80036;stroke-width:1.0;"/><polygon fill="#A80036" points="976.183,996.178,968.4526,990.0754,971.3385,994.9408,966.4731,997.8266,976.183,996.178" style="stroke:#A80036;stroke-width:1.0;"/><text fill="#000000" font-family="sans-serif" font-size="13" lengthAdjust="spacingAndGlyphs" textLength="89" x="736.5" y="853.5669">gs1-epcis:epc</text><!--MD5=[29287a5c5a69fab3ae2b95b90db99ad8]
link AggregationEvent to Product--><path codeLine="87" d="M887.017,728.693 C856.326,766.899 813.675,834.478 844.5,886 C872.524,932.841 923.498,964.015 971.807,984.241 " fill="none" id="AggregationEvent-to-Product" style="stroke:#A80036;stroke-width:1.0;"/><polygon fill="#A80036" points="976.473,986.165,969.6768,979.0368,971.8504,984.2594,966.6278,986.433,976.473,986.165" style="stroke:#A80036;stroke-width:1.0;"/><text fill="#000000" font-family="sans-serif" font-size="13" lengthAdjust="spacingAndGlyphs" textLength="234" x="845.5" y="853.5669">gs1-epcis:parent, gs1-epcis:childEpc</text><!--MD5=[830b8e9c11b002c5547fe5b7655999de]
link AggregationEvent to Quantity--><path codeLine="88" d="M968.958,728.595 C1005.162,746.684 1053.99,768.807 1099.5,782 C1188.36,807.761 1215.19,791.882 1305.5,812 C1312.6,813.583 1319.9,815.373 1327.22,817.288 " fill="none" id="AggregationEvent-to-Quantity" style="stroke:#A80036;stroke-width:1.0;"/><polygon fill="#A80036" points="1332.28,818.634,1324.6109,812.4546,1327.4481,817.3485,1322.5541,820.1857,1332.28,818.634" style="stroke:#A80036;stroke-width:1.0;"/><text fill="#000000" font-family="sans-serif" font-size="13" lengthAdjust="spacingAndGlyphs" textLength="150" x="1100.5" y="778.0669">gs1-epcis:childQuantity</text><!--MD5=[e2faadf025e3d14d8c3614ec9a469950]
link TransactionEvent to Product--><path codeLine="90" d="M1176.36,728.628 C1151.93,749.102 1122.61,778.598 1107.5,812 C1086.82,857.713 1083.66,914.941 1085.05,957.469 " fill="none" id="TransactionEvent-to-Product" style="stroke:#A80036;stroke-width:1.0;"/><polygon fill="#A80036" points="1085.24,962.581,1088.9006,953.4377,1085.053,957.5845,1080.9062,953.7369,1085.24,962.581" style="stroke:#A80036;stroke-width:1.0;"/><text fill="#000000" font-family="sans-serif" font-size="13" lengthAdjust="spacingAndGlyphs" textLength="205" x="1108.5" y="853.5669">gs1-epcis:epc, gs1-epcis:parent</text><!--MD5=[68bb2a6e1e7f4e2c2bc8bd6f721d2336]
link TransactionEvent to Quantity--><path codeLine="91" d="M1231.75,728.586 C1241.93,745.991 1256.71,767.382 1274.5,782 C1290.21,794.903 1308.83,805.744 1327.52,814.67 " fill="none" id="TransactionEvent-to-Quantity" style="stroke:#A80036;stroke-width:1.0;"/><polygon fill="#A80036" points="1332.27,816.898,1325.8081,809.4654,1327.7397,814.7822,1322.4229,816.7139,1332.27,816.898" style="stroke:#A80036;stroke-width:1.0;"/><text fill="#000000" font-family="sans-serif" font-size="13" lengthAdjust="spacingAndGlyphs" textLength="119" x="1275.5" y="778.0669">gs1-epcis:quantity</text><!--MD5=[194c869e7f01a6fea824ae3dada50342]
link TransformationEvent to Product--><path codeLine="93" d="M1650.77,707.312 C1711.98,717.034 1765.63,737.818 1738.5,782 C1628.49,961.159 1364.53,1005.576 1209.57,1015.803 " fill="none" id="TransformationEvent-to-Product" style="stroke:#A80036;stroke-width:1.0;"/><polygon fill="#A80036" points="1204.56,1016.124,1213.8034,1019.524,1209.5492,1015.7955,1213.2777,1011.5413,1204.56,1016.124" style="stroke:#A80036;stroke-width:1.0;"/><text fill="#000000" font-family="sans-serif" font-size="13" lengthAdjust="spacingAndGlyphs" textLength="376" x="1716.5" y="853.5669">gs1-epcis:inputEpc, gs1-epcis:outputEpc, gs1-epcis:parent</text><!--MD5=[b8ea36e3d6c90d3167ead422588f8fc3]
link TransformationEvent to Quantity--><path codeLine="94" d="M1435.65,735.08 C1424.78,743.343 1415.13,753.244 1408.5,765 C1401.38,777.639 1402.14,792.894 1405.76,806.86 " fill="none" id="TransformationEvent-to-Quantity" style="stroke:#A80036;stroke-width:1.0;"/><polygon fill="#A80036" points="1407.22,811.939,1408.5856,802.1853,1405.8424,807.1325,1400.8952,804.3894,1407.22,811.939" style="stroke:#A80036;stroke-width:1.0;"/><text fill="#000000" font-family="sans-serif" font-size="13" lengthAdjust="spacingAndGlyphs" textLength="324" x="1409.5" y="778.0669">gs1-epcis:inputQuantity, gs1-epcis:outputQuantity</text><!--MD5=[8e06d74981905040af8aba6876278f61]
link Quantity to Product--><path codeLine="96" d="M1352.85,886.04 C1309.77,907.709 1253.96,935.782 1204.89,960.46 " fill="none" id="Quantity-to-Product" style="stroke:#A80036;stroke-width:1.0;"/><polygon fill="#A80036" points="1200.17,962.838,1210.0079,962.3732,1204.6381,960.5939,1206.4174,955.2242,1200.17,962.838" style="stroke:#A80036;stroke-width:1.0;"/><text fill="#000000" font-family="sans-serif" font-size="13" lengthAdjust="spacingAndGlyphs" textLength="89" x="1288.5" y="929.0669">gs1-epcis:epc</text><!--MD5=[722767bba47211c7dc4f375a965f0858]
reverse link Event to ObjectEvent--><path codeLine="98" d="M1033.13,572.365 C982.613,591.385 921.902,613.349 866.5,631 C841.612,638.929 787.01,653.837 735.858,667.481 " fill="none" id="Event-backto-ObjectEvent" style="stroke:#A80036;stroke-width:1.0;"/><polygon fill="#A80036" points="1037.98,570.533,1028.1483,569.9527,1033.2992,572.291,1030.961,577.442,1037.98,570.533" style="stroke:#A80036;stroke-width:1.0;"/><text fill="#000000" font-family="sans-serif" font-size="13" lengthAdjust="spacingAndGlyphs" textLength="102" x="914.5" y="627.0669">rdfs:subClassOf</text><!--MD5=[323e36fd78ca97673bf8b7bff0902f30]
reverse link Event to AggregationEvent--><path codeLine="99" d="M1085.63,587.948 C1069.4,602.821 1051.33,618.189 1033.5,631 C1014.96,644.318 993.454,656.929 973.808,667.49 " fill="none" id="Event-backto-AggregationEvent" style="stroke:#A80036;stroke-width:1.0;"/><polygon fill="#A80036" points="1089.71,584.179,1080.3803,587.3344,1086.0324,587.5665,1085.8002,593.2186,1089.71,584.179" style="stroke:#A80036;stroke-width:1.0;"/><text fill="#000000" font-family="sans-serif" font-size="13" lengthAdjust="spacingAndGlyphs" textLength="102" x="1054.5" y="627.0669">rdfs:subClassOf</text><!--MD5=[8611153319e7a5ca85d6b0f8e3fee6d0]
reverse link Event to TransactionEvent--><path codeLine="100" d="M1170.19,588.934 C1181.59,615.544 1194.5,645.673 1203.79,667.346 " fill="none" id="Event-backto-TransactionEvent" style="stroke:#A80036;stroke-width:1.0;"/><polygon fill="#A80036" points="1168.08,584.009,1167.9572,593.8571,1170.0536,588.603,1175.3076,590.6994,1168.08,584.009" style="stroke:#A80036;stroke-width:1.0;"/><text fill="#000000" font-family="sans-serif" font-size="13" lengthAdjust="spacingAndGlyphs" textLength="102" x="1188.5" y="627.0669">rdfs:subClassOf</text><!--MD5=[765b9449db2d99b5c898aa16208e6b98]
reverse link Event to TransformationEvent--><path codeLine="101" d="M1256.27,579.342 C1314.53,605.583 1384.45,637.074 1437.28,660.87 " fill="none" id="Event-backto-TransformationEvent" style="stroke:#A80036;stroke-width:1.0;"/><polygon fill="#A80036" points="1251.39,577.142,1257.9672,584.4728,1255.9528,579.1867,1261.2388,577.1723,1251.39,577.142" style="stroke:#A80036;stroke-width:1.0;"/><text fill="#000000" font-family="sans-serif" font-size="13" lengthAdjust="spacingAndGlyphs" textLength="102" x="1365.5" y="627.0669">rdfs:subClassOf</text><!--MD5=[f0af7d1736ade564ad1759d92d60c78d]
link Producer to Supplier--><path codeLine="168" d="M870.492,68.34 C883.632,83.49 900.814,101.5 918.5,115 C931.664,125.05 946.762,134.33 961.52,142.43 " fill="none" id="Producer-to-Supplier" style="stroke:#A80036;stroke-width:1.0;"/><polygon fill="#A80036" points="966.087,144.9,960.0759,137.0983,961.6897,142.5201,956.268,144.1339,966.087,144.9" style="stroke:#A80036;stroke-width:1.0;"/><text fill="#000000" font-family="sans-serif" font-size="13" lengthAdjust="spacingAndGlyphs" textLength="102" x="919.5" y="111.0669">rdfs:subClassOf</text><!--MD5=[3f6742f352006f17932a29b665ee2b65]
link Manufacturer to Supplier--><path codeLine="169" d="M1030.5,68.01 C1030.5,88.98 1030.5,117.24 1030.5,139.38 " fill="none" id="Manufacturer-to-Supplier" style="stroke:#A80036;stroke-width:1.0;"/><polygon fill="#A80036" points="1030.5,144.58,1034.5,135.58,1030.5,139.58,1026.5,135.58,1030.5,144.58" style="stroke:#A80036;stroke-width:1.0;"/><text fill="#000000" font-family="sans-serif" font-size="13" lengthAdjust="spacingAndGlyphs" textLength="102" x="1031.5" y="111.0669">rdfs:subClassOf</text><!--MD5=[0f3640f20e756addf9b4a83a4c863d00]
link FoodProcessor to Supplier--><path codeLine="170" d="M1199.74,68.31 C1183.45,83.28 1162.69,101.13 1142.5,115 C1128.27,124.77 1112.26,134.14 1096.88,142.43 " fill="none" id="FoodProcessor-to-Supplier" style="stroke:#A80036;stroke-width:1.0;"/><polygon fill="#A80036" points="1092.13,144.97,1101.9532,144.2592,1096.5406,142.6148,1098.1849,137.2022,1092.13,144.97" style="stroke:#A80036;stroke-width:1.0;"/><text fill="#000000" font-family="sans-serif" font-size="13" lengthAdjust="spacingAndGlyphs" textLength="102" x="1164.5" y="111.0669">rdfs:subClassOf</text><!--MD5=[165cd1c8b08b39709e1d192ae10709eb]
link Supplier to Organization--><path codeLine="171" d="M970.693,206.18 C941.484,220.53 905.763,237.89 873.5,253 C840.117,268.636 803.18,285.371 770.882,299.822 " fill="none" id="Supplier-to-Organization" style="stroke:#A80036;stroke-width:1.0;"/><polygon fill="#A80036" points="766.151,301.937,775.9998,301.9139,770.7153,299.8956,772.7336,294.611,766.151,301.937" style="stroke:#A80036;stroke-width:1.0;"/><text fill="#000000" font-family="sans-serif" font-size="13" lengthAdjust="spacingAndGlyphs" textLength="102" x="909.5" y="249.0669">rdfs:subClassOf</text><!--MD5=[300439157f3b6ed315d0e4e61de5f744]
link Retailer to Organization--><path codeLine="172" d="M415.182,206.15 C439.122,220.9 468.968,238.61 496.5,253 C527.967,269.448 563.252,285.903 594.681,299.893 " fill="none" id="Retailer-to-Organization" style="stroke:#A80036;stroke-width:1.0;"/><polygon fill="#A80036" points="599.289,301.939,592.6859,294.6316,594.719,299.9104,589.4401,301.9436,599.289,301.939" style="stroke:#A80036;stroke-width:1.0;"/><text fill="#000000" font-family="sans-serif" font-size="13" lengthAdjust="spacingAndGlyphs" textLength="102" x="497.5" y="249.0669">rdfs:subClassOf</text><!--MD5=[7c610fdc5535ca88db907a2abf0c2822]
link CertificationBody to Organization--><path codeLine="173" d="M584.06,206.12 C603.626,231.81 632.126,269.233 653.773,297.656 " fill="none" id="CertificationBody-to-Organization" style="stroke:#A80036;stroke-width:1.0;"/><polygon fill="#A80036" points="656.916,301.781,654.6436,292.1979,653.8859,297.8037,648.28,297.046,656.916,301.781" style="stroke:#A80036;stroke-width:1.0;"/><text fill="#000000" font-family="sans-serif" font-size="13" lengthAdjust="spacingAndGlyphs" textLength="102" x="620.5" y="249.0669">rdfs:subClassOf</text><!--MD5=[70a49817686748ad9887cd6b87dff060]
link CertificationSchemaOwner to Organization--><path codeLine="174" d="M785.756,206.12 C766.031,231.81 737.3,269.233 715.476,297.656 " fill="none" id="CertificationSchemaOwner-to-Organization" style="stroke:#A80036;stroke-width:1.0;"/><polygon fill="#A80036" points="712.309,301.781,720.9622,297.0776,715.3536,297.8149,714.6164,292.2062,712.309,301.781" style="stroke:#A80036;stroke-width:1.0;"/><text fill="#000000" font-family="sans-serif" font-size="13" lengthAdjust="spacingAndGlyphs" textLength="102" x="762.5" y="249.0669">rdfs:subClassOf</text><!--MD5=[11191981bfe4403fecd3c0806107bb39]
link Incident to ObjectEvent--><path codeLine="176" d="M309.368,558.535 C329.337,581.408 359.758,612.258 392.5,631 C425.151,649.69 463.471,663.403 499.412,673.326 " fill="none" id="Incident-to-ObjectEvent" style="stroke:#A80036;stroke-width:1.0;"/><polygon fill="#A80036" points="504.237,674.64,496.6049,668.415,499.4128,673.3257,494.5021,676.1337,504.237,674.64" style="stroke:#A80036;stroke-width:1.0;"/><text fill="#000000" font-family="sans-serif" font-size="13" lengthAdjust="spacingAndGlyphs" textLength="102" x="393.5" y="627.0669">rdfs:subClassOf</text><!--MD5=[95898cd83b4428f0fc39ade80ebc471a]
link Inspection to ObjectEvent--><path codeLine="177" d="M471.285,558.831 C481,580.679 496.435,610.05 516.5,631 C528.851,643.895 544.235,655.288 559.452,664.823 " fill="none" id="Inspection-to-ObjectEvent" style="stroke:#A80036;stroke-width:1.0;"/><polygon fill="#A80036" points="563.737,667.463,558.1727,659.3366,559.4801,664.8403,553.9764,666.1476,563.737,667.463" style="stroke:#A80036;stroke-width:1.0;"/><text fill="#000000" font-family="sans-serif" font-size="13" lengthAdjust="spacingAndGlyphs" textLength="102" x="517.5" y="627.0669">rdfs:subClassOf</text><!--MD5=[3d6b9cd0f25a5bada1beba985c7518e5]
link LabTest to ObjectEvent--><path codeLine="178" d="M631.735,558.648 C630.013,587.588 627.392,631.613 625.572,662.198 " fill="none" id="LabTest-to-ObjectEvent" style="stroke:#A80036;stroke-width:1.0;"/><polygon fill="#A80036" points="625.264,667.366,629.7918,658.6196,625.5611,662.3748,621.8059,658.1442,625.264,667.366" style="stroke:#A80036;stroke-width:1.0;"/><text fill="#000000" font-family="sans-serif" font-size="13" lengthAdjust="spacingAndGlyphs" textLength="102" x="629.5" y="627.0669">rdfs:subClassOf</text><!--MD5=[4738289aa313813addddf15c51b9a678]
link Audit to ObjectEvent--><path codeLine="179" d="M782.724,558.623 C774.285,580.648 760.308,610.339 740.5,631 C727.813,644.234 711.885,655.563 695.904,664.91 " fill="none" id="Audit-to-ObjectEvent" style="stroke:#A80036;stroke-width:1.0;"/><polygon fill="#A80036" points="691.397,667.494,701.1942,666.4868,695.7344,665.0067,697.2145,659.5469,691.397,667.494" style="stroke:#A80036;stroke-width:1.0;"/><text fill="#000000" font-family="sans-serif" font-size="13" lengthAdjust="spacingAndGlyphs" textLength="102" x="755.5" y="627.0669">rdfs:subClassOf</text><!--MD5=[28cc7ae6e8c5d2fbc8ccc7e4f310c243]
link CertificateGrant to ObjectEvent--><path codeLine="180" d="M133.185,558.643 C164.663,581.894 211.643,613.205 257.5,631 C334.799,660.996 426.645,677.506 498.993,686.512 " fill="none" id="CertificateGrant-to-ObjectEvent" style="stroke:#A80036;stroke-width:1.0;"/><polygon fill="#A80036" points="504.167,687.148,495.7222,682.0799,499.2043,686.538,494.7462,690.0202,504.167,687.148" style="stroke:#A80036;stroke-width:1.0;"/><text fill="#000000" font-family="sans-serif" font-size="13" lengthAdjust="spacingAndGlyphs" textLength="102" x="258.5" y="627.0669">rdfs:subClassOf</text><!--MD5=[e7c73df7f17688a272eeacc5abac71e5]
reverse link Product to Certificate--><path codeLine="182" d="M984.148,1077.646 C928.02,1108.069 860.882,1144.46 812.134,1170.8822 " fill="none" id="Product-backto-Certificate" style="stroke:#A80036;stroke-width:1.0;"/><polygon fill="#A80036" points="988.855,1075.095,979.0365,1075.8676,984.4593,1077.4778,982.849,1082.9007,988.855,1075.095" style="stroke:#A80036;stroke-width:1.0;"/><text fill="#000000" font-family="sans-serif" font-size="13" lengthAdjust="spacingAndGlyphs" textLength="102" x="929.5" y="1118.0669">rdfs:subClassOf</text><!--MD5=[d000d4827e9ae4aebffaf70f465671b6]
link Product to GlobalProductClassification--><path codeLine="183" d="M1090.5,1075.095 C1090.5,1097.631 1090.5,1123.77 1090.5,1146.806 " fill="none" id="Product-to-GlobalProductClassification" style="stroke:#A80036;stroke-width:1.0;"/><polygon fill="#A80036" points="1090.5,1151.976,1094.5,1142.976,1090.5,1146.976,1086.5,1142.976,1090.5,1151.976" style="stroke:#A80036;stroke-width:1.0;"/><text fill="#000000" font-family="sans-serif" font-size="13" lengthAdjust="spacingAndGlyphs" textLength="145" x="1091.5" y="1118.0669">fsm:gpcCategoryCode</text><!--MD5=[2f005fcbca9c08f66f3514e708fc7ede]
reverse link Product to ProductBatch--><path codeLine="185" d="M1196.12,1077.749 C1212.66,1086.843 1229.55,1096.159 1245.5,1105 C1289.22,1129.236 1338.69,1156.983 1375.01,1177.4124 " fill="none" id="Product-backto-ProductBatch" style="stroke:#A80036;stroke-width:1.0;"/><polygon fill="#A80036" points="1191.46,1075.19,1197.4121,1083.0368,1195.8392,1077.603,1201.273,1076.0301,1191.46,1075.19" style="stroke:#A80036;stroke-width:1.0;"/><text fill="#000000" font-family="sans-serif" font-size="13" lengthAdjust="spacingAndGlyphs" textLength="189" x="1276.5" y="1118.0669">fsm:product, rdfs:subClassOf</text><!--MD5=[8e9c43df56009260ae17a31f433cf48c]
@startuml
class Event {
    a                       gs1-epcis:Event 
    eventTime               xsd:dateTime
    recordTime              xsd:dateTime
    eventTimeZoneOffset     string
    eventID                 string
}

class ObjectEvent {
    a                       gs1-epcis:ObjectEvent
} 

class AggregationEvent {
    a                       gs1-epcis:AggregationEvent
} 

class TransactionEvent {
    a                       gs1-epcis:TransactionEvent
}

class TransformationEvent {
    a                       gs1-epcis:TransactionEvent
    transformationID        string
}

class Product {
    a                           gs1:Product
    gs1:gpcCategoryCode         xsd:string
    gs1:linkType                xsd:anyURI
    fsm:Organization            Organization
    https://www.gs1.org/voc/Product
}

class Organization {
    a gs1:Organization
    https://www.gs1.org/voc/Organization
}

class Transaction {
    transactionType         TransactionType
}

class Place {
    a                       gs1:Place
    https://gs1.org/voc/Place
}

class BusinessStep {
    a skos:Concept
    skos:conceptScheme      <taxonomy/business_step>
    skos:prefLabel          string
    skos:description        string
    fsm:example             string
}

class Disposition {
    a skos:Concept
    skos:conceptScheme      <taxonomy/disposition>
    skos:prefLabel          string
    skos:description        string
    fsm:example             string
}

class ActionType {
    a skos:Concept
    skos:conceptScheme      <taxonomy/action_type>
    skos:prefLabel          string
    skos:description        string
    fsm:example             string
}

class Quantity {
    quantity                xsd:double
    uom                     string
}


Event -up-> ActionType : gs1-epcis:action
Event -up-> BusinessStep : gs1-epcis:businessStep
Event -up-> Disposition : gs1-epcis:disposition
Event -up-> Place : gs1-epcis:readPoint, gs1-epcis:businessLocation
Event -up->  Organization : gs1-epcis:source, gs1-epcis:destination                  
Event -up->  Transaction : gs1-epcis:businessTransaction

ObjectEvent - ->  Product : gs1-epcis:epc

AggregationEvent - ->  Product : gs1-epcis:parent, gs1-epcis:childEpc
AggregationEvent - ->  Quantity : gs1-epcis:childQuantity

TransactionEvent - ->  Product : gs1-epcis:epc, gs1-epcis:parent
TransactionEvent - ->  Quantity : gs1-epcis:quantity

TransformationEvent - ->  Product : gs1-epcis:inputEpc, gs1-epcis:outputEpc, gs1-epcis:parent
TransformationEvent - ->  Quantity : gs1-epcis:inputQuantity, gs1-epcis:outputQuantity

Quantity - -> Product : gs1-epcis:epc

ObjectEvent -up-> Event : rdfs:subClassOf
AggregationEvent -up-> Event : rdfs:subClassOf
TransactionEvent -up-> Event : rdfs:subClassOf
TransformationEvent -up-> Event : rdfs:subClassOf

class Retailer {
    a           fsm:Retailer
}

class Producer {
    a           fsm:Producer
}

class Manufacturer {
    a           fsm:Manufacturer
}

class FoodProcessor {
    a           fsm:FoodProcessor
}

class CertificationBody {
    a           fsm:CertificationBody
}

class CertificationSchemaOwner {
    a           fsm:CertificationSchemaOwner
}

class Supplier {
    a           fsm:Supplier
}

class Incident {
    a           fsm:Incident
}

class Inspection {
    a           fsm:Inspection
}

class LabTest {
    a           fsm:LabTest
}

class Audit {
    a           fsm:Audit
}

class CertificateGrant {
    a           fsm:CertificateGrant
}

class Certificate {
    a                           fsm:Certificate
    fsm:forProductsWithGpc      xsd:string     
}

class GlobalProductClassification {
    a                       skos:Concept
    skos:conceptScheme      <taxonomy/global_product_classification>
    skos:prefLabel          string
    skos:description        string
    fsm:id                  string
}

class ProductBatch {
    a                       fsm:ProductBatch
}

Producer - -> Supplier : rdfs:subClassOf
Manufacturer - -> Supplier : rdfs:subClassOf
FoodProcessor - -> Supplier : rdfs:subClassOf
Supplier - -> Organization : rdfs:subClassOf
Retailer - -> Organization : rdfs:subClassOf
CertificationBody - -> Organization : rdfs:subClassOf
CertificationSchemaOwner - -> Organization : rdfs:subClassOf

Incident - -> ObjectEvent : rdfs:subClassOf
Inspection - -> ObjectEvent : rdfs:subClassOf
LabTest - -> ObjectEvent : rdfs:subClassOf
Audit - -> ObjectEvent : rdfs:subClassOf
CertificateGrant - -> ObjectEvent : rdfs:subClassOf

Certificate -up-> Product : rdfs:subClassOf
Product - -> GlobalProductClassification : fsm:gpcCategoryCode

ProductBatch -up-> Product : fsm:product, rdfs:subClassOf


class Distributor {
    a           fsm:Distributor
}
@enduml

PlantUML version 1.2020.22beta2(Unknown compile time)
(GPL source distribution)
Java Runtime: Java(TM) SE Runtime Environment
JVM: Java HotSpot(TM) 64-Bit Server VM
Default Encoding: UTF-8
Language: en
Country: US
--></g></svg>