<?xml version="1.0" encoding="UTF-8" standalone="no"?><svg xmlns="http://www.w3.org/2000/svg" xmlns:xlink="http://www.w3.org/1999/xlink" contentScriptType="application/ecmascript" contentStyleType="text/css" height="1175px" preserveAspectRatio="none" style="width:1809px;height:1175px;" version="1.1" viewBox="0 0 1809 1175" width="1809px" zoomAndPan="magnify"><defs><filter height="300%" id="fidvzpsrcsp34" width="300%" x="-1" y="-1"><feGaussianBlur result="blurOut" stdDeviation="2.0"/><feColorMatrix in="blurOut" result="blurOut2" type="matrix" values="0 0 0 0 0 0 0 0 0 0 0 0 0 0 0 0 0 0 .4 0"/><feOffset dx="4.0" dy="4.0" in="blurOut2" result="blurOut3"/><feBlend in="SourceGraphic" in2="blurOut3" mode="normal"/></filter></defs><g><!--MD5=[ac13618b1a974308c1f12eb6c57723dc]
class Event--><rect codeLine="1" fill="#FEFECE" filter="url(#fidvzpsrcsp34)" height="112.0234" id="Event" style="stroke:#A80036;stroke-width:1.5;" width="213" x="621.5" y="472"/><ellipse cx="707.25" cy="488" fill="#ADD1B2" rx="11" ry="11" style="stroke:#A80036;stroke-width:1.0;"/><path d="M709.5938,483.6719 C708.6563,483.2344 708.0625,483.0938 707.1875,483.0938 C704.5625,483.0938 702.5625,485.1719 702.5625,487.8906 L702.5625,489.0156 C702.5625,491.5938 704.6719,493.4844 707.5625,493.4844 C708.7813,493.4844 709.9375,493.1875 710.6875,492.6406 C711.2656,492.2344 711.5938,491.7813 711.5938,491.3906 C711.5938,490.9375 711.2031,490.5469 710.7344,490.5469 C710.5156,490.5469 710.3125,490.625 710.125,490.8125 C709.6719,491.2969 709.6719,491.2969 709.4844,491.3906 C709.0625,491.6563 708.375,491.7813 707.6094,491.7813 C705.5625,491.7813 704.2656,490.6875 704.2656,488.9844 L704.2656,487.8906 C704.2656,486.1094 705.5156,484.7969 707.25,484.7969 C707.8281,484.7969 708.4375,484.9531 708.9063,485.2031 C709.3906,485.4844 709.5625,485.7031 709.6563,486.1094 C709.7188,486.5156 709.75,486.6406 709.8906,486.7656 C710.0313,486.9063 710.2656,487.0156 710.4844,487.0156 C710.75,487.0156 711.0156,486.875 711.1875,486.6563 C711.2969,486.5 711.3281,486.3125 711.3281,485.8906 L711.3281,484.4688 C711.3281,484.0313 711.3125,483.9063 711.2188,483.75 C711.0625,483.4844 710.7813,483.3438 710.4844,483.3438 C710.1875,483.3438 709.9844,483.4375 709.7656,483.75 L709.5938,483.6719 Z " fill="#000000"/><text fill="#000000" font-family="sans-serif" font-size="12" lengthAdjust="spacingAndGlyphs" textLength="33" x="727.75" y="492.1543">Event</text><line style="stroke:#A80036;stroke-width:1.5;" x1="622.5" x2="833.5" y1="504" y2="504"/><text fill="#000000" font-family="sans-serif" font-size="11" lengthAdjust="spacingAndGlyphs" textLength="189" x="627.5" y="518.2104">a                       gs1-epcis:Event</text><text fill="#000000" font-family="sans-serif" font-size="11" lengthAdjust="spacingAndGlyphs" textLength="201" x="627.5" y="531.0151">eventTime               xsd:dateTime</text><text fill="#000000" font-family="sans-serif" font-size="11" lengthAdjust="spacingAndGlyphs" textLength="199" x="627.5" y="543.8198">recordTime              xsd:dateTime</text><text fill="#000000" font-family="sans-serif" font-size="11" lengthAdjust="spacingAndGlyphs" textLength="179" x="627.5" y="556.6245">eventTimeZoneOffset     string</text><text fill="#000000" font-family="sans-serif" font-size="11" lengthAdjust="spacingAndGlyphs" textLength="145" x="627.5" y="569.4292">eventID                 string</text><line style="stroke:#A80036;stroke-width:1.5;" x1="622.5" x2="833.5" y1="576.0234" y2="576.0234"/><!--MD5=[6b68982876ee98f296d2e7bc4d997e5e]
class ObjectEvent--><rect codeLine="9" fill="#FEFECE" filter="url(#fidvzpsrcsp34)" height="60.8047" id="ObjectEvent" style="stroke:#A80036;stroke-width:1.5;" width="238" x="1103" y="667.5"/><ellipse cx="1181.25" cy="683.5" fill="#ADD1B2" rx="11" ry="11" style="stroke:#A80036;stroke-width:1.0;"/><path d="M1183.5938,679.1719 C1182.6563,678.7344 1182.0625,678.5938 1181.1875,678.5938 C1178.5625,678.5938 1176.5625,680.6719 1176.5625,683.3906 L1176.5625,684.5156 C1176.5625,687.0938 1178.6719,688.9844 1181.5625,688.9844 C1182.7813,688.9844 1183.9375,688.6875 1184.6875,688.1406 C1185.2656,687.7344 1185.5938,687.2813 1185.5938,686.8906 C1185.5938,686.4375 1185.2031,686.0469 1184.7344,686.0469 C1184.5156,686.0469 1184.3125,686.125 1184.125,686.3125 C1183.6719,686.7969 1183.6719,686.7969 1183.4844,686.8906 C1183.0625,687.1563 1182.375,687.2813 1181.6094,687.2813 C1179.5625,687.2813 1178.2656,686.1875 1178.2656,684.4844 L1178.2656,683.3906 C1178.2656,681.6094 1179.5156,680.2969 1181.25,680.2969 C1181.8281,680.2969 1182.4375,680.4531 1182.9063,680.7031 C1183.3906,680.9844 1183.5625,681.2031 1183.6563,681.6094 C1183.7188,682.0156 1183.75,682.1406 1183.8906,682.2656 C1184.0313,682.4063 1184.2656,682.5156 1184.4844,682.5156 C1184.75,682.5156 1185.0156,682.375 1185.1875,682.1563 C1185.2969,682 1185.3281,681.8125 1185.3281,681.3906 L1185.3281,679.9688 C1185.3281,679.5313 1185.3125,679.4063 1185.2188,679.25 C1185.0625,678.9844 1184.7813,678.8438 1184.4844,678.8438 C1184.1875,678.8438 1183.9844,678.9375 1183.7656,679.25 L1183.5938,679.1719 Z " fill="#000000"/><text fill="#000000" font-family="sans-serif" font-size="12" lengthAdjust="spacingAndGlyphs" textLength="73" x="1201.75" y="687.6543">ObjectEvent</text><line style="stroke:#A80036;stroke-width:1.5;" x1="1104" x2="1340" y1="699.5" y2="699.5"/><text fill="#000000" font-family="sans-serif" font-size="11" lengthAdjust="spacingAndGlyphs" textLength="226" x="1109" y="713.7104">a                       gs1-epcis:ObjectEvent</text><line style="stroke:#A80036;stroke-width:1.5;" x1="1104" x2="1340" y1="720.3047" y2="720.3047"/><!--MD5=[cf06f249deb0bbf92a67922dafb239f6]
class AggregationEvent--><rect codeLine="13" fill="#FEFECE" filter="url(#fidvzpsrcsp34)" height="60.8047" id="AggregationEvent" style="stroke:#A80036;stroke-width:1.5;" width="270" x="882" y="818.5"/><ellipse cx="959.25" cy="834.5" fill="#ADD1B2" rx="11" ry="11" style="stroke:#A80036;stroke-width:1.0;"/><path d="M961.5938,830.1719 C960.6563,829.7344 960.0625,829.5938 959.1875,829.5938 C956.5625,829.5938 954.5625,831.6719 954.5625,834.3906 L954.5625,835.5156 C954.5625,838.0938 956.6719,839.9844 959.5625,839.9844 C960.7813,839.9844 961.9375,839.6875 962.6875,839.1406 C963.2656,838.7344 963.5938,838.2813 963.5938,837.8906 C963.5938,837.4375 963.2031,837.0469 962.7344,837.0469 C962.5156,837.0469 962.3125,837.125 962.125,837.3125 C961.6719,837.7969 961.6719,837.7969 961.4844,837.8906 C961.0625,838.1563 960.375,838.2813 959.6094,838.2813 C957.5625,838.2813 956.2656,837.1875 956.2656,835.4844 L956.2656,834.3906 C956.2656,832.6094 957.5156,831.2969 959.25,831.2969 C959.8281,831.2969 960.4375,831.4531 960.9063,831.7031 C961.3906,831.9844 961.5625,832.2031 961.6563,832.6094 C961.7188,833.0156 961.75,833.1406 961.8906,833.2656 C962.0313,833.4063 962.2656,833.5156 962.4844,833.5156 C962.75,833.5156 963.0156,833.375 963.1875,833.1563 C963.2969,833 963.3281,832.8125 963.3281,832.3906 L963.3281,830.9688 C963.3281,830.5313 963.3125,830.4063 963.2188,830.25 C963.0625,829.9844 962.7813,829.8438 962.4844,829.8438 C962.1875,829.8438 961.9844,829.9375 961.7656,830.25 L961.5938,830.1719 Z " fill="#000000"/><text fill="#000000" font-family="sans-serif" font-size="12" lengthAdjust="spacingAndGlyphs" textLength="107" x="979.75" y="838.6543">AggregationEvent</text><line style="stroke:#A80036;stroke-width:1.5;" x1="883" x2="1151" y1="850.5" y2="850.5"/><text fill="#000000" font-family="sans-serif" font-size="11" lengthAdjust="spacingAndGlyphs" textLength="258" x="888" y="864.7104">a                       gs1-epcis:AggregationEvent</text><line style="stroke:#A80036;stroke-width:1.5;" x1="883" x2="1151" y1="871.3047" y2="871.3047"/><!--MD5=[6b557f23d08adf00be0fd7f95e5177af]
class TransactionEvent--><rect codeLine="17" fill="#FEFECE" filter="url(#fidvzpsrcsp34)" height="60.8047" id="TransactionEvent" style="stroke:#A80036;stroke-width:1.5;" width="266" x="7" y="667.5"/><ellipse cx="84.75" cy="683.5" fill="#ADD1B2" rx="11" ry="11" style="stroke:#A80036;stroke-width:1.0;"/><path d="M87.0938,679.1719 C86.1563,678.7344 85.5625,678.5938 84.6875,678.5938 C82.0625,678.5938 80.0625,680.6719 80.0625,683.3906 L80.0625,684.5156 C80.0625,687.0938 82.1719,688.9844 85.0625,688.9844 C86.2813,688.9844 87.4375,688.6875 88.1875,688.1406 C88.7656,687.7344 89.0938,687.2813 89.0938,686.8906 C89.0938,686.4375 88.7031,686.0469 88.2344,686.0469 C88.0156,686.0469 87.8125,686.125 87.625,686.3125 C87.1719,686.7969 87.1719,686.7969 86.9844,686.8906 C86.5625,687.1563 85.875,687.2813 85.1094,687.2813 C83.0625,687.2813 81.7656,686.1875 81.7656,684.4844 L81.7656,683.3906 C81.7656,681.6094 83.0156,680.2969 84.75,680.2969 C85.3281,680.2969 85.9375,680.4531 86.4063,680.7031 C86.8906,680.9844 87.0625,681.2031 87.1563,681.6094 C87.2188,682.0156 87.25,682.1406 87.3906,682.2656 C87.5313,682.4063 87.7656,682.5156 87.9844,682.5156 C88.25,682.5156 88.5156,682.375 88.6875,682.1563 C88.7969,682 88.8281,681.8125 88.8281,681.3906 L88.8281,679.9688 C88.8281,679.5313 88.8125,679.4063 88.7188,679.25 C88.5625,678.9844 88.2813,678.8438 87.9844,678.8438 C87.6875,678.8438 87.4844,678.9375 87.2656,679.25 L87.0938,679.1719 Z " fill="#000000"/><text fill="#000000" font-family="sans-serif" font-size="12" lengthAdjust="spacingAndGlyphs" textLength="102" x="105.25" y="687.6543">TransactionEvent</text><line style="stroke:#A80036;stroke-width:1.5;" x1="8" x2="272" y1="699.5" y2="699.5"/><text fill="#000000" font-family="sans-serif" font-size="11" lengthAdjust="spacingAndGlyphs" textLength="254" x="13" y="713.7104">a                       gs1-epcis:TransactionEvent</text><line style="stroke:#A80036;stroke-width:1.5;" x1="8" x2="272" y1="720.3047" y2="720.3047"/><!--MD5=[7c0cfa3862919436838352e0461fd6a9]
class TransformationEvent--><rect codeLine="21" fill="#FEFECE" filter="url(#fidvzpsrcsp34)" height="73.6094" id="TransformationEvent" style="stroke:#A80036;stroke-width:1.5;" width="266" x="482" y="661"/><ellipse cx="549.25" cy="677" fill="#ADD1B2" rx="11" ry="11" style="stroke:#A80036;stroke-width:1.0;"/><path d="M551.5938,672.6719 C550.6563,672.2344 550.0625,672.0938 549.1875,672.0938 C546.5625,672.0938 544.5625,674.1719 544.5625,676.8906 L544.5625,678.0156 C544.5625,680.5938 546.6719,682.4844 549.5625,682.4844 C550.7813,682.4844 551.9375,682.1875 552.6875,681.6406 C553.2656,681.2344 553.5938,680.7813 553.5938,680.3906 C553.5938,679.9375 553.2031,679.5469 552.7344,679.5469 C552.5156,679.5469 552.3125,679.625 552.125,679.8125 C551.6719,680.2969 551.6719,680.2969 551.4844,680.3906 C551.0625,680.6563 550.375,680.7813 549.6094,680.7813 C547.5625,680.7813 546.2656,679.6875 546.2656,677.9844 L546.2656,676.8906 C546.2656,675.1094 547.5156,673.7969 549.25,673.7969 C549.8281,673.7969 550.4375,673.9531 550.9063,674.2031 C551.3906,674.4844 551.5625,674.7031 551.6563,675.1094 C551.7188,675.5156 551.75,675.6406 551.8906,675.7656 C552.0313,675.9063 552.2656,676.0156 552.4844,676.0156 C552.75,676.0156 553.0156,675.875 553.1875,675.6563 C553.2969,675.5 553.3281,675.3125 553.3281,674.8906 L553.3281,673.4688 C553.3281,673.0313 553.3125,672.9063 553.2188,672.75 C553.0625,672.4844 552.7813,672.3438 552.4844,672.3438 C552.1875,672.3438 551.9844,672.4375 551.7656,672.75 L551.5938,672.6719 Z " fill="#000000"/><text fill="#000000" font-family="sans-serif" font-size="12" lengthAdjust="spacingAndGlyphs" textLength="123" x="569.75" y="681.1543">TransformationEvent</text><line style="stroke:#A80036;stroke-width:1.5;" x1="483" x2="747" y1="693" y2="693"/><text fill="#000000" font-family="sans-serif" font-size="11" lengthAdjust="spacingAndGlyphs" textLength="254" x="488" y="707.2104">a                       gs1-epcis:TransactionEvent</text><text fill="#000000" font-family="sans-serif" font-size="11" lengthAdjust="spacingAndGlyphs" textLength="157" x="488" y="720.0151">transformationID        string</text><line style="stroke:#A80036;stroke-width:1.5;" x1="483" x2="747" y1="726.6094" y2="726.6094"/><!--MD5=[72136138052d025cffdce3c22fbd185f]
class Product--><rect codeLine="26" fill="#FEFECE" filter="url(#fidvzpsrcsp34)" height="73.6094" id="Product" style="stroke:#A80036;stroke-width:1.5;" width="170" x="491" y="1088"/><ellipse cx="549.25" cy="1104" fill="#ADD1B2" rx="11" ry="11" style="stroke:#A80036;stroke-width:1.0;"/><path d="M551.5938,1099.6719 C550.6563,1099.2344 550.0625,1099.0938 549.1875,1099.0938 C546.5625,1099.0938 544.5625,1101.1719 544.5625,1103.8906 L544.5625,1105.0156 C544.5625,1107.5938 546.6719,1109.4844 549.5625,1109.4844 C550.7813,1109.4844 551.9375,1109.1875 552.6875,1108.6406 C553.2656,1108.2344 553.5938,1107.7813 553.5938,1107.3906 C553.5938,1106.9375 553.2031,1106.5469 552.7344,1106.5469 C552.5156,1106.5469 552.3125,1106.625 552.125,1106.8125 C551.6719,1107.2969 551.6719,1107.2969 551.4844,1107.3906 C551.0625,1107.6563 550.375,1107.7813 549.6094,1107.7813 C547.5625,1107.7813 546.2656,1106.6875 546.2656,1104.9844 L546.2656,1103.8906 C546.2656,1102.1094 547.5156,1100.7969 549.25,1100.7969 C549.8281,1100.7969 550.4375,1100.9531 550.9063,1101.2031 C551.3906,1101.4844 551.5625,1101.7031 551.6563,1102.1094 C551.7188,1102.5156 551.75,1102.6406 551.8906,1102.7656 C552.0313,1102.9063 552.2656,1103.0156 552.4844,1103.0156 C552.75,1103.0156 553.0156,1102.875 553.1875,1102.6563 C553.2969,1102.5 553.3281,1102.3125 553.3281,1101.8906 L553.3281,1100.4688 C553.3281,1100.0313 553.3125,1099.9063 553.2188,1099.75 C553.0625,1099.4844 552.7813,1099.3438 552.4844,1099.3438 C552.1875,1099.3438 551.9844,1099.4375 551.7656,1099.75 L551.5938,1099.6719 Z " fill="#000000"/><text fill="#000000" font-family="sans-serif" font-size="12" lengthAdjust="spacingAndGlyphs" textLength="45" x="569.75" y="1108.1543">Product</text><line style="stroke:#A80036;stroke-width:1.5;" x1="492" x2="660" y1="1120" y2="1120"/><text fill="#000000" font-family="sans-serif" font-size="11" lengthAdjust="spacingAndGlyphs" textLength="62" x="497" y="1134.2104">a   gs1:Epc</text><text fill="#000000" font-family="sans-serif" font-size="11" lengthAdjust="spacingAndGlyphs" textLength="158" x="497" y="1147.0151">https://www.gs1.org/voc/Epc</text><line style="stroke:#A80036;stroke-width:1.5;" x1="492" x2="660" y1="1153.6094" y2="1153.6094"/><!--MD5=[86c7c362de55a38b660185a1328fe18d]
class Organization--><rect codeLine="31" fill="#FEFECE" filter="url(#fidvzpsrcsp34)" height="73.6094" id="Organization" style="stroke:#A80036;stroke-width:1.5;" width="222" x="353" y="302"/><ellipse cx="421.75" cy="318" fill="#ADD1B2" rx="11" ry="11" style="stroke:#A80036;stroke-width:1.0;"/><path d="M424.0938,313.6719 C423.1563,313.2344 422.5625,313.0938 421.6875,313.0938 C419.0625,313.0938 417.0625,315.1719 417.0625,317.8906 L417.0625,319.0156 C417.0625,321.5938 419.1719,323.4844 422.0625,323.4844 C423.2813,323.4844 424.4375,323.1875 425.1875,322.6406 C425.7656,322.2344 426.0938,321.7813 426.0938,321.3906 C426.0938,320.9375 425.7031,320.5469 425.2344,320.5469 C425.0156,320.5469 424.8125,320.625 424.625,320.8125 C424.1719,321.2969 424.1719,321.2969 423.9844,321.3906 C423.5625,321.6563 422.875,321.7813 422.1094,321.7813 C420.0625,321.7813 418.7656,320.6875 418.7656,318.9844 L418.7656,317.8906 C418.7656,316.1094 420.0156,314.7969 421.75,314.7969 C422.3281,314.7969 422.9375,314.9531 423.4063,315.2031 C423.8906,315.4844 424.0625,315.7031 424.1563,316.1094 C424.2188,316.5156 424.25,316.6406 424.3906,316.7656 C424.5313,316.9063 424.7656,317.0156 424.9844,317.0156 C425.25,317.0156 425.5156,316.875 425.6875,316.6563 C425.7969,316.5 425.8281,316.3125 425.8281,315.8906 L425.8281,314.4688 C425.8281,314.0313 425.8125,313.9063 425.7188,313.75 C425.5625,313.4844 425.2813,313.3438 424.9844,313.3438 C424.6875,313.3438 424.4844,313.4375 424.2656,313.75 L424.0938,313.6719 Z " fill="#000000"/><text fill="#000000" font-family="sans-serif" font-size="12" lengthAdjust="spacingAndGlyphs" textLength="76" x="442.25" y="322.1543">Organization</text><line style="stroke:#A80036;stroke-width:1.5;" x1="354" x2="574" y1="334" y2="334"/><text fill="#000000" font-family="sans-serif" font-size="11" lengthAdjust="spacingAndGlyphs" textLength="106" x="359" y="348.2104">a gs1:Organization</text><text fill="#000000" font-family="sans-serif" font-size="11" lengthAdjust="spacingAndGlyphs" textLength="210" x="359" y="361.0151">https://www.gs1.org/voc/Organization</text><line style="stroke:#A80036;stroke-width:1.5;" x1="354" x2="574" y1="367.6094" y2="367.6094"/><!--MD5=[4555bb1b0911a5adf28ce6dbe60fed2e]
class Transaction--><rect codeLine="36" fill="#FEFECE" filter="url(#fidvzpsrcsp34)" height="60.8047" id="Transaction" style="stroke:#A80036;stroke-width:1.5;" width="233" x="84.5" y="308.5"/><ellipse cx="162.25" cy="324.5" fill="#ADD1B2" rx="11" ry="11" style="stroke:#A80036;stroke-width:1.0;"/><path d="M164.5938,320.1719 C163.6563,319.7344 163.0625,319.5938 162.1875,319.5938 C159.5625,319.5938 157.5625,321.6719 157.5625,324.3906 L157.5625,325.5156 C157.5625,328.0938 159.6719,329.9844 162.5625,329.9844 C163.7813,329.9844 164.9375,329.6875 165.6875,329.1406 C166.2656,328.7344 166.5938,328.2813 166.5938,327.8906 C166.5938,327.4375 166.2031,327.0469 165.7344,327.0469 C165.5156,327.0469 165.3125,327.125 165.125,327.3125 C164.6719,327.7969 164.6719,327.7969 164.4844,327.8906 C164.0625,328.1563 163.375,328.2813 162.6094,328.2813 C160.5625,328.2813 159.2656,327.1875 159.2656,325.4844 L159.2656,324.3906 C159.2656,322.6094 160.5156,321.2969 162.25,321.2969 C162.8281,321.2969 163.4375,321.4531 163.9063,321.7031 C164.3906,321.9844 164.5625,322.2031 164.6563,322.6094 C164.7188,323.0156 164.75,323.1406 164.8906,323.2656 C165.0313,323.4063 165.2656,323.5156 165.4844,323.5156 C165.75,323.5156 166.0156,323.375 166.1875,323.1563 C166.2969,323 166.3281,322.8125 166.3281,322.3906 L166.3281,320.9688 C166.3281,320.5313 166.3125,320.4063 166.2188,320.25 C166.0625,319.9844 165.7813,319.8438 165.4844,319.8438 C165.1875,319.8438 164.9844,319.9375 164.7656,320.25 L164.5938,320.1719 Z " fill="#000000"/><text fill="#000000" font-family="sans-serif" font-size="12" lengthAdjust="spacingAndGlyphs" textLength="69" x="182.75" y="328.6543">Transaction</text><line style="stroke:#A80036;stroke-width:1.5;" x1="85.5" x2="316.5" y1="340.5" y2="340.5"/><text fill="#000000" font-family="sans-serif" font-size="11" lengthAdjust="spacingAndGlyphs" textLength="221" x="90.5" y="354.7104">transactionType         TransactionType</text><line style="stroke:#A80036;stroke-width:1.5;" x1="85.5" x2="316.5" y1="361.3047" y2="361.3047"/><!--MD5=[8515a37c80da559ff7ce07f8a9e75d30]
class Place--><rect codeLine="40" fill="#FEFECE" filter="url(#fidvzpsrcsp34)" height="73.6094" id="Place" style="stroke:#A80036;stroke-width:1.5;" width="164" x="610" y="302"/><ellipse cx="672.25" cy="318" fill="#ADD1B2" rx="11" ry="11" style="stroke:#A80036;stroke-width:1.0;"/><path d="M674.5938,313.6719 C673.6563,313.2344 673.0625,313.0938 672.1875,313.0938 C669.5625,313.0938 667.5625,315.1719 667.5625,317.8906 L667.5625,319.0156 C667.5625,321.5938 669.6719,323.4844 672.5625,323.4844 C673.7813,323.4844 674.9375,323.1875 675.6875,322.6406 C676.2656,322.2344 676.5938,321.7813 676.5938,321.3906 C676.5938,320.9375 676.2031,320.5469 675.7344,320.5469 C675.5156,320.5469 675.3125,320.625 675.125,320.8125 C674.6719,321.2969 674.6719,321.2969 674.4844,321.3906 C674.0625,321.6563 673.375,321.7813 672.6094,321.7813 C670.5625,321.7813 669.2656,320.6875 669.2656,318.9844 L669.2656,317.8906 C669.2656,316.1094 670.5156,314.7969 672.25,314.7969 C672.8281,314.7969 673.4375,314.9531 673.9063,315.2031 C674.3906,315.4844 674.5625,315.7031 674.6563,316.1094 C674.7188,316.5156 674.75,316.6406 674.8906,316.7656 C675.0313,316.9063 675.2656,317.0156 675.4844,317.0156 C675.75,317.0156 676.0156,316.875 676.1875,316.6563 C676.2969,316.5 676.3281,316.3125 676.3281,315.8906 L676.3281,314.4688 C676.3281,314.0313 676.3125,313.9063 676.2188,313.75 C676.0625,313.4844 675.7813,313.3438 675.4844,313.3438 C675.1875,313.3438 674.9844,313.4375 674.7656,313.75 L674.5938,313.6719 Z " fill="#000000"/><text fill="#000000" font-family="sans-serif" font-size="12" lengthAdjust="spacingAndGlyphs" textLength="31" x="692.75" y="322.1543">Place</text><line style="stroke:#A80036;stroke-width:1.5;" x1="611" x2="773" y1="334" y2="334"/><text fill="#000000" font-family="sans-serif" font-size="11" lengthAdjust="spacingAndGlyphs" textLength="152" x="616" y="348.2104">a                       gs1:Place</text><text fill="#000000" font-family="sans-serif" font-size="11" lengthAdjust="spacingAndGlyphs" textLength="138" x="616" y="361.0151">https://gs1.org/voc/Place</text><line style="stroke:#A80036;stroke-width:1.5;" x1="611" x2="773" y1="367.6094" y2="367.6094"/><!--MD5=[b72a7b7565457a5fd6b510e59693982e]
class BusinessStep--><rect codeLine="45" fill="#FEFECE" filter="url(#fidvzpsrcsp34)" height="112.0234" id="BusinessStep" style="stroke:#A80036;stroke-width:1.5;" width="317" x="1140.5" y="283"/><ellipse cx="1253.75" cy="299" fill="#ADD1B2" rx="11" ry="11" style="stroke:#A80036;stroke-width:1.0;"/><path d="M1256.0938,294.6719 C1255.1563,294.2344 1254.5625,294.0938 1253.6875,294.0938 C1251.0625,294.0938 1249.0625,296.1719 1249.0625,298.8906 L1249.0625,300.0156 C1249.0625,302.5938 1251.1719,304.4844 1254.0625,304.4844 C1255.2813,304.4844 1256.4375,304.1875 1257.1875,303.6406 C1257.7656,303.2344 1258.0938,302.7813 1258.0938,302.3906 C1258.0938,301.9375 1257.7031,301.5469 1257.2344,301.5469 C1257.0156,301.5469 1256.8125,301.625 1256.625,301.8125 C1256.1719,302.2969 1256.1719,302.2969 1255.9844,302.3906 C1255.5625,302.6563 1254.875,302.7813 1254.1094,302.7813 C1252.0625,302.7813 1250.7656,301.6875 1250.7656,299.9844 L1250.7656,298.8906 C1250.7656,297.1094 1252.0156,295.7969 1253.75,295.7969 C1254.3281,295.7969 1254.9375,295.9531 1255.4063,296.2031 C1255.8906,296.4844 1256.0625,296.7031 1256.1563,297.1094 C1256.2188,297.5156 1256.25,297.6406 1256.3906,297.7656 C1256.5313,297.9063 1256.7656,298.0156 1256.9844,298.0156 C1257.25,298.0156 1257.5156,297.875 1257.6875,297.6563 C1257.7969,297.5 1257.8281,297.3125 1257.8281,296.8906 L1257.8281,295.4688 C1257.8281,295.0313 1257.8125,294.9063 1257.7188,294.75 C1257.5625,294.4844 1257.2813,294.3438 1256.9844,294.3438 C1256.6875,294.3438 1256.4844,294.4375 1256.2656,294.75 L1256.0938,294.6719 Z " fill="#000000"/><text fill="#000000" font-family="sans-serif" font-size="12" lengthAdjust="spacingAndGlyphs" textLength="82" x="1274.25" y="303.1543">BusinessStep</text><line style="stroke:#A80036;stroke-width:1.5;" x1="1141.5" x2="1456.5" y1="315" y2="315"/><text fill="#000000" font-family="sans-serif" font-size="11" lengthAdjust="spacingAndGlyphs" textLength="86" x="1146.5" y="329.2104">a skos:Concept</text><text fill="#000000" font-family="sans-serif" font-size="11" lengthAdjust="spacingAndGlyphs" textLength="305" x="1146.5" y="342.0151">skos:conceptScheme      &lt;taxonomy/business_step&gt;</text><text fill="#000000" font-family="sans-serif" font-size="11" lengthAdjust="spacingAndGlyphs" textLength="153" x="1146.5" y="354.8198">skos:prefLabel          string</text><text fill="#000000" font-family="sans-serif" font-size="11" lengthAdjust="spacingAndGlyphs" textLength="153" x="1146.5" y="367.6245">skos:description        string</text><text fill="#000000" font-family="sans-serif" font-size="11" lengthAdjust="spacingAndGlyphs" textLength="158" x="1146.5" y="380.4292">fsm:example             string</text><line style="stroke:#A80036;stroke-width:1.5;" x1="1141.5" x2="1456.5" y1="387.0234" y2="387.0234"/><!--MD5=[a66e46a001d181163432baad639e98b3]
class Disposition--><rect codeLine="53" fill="#FEFECE" filter="url(#fidvzpsrcsp34)" height="112.0234" id="Disposition" style="stroke:#A80036;stroke-width:1.5;" width="296" x="809" y="283"/><ellipse cx="919.25" cy="299" fill="#ADD1B2" rx="11" ry="11" style="stroke:#A80036;stroke-width:1.0;"/><path d="M921.5938,294.6719 C920.6563,294.2344 920.0625,294.0938 919.1875,294.0938 C916.5625,294.0938 914.5625,296.1719 914.5625,298.8906 L914.5625,300.0156 C914.5625,302.5938 916.6719,304.4844 919.5625,304.4844 C920.7813,304.4844 921.9375,304.1875 922.6875,303.6406 C923.2656,303.2344 923.5938,302.7813 923.5938,302.3906 C923.5938,301.9375 923.2031,301.5469 922.7344,301.5469 C922.5156,301.5469 922.3125,301.625 922.125,301.8125 C921.6719,302.2969 921.6719,302.2969 921.4844,302.3906 C921.0625,302.6563 920.375,302.7813 919.6094,302.7813 C917.5625,302.7813 916.2656,301.6875 916.2656,299.9844 L916.2656,298.8906 C916.2656,297.1094 917.5156,295.7969 919.25,295.7969 C919.8281,295.7969 920.4375,295.9531 920.9063,296.2031 C921.3906,296.4844 921.5625,296.7031 921.6563,297.1094 C921.7188,297.5156 921.75,297.6406 921.8906,297.7656 C922.0313,297.9063 922.2656,298.0156 922.4844,298.0156 C922.75,298.0156 923.0156,297.875 923.1875,297.6563 C923.2969,297.5 923.3281,297.3125 923.3281,296.8906 L923.3281,295.4688 C923.3281,295.0313 923.3125,294.9063 923.2188,294.75 C923.0625,294.4844 922.7813,294.3438 922.4844,294.3438 C922.1875,294.3438 921.9844,294.4375 921.7656,294.75 L921.5938,294.6719 Z " fill="#000000"/><text fill="#000000" font-family="sans-serif" font-size="12" lengthAdjust="spacingAndGlyphs" textLength="67" x="939.75" y="303.1543">Disposition</text><line style="stroke:#A80036;stroke-width:1.5;" x1="810" x2="1104" y1="315" y2="315"/><text fill="#000000" font-family="sans-serif" font-size="11" lengthAdjust="spacingAndGlyphs" textLength="86" x="815" y="329.2104">a skos:Concept</text><text fill="#000000" font-family="sans-serif" font-size="11" lengthAdjust="spacingAndGlyphs" textLength="284" x="815" y="342.0151">skos:conceptScheme      &lt;taxonomy/disposition&gt;</text><text fill="#000000" font-family="sans-serif" font-size="11" lengthAdjust="spacingAndGlyphs" textLength="153" x="815" y="354.8198">skos:prefLabel          string</text><text fill="#000000" font-family="sans-serif" font-size="11" lengthAdjust="spacingAndGlyphs" textLength="153" x="815" y="367.6245">skos:description        string</text><text fill="#000000" font-family="sans-serif" font-size="11" lengthAdjust="spacingAndGlyphs" textLength="158" x="815" y="380.4292">fsm:example             string</text><line style="stroke:#A80036;stroke-width:1.5;" x1="810" x2="1104" y1="387.0234" y2="387.0234"/><!--MD5=[994a5a3820d9ca46072a21178650f513]
class ActionType--><rect codeLine="61" fill="#FEFECE" filter="url(#fidvzpsrcsp34)" height="112.0234" id="ActionType" style="stroke:#A80036;stroke-width:1.5;" width="302" x="1493" y="283"/><ellipse cx="1606.25" cy="299" fill="#ADD1B2" rx="11" ry="11" style="stroke:#A80036;stroke-width:1.0;"/><path d="M1608.5938,294.6719 C1607.6563,294.2344 1607.0625,294.0938 1606.1875,294.0938 C1603.5625,294.0938 1601.5625,296.1719 1601.5625,298.8906 L1601.5625,300.0156 C1601.5625,302.5938 1603.6719,304.4844 1606.5625,304.4844 C1607.7813,304.4844 1608.9375,304.1875 1609.6875,303.6406 C1610.2656,303.2344 1610.5938,302.7813 1610.5938,302.3906 C1610.5938,301.9375 1610.2031,301.5469 1609.7344,301.5469 C1609.5156,301.5469 1609.3125,301.625 1609.125,301.8125 C1608.6719,302.2969 1608.6719,302.2969 1608.4844,302.3906 C1608.0625,302.6563 1607.375,302.7813 1606.6094,302.7813 C1604.5625,302.7813 1603.2656,301.6875 1603.2656,299.9844 L1603.2656,298.8906 C1603.2656,297.1094 1604.5156,295.7969 1606.25,295.7969 C1606.8281,295.7969 1607.4375,295.9531 1607.9063,296.2031 C1608.3906,296.4844 1608.5625,296.7031 1608.6563,297.1094 C1608.7188,297.5156 1608.75,297.6406 1608.8906,297.7656 C1609.0313,297.9063 1609.2656,298.0156 1609.4844,298.0156 C1609.75,298.0156 1610.0156,297.875 1610.1875,297.6563 C1610.2969,297.5 1610.3281,297.3125 1610.3281,296.8906 L1610.3281,295.4688 C1610.3281,295.0313 1610.3125,294.9063 1610.2188,294.75 C1610.0625,294.4844 1609.7813,294.3438 1609.4844,294.3438 C1609.1875,294.3438 1608.9844,294.4375 1608.7656,294.75 L1608.5938,294.6719 Z " fill="#000000"/><text fill="#000000" font-family="sans-serif" font-size="12" lengthAdjust="spacingAndGlyphs" textLength="67" x="1626.75" y="303.1543">ActionType</text><line style="stroke:#A80036;stroke-width:1.5;" x1="1494" x2="1794" y1="315" y2="315"/><text fill="#000000" font-family="sans-serif" font-size="11" lengthAdjust="spacingAndGlyphs" textLength="86" x="1499" y="329.2104">a skos:Concept</text><text fill="#000000" font-family="sans-serif" font-size="11" lengthAdjust="spacingAndGlyphs" textLength="290" x="1499" y="342.0151">skos:conceptScheme      &lt;taxonomy/action_type&gt;</text><text fill="#000000" font-family="sans-serif" font-size="11" lengthAdjust="spacingAndGlyphs" textLength="153" x="1499" y="354.8198">skos:prefLabel          string</text><text fill="#000000" font-family="sans-serif" font-size="11" lengthAdjust="spacingAndGlyphs" textLength="153" x="1499" y="367.6245">skos:description        string</text><text fill="#000000" font-family="sans-serif" font-size="11" lengthAdjust="spacingAndGlyphs" textLength="158" x="1499" y="380.4292">fsm:example             string</text><line style="stroke:#A80036;stroke-width:1.5;" x1="1494" x2="1794" y1="387.0234" y2="387.0234"/><!--MD5=[c10c36ce2c02dedc3d02a76c5154070d]
class Quantity--><rect codeLine="69" fill="#FEFECE" filter="url(#fidvzpsrcsp34)" height="73.6094" id="Quantity" style="stroke:#A80036;stroke-width:1.5;" width="184" x="269" y="812"/><ellipse cx="332.25" cy="828" fill="#ADD1B2" rx="11" ry="11" style="stroke:#A80036;stroke-width:1.0;"/><path d="M334.5938,823.6719 C333.6563,823.2344 333.0625,823.0938 332.1875,823.0938 C329.5625,823.0938 327.5625,825.1719 327.5625,827.8906 L327.5625,829.0156 C327.5625,831.5938 329.6719,833.4844 332.5625,833.4844 C333.7813,833.4844 334.9375,833.1875 335.6875,832.6406 C336.2656,832.2344 336.5938,831.7813 336.5938,831.3906 C336.5938,830.9375 336.2031,830.5469 335.7344,830.5469 C335.5156,830.5469 335.3125,830.625 335.125,830.8125 C334.6719,831.2969 334.6719,831.2969 334.4844,831.3906 C334.0625,831.6563 333.375,831.7813 332.6094,831.7813 C330.5625,831.7813 329.2656,830.6875 329.2656,828.9844 L329.2656,827.8906 C329.2656,826.1094 330.5156,824.7969 332.25,824.7969 C332.8281,824.7969 333.4375,824.9531 333.9063,825.2031 C334.3906,825.4844 334.5625,825.7031 334.6563,826.1094 C334.7188,826.5156 334.75,826.6406 334.8906,826.7656 C335.0313,826.9063 335.2656,827.0156 335.4844,827.0156 C335.75,827.0156 336.0156,826.875 336.1875,826.6563 C336.2969,826.5 336.3281,826.3125 336.3281,825.8906 L336.3281,824.4688 C336.3281,824.0313 336.3125,823.9063 336.2188,823.75 C336.0625,823.4844 335.7813,823.3438 335.4844,823.3438 C335.1875,823.3438 334.9844,823.4375 334.7656,823.75 L334.5938,823.6719 Z " fill="#000000"/><text fill="#000000" font-family="sans-serif" font-size="12" lengthAdjust="spacingAndGlyphs" textLength="49" x="352.75" y="832.1543">Quantity</text><line style="stroke:#A80036;stroke-width:1.5;" x1="270" x2="452" y1="844" y2="844"/><text fill="#000000" font-family="sans-serif" font-size="11" lengthAdjust="spacingAndGlyphs" textLength="172" x="275" y="858.2104">quantity                xsd:double</text><text fill="#000000" font-family="sans-serif" font-size="11" lengthAdjust="spacingAndGlyphs" textLength="140" x="275" y="871.0151">uom                     string</text><line style="stroke:#A80036;stroke-width:1.5;" x1="270" x2="452" y1="877.6094" y2="877.6094"/><!--MD5=[1bf375914202c499d6898ba0f8bce2e8]
class Epc--><rect fill="#FEFECE" filter="url(#fidvzpsrcsp34)" height="48" id="Epc" style="stroke:#A80036;stroke-width:1.5;" width="54" x="626" y="963"/><ellipse cx="641" cy="979" fill="#ADD1B2" rx="11" ry="11" style="stroke:#A80036;stroke-width:1.0;"/><path d="M643.3438,974.6719 C642.4063,974.2344 641.8125,974.0938 640.9375,974.0938 C638.3125,974.0938 636.3125,976.1719 636.3125,978.8906 L636.3125,980.0156 C636.3125,982.5938 638.4219,984.4844 641.3125,984.4844 C642.5313,984.4844 643.6875,984.1875 644.4375,983.6406 C645.0156,983.2344 645.3438,982.7813 645.3438,982.3906 C645.3438,981.9375 644.9531,981.5469 644.4844,981.5469 C644.2656,981.5469 644.0625,981.625 643.875,981.8125 C643.4219,982.2969 643.4219,982.2969 643.2344,982.3906 C642.8125,982.6563 642.125,982.7813 641.3594,982.7813 C639.3125,982.7813 638.0156,981.6875 638.0156,979.9844 L638.0156,978.8906 C638.0156,977.1094 639.2656,975.7969 641,975.7969 C641.5781,975.7969 642.1875,975.9531 642.6563,976.2031 C643.1406,976.4844 643.3125,976.7031 643.4063,977.1094 C643.4688,977.5156 643.5,977.6406 643.6406,977.7656 C643.7813,977.9063 644.0156,978.0156 644.2344,978.0156 C644.5,978.0156 644.7656,977.875 644.9375,977.6563 C645.0469,977.5 645.0781,977.3125 645.0781,976.8906 L645.0781,975.4688 C645.0781,975.0313 645.0625,974.9063 644.9688,974.75 C644.8125,974.4844 644.5313,974.3438 644.2344,974.3438 C643.9375,974.3438 643.7344,974.4375 643.5156,974.75 L643.3438,974.6719 Z " fill="#000000"/><text fill="#000000" font-family="sans-serif" font-size="12" lengthAdjust="spacingAndGlyphs" textLength="22" x="655" y="983.1543">Epc</text><line style="stroke:#A80036;stroke-width:1.5;" x1="627" x2="679" y1="995" y2="995"/><line style="stroke:#A80036;stroke-width:1.5;" x1="627" x2="679" y1="1003" y2="1003"/><!--MD5=[3a082f03ada48a9c9760bc64ea0753c5]
class Retailer--><rect codeLine="107" fill="#FEFECE" filter="url(#fidvzpsrcsp34)" height="60.8047" id="Retailer" style="stroke:#A80036;stroke-width:1.5;" width="131" x="82.5" y="145"/><ellipse cx="121.8" cy="161" fill="#ADD1B2" rx="11" ry="11" style="stroke:#A80036;stroke-width:1.0;"/><path d="M124.1438,156.6719 C123.2063,156.2344 122.6125,156.0938 121.7375,156.0938 C119.1125,156.0938 117.1125,158.1719 117.1125,160.8906 L117.1125,162.0156 C117.1125,164.5938 119.2219,166.4844 122.1125,166.4844 C123.3313,166.4844 124.4875,166.1875 125.2375,165.6406 C125.8156,165.2344 126.1438,164.7813 126.1438,164.3906 C126.1438,163.9375 125.7531,163.5469 125.2844,163.5469 C125.0656,163.5469 124.8625,163.625 124.675,163.8125 C124.2219,164.2969 124.2219,164.2969 124.0344,164.3906 C123.6125,164.6563 122.925,164.7813 122.1594,164.7813 C120.1125,164.7813 118.8156,163.6875 118.8156,161.9844 L118.8156,160.8906 C118.8156,159.1094 120.0656,157.7969 121.8,157.7969 C122.3781,157.7969 122.9875,157.9531 123.4563,158.2031 C123.9406,158.4844 124.1125,158.7031 124.2063,159.1094 C124.2688,159.5156 124.3,159.6406 124.4406,159.7656 C124.5813,159.9063 124.8156,160.0156 125.0344,160.0156 C125.3,160.0156 125.5656,159.875 125.7375,159.6563 C125.8469,159.5 125.8781,159.3125 125.8781,158.8906 L125.8781,157.4688 C125.8781,157.0313 125.8625,156.9063 125.7688,156.75 C125.6125,156.4844 125.3313,156.3438 125.0344,156.3438 C124.7375,156.3438 124.5344,156.4375 124.3156,156.75 L124.1438,156.6719 Z " fill="#000000"/><text fill="#000000" font-family="sans-serif" font-size="12" lengthAdjust="spacingAndGlyphs" textLength="45" x="141.2" y="165.1543">Retailer</text><line style="stroke:#A80036;stroke-width:1.5;" x1="83.5" x2="212.5" y1="177" y2="177"/><text fill="#000000" font-family="sans-serif" font-size="11" lengthAdjust="spacingAndGlyphs" textLength="119" x="88.5" y="191.2104">a           fsm:Retailer</text><line style="stroke:#A80036;stroke-width:1.5;" x1="83.5" x2="212.5" y1="197.8047" y2="197.8047"/><!--MD5=[09e3160644ea82bed9dc2bfdc7bfe5c8]
class Producer--><rect codeLine="111" fill="#FEFECE" filter="url(#fidvzpsrcsp34)" height="60.8047" id="Producer" style="stroke:#A80036;stroke-width:1.5;" width="136" x="558" y="7"/><ellipse cx="595.5" cy="23" fill="#ADD1B2" rx="11" ry="11" style="stroke:#A80036;stroke-width:1.0;"/><path d="M597.8438,18.6719 C596.9063,18.2344 596.3125,18.0938 595.4375,18.0938 C592.8125,18.0938 590.8125,20.1719 590.8125,22.8906 L590.8125,24.0156 C590.8125,26.5938 592.9219,28.4844 595.8125,28.4844 C597.0313,28.4844 598.1875,28.1875 598.9375,27.6406 C599.5156,27.2344 599.8438,26.7813 599.8438,26.3906 C599.8438,25.9375 599.4531,25.5469 598.9844,25.5469 C598.7656,25.5469 598.5625,25.625 598.375,25.8125 C597.9219,26.2969 597.9219,26.2969 597.7344,26.3906 C597.3125,26.6563 596.625,26.7813 595.8594,26.7813 C593.8125,26.7813 592.5156,25.6875 592.5156,23.9844 L592.5156,22.8906 C592.5156,21.1094 593.7656,19.7969 595.5,19.7969 C596.0781,19.7969 596.6875,19.9531 597.1563,20.2031 C597.6406,20.4844 597.8125,20.7031 597.9063,21.1094 C597.9688,21.5156 598,21.6406 598.1406,21.7656 C598.2813,21.9063 598.5156,22.0156 598.7344,22.0156 C599,22.0156 599.2656,21.875 599.4375,21.6563 C599.5469,21.5 599.5781,21.3125 599.5781,20.8906 L599.5781,19.4688 C599.5781,19.0313 599.5625,18.9063 599.4688,18.75 C599.3125,18.4844 599.0313,18.3438 598.7344,18.3438 C598.4375,18.3438 598.2344,18.4375 598.0156,18.75 L597.8438,18.6719 Z " fill="#000000"/><text fill="#000000" font-family="sans-serif" font-size="12" lengthAdjust="spacingAndGlyphs" textLength="54" x="614.5" y="27.1543">Producer</text><line style="stroke:#A80036;stroke-width:1.5;" x1="559" x2="693" y1="39" y2="39"/><text fill="#000000" font-family="sans-serif" font-size="11" lengthAdjust="spacingAndGlyphs" textLength="124" x="564" y="53.2104">a           fsm:Producer</text><line style="stroke:#A80036;stroke-width:1.5;" x1="559" x2="693" y1="59.8047" y2="59.8047"/><!--MD5=[745cc7ee0ffbadd0e5662d4317a12d8b]
class Manufacturer--><rect codeLine="115" fill="#FEFECE" filter="url(#fidvzpsrcsp34)" height="60.8047" id="Manufacturer" style="stroke:#A80036;stroke-width:1.5;" width="161" x="729.5" y="7"/><ellipse cx="767.45" cy="23" fill="#ADD1B2" rx="11" ry="11" style="stroke:#A80036;stroke-width:1.0;"/><path d="M769.7938,18.6719 C768.8563,18.2344 768.2625,18.0938 767.3875,18.0938 C764.7625,18.0938 762.7625,20.1719 762.7625,22.8906 L762.7625,24.0156 C762.7625,26.5938 764.8719,28.4844 767.7625,28.4844 C768.9813,28.4844 770.1375,28.1875 770.8875,27.6406 C771.4656,27.2344 771.7938,26.7813 771.7938,26.3906 C771.7938,25.9375 771.4031,25.5469 770.9344,25.5469 C770.7156,25.5469 770.5125,25.625 770.325,25.8125 C769.8719,26.2969 769.8719,26.2969 769.6844,26.3906 C769.2625,26.6563 768.575,26.7813 767.8094,26.7813 C765.7625,26.7813 764.4656,25.6875 764.4656,23.9844 L764.4656,22.8906 C764.4656,21.1094 765.7156,19.7969 767.45,19.7969 C768.0281,19.7969 768.6375,19.9531 769.1063,20.2031 C769.5906,20.4844 769.7625,20.7031 769.8563,21.1094 C769.9188,21.5156 769.95,21.6406 770.0906,21.7656 C770.2313,21.9063 770.4656,22.0156 770.6844,22.0156 C770.95,22.0156 771.2156,21.875 771.3875,21.6563 C771.4969,21.5 771.5281,21.3125 771.5281,20.8906 L771.5281,19.4688 C771.5281,19.0313 771.5125,18.9063 771.4188,18.75 C771.2625,18.4844 770.9813,18.3438 770.6844,18.3438 C770.3875,18.3438 770.1844,18.4375 769.9656,18.75 L769.7938,18.6719 Z " fill="#000000"/><text fill="#000000" font-family="sans-serif" font-size="12" lengthAdjust="spacingAndGlyphs" textLength="78" x="786.55" y="27.1543">Manufacturer</text><line style="stroke:#A80036;stroke-width:1.5;" x1="730.5" x2="889.5" y1="39" y2="39"/><text fill="#000000" font-family="sans-serif" font-size="11" lengthAdjust="spacingAndGlyphs" textLength="149" x="735.5" y="53.2104">a           fsm:Manufacturer</text><line style="stroke:#A80036;stroke-width:1.5;" x1="730.5" x2="889.5" y1="59.8047" y2="59.8047"/><!--MD5=[d8b7e4e2b4714695e5ea40a6bc5907ed]
class FoodProcessor--><rect codeLine="119" fill="#FEFECE" filter="url(#fidvzpsrcsp34)" height="60.8047" id="FoodProcessor" style="stroke:#A80036;stroke-width:1.5;" width="168" x="926" y="7"/><ellipse cx="960.8" cy="23" fill="#ADD1B2" rx="11" ry="11" style="stroke:#A80036;stroke-width:1.0;"/><path d="M963.1438,18.6719 C962.2063,18.2344 961.6125,18.0938 960.7375,18.0938 C958.1125,18.0938 956.1125,20.1719 956.1125,22.8906 L956.1125,24.0156 C956.1125,26.5938 958.2219,28.4844 961.1125,28.4844 C962.3313,28.4844 963.4875,28.1875 964.2375,27.6406 C964.8156,27.2344 965.1438,26.7813 965.1438,26.3906 C965.1438,25.9375 964.7531,25.5469 964.2844,25.5469 C964.0656,25.5469 963.8625,25.625 963.675,25.8125 C963.2219,26.2969 963.2219,26.2969 963.0344,26.3906 C962.6125,26.6563 961.925,26.7813 961.1594,26.7813 C959.1125,26.7813 957.8156,25.6875 957.8156,23.9844 L957.8156,22.8906 C957.8156,21.1094 959.0656,19.7969 960.8,19.7969 C961.3781,19.7969 961.9875,19.9531 962.4563,20.2031 C962.9406,20.4844 963.1125,20.7031 963.2063,21.1094 C963.2688,21.5156 963.3,21.6406 963.4406,21.7656 C963.5813,21.9063 963.8156,22.0156 964.0344,22.0156 C964.3,22.0156 964.5656,21.875 964.7375,21.6563 C964.8469,21.5 964.8781,21.3125 964.8781,20.8906 L964.8781,19.4688 C964.8781,19.0313 964.8625,18.9063 964.7688,18.75 C964.6125,18.4844 964.3313,18.3438 964.0344,18.3438 C963.7375,18.3438 963.5344,18.4375 963.3156,18.75 L963.1438,18.6719 Z " fill="#000000"/><text fill="#000000" font-family="sans-serif" font-size="12" lengthAdjust="spacingAndGlyphs" textLength="92" x="979.2" y="27.1543">FoodProcessor</text><line style="stroke:#A80036;stroke-width:1.5;" x1="927" x2="1093" y1="39" y2="39"/><text fill="#000000" font-family="sans-serif" font-size="11" lengthAdjust="spacingAndGlyphs" textLength="156" x="932" y="53.2104">a           fsm:FoodProcessor</text><line style="stroke:#A80036;stroke-width:1.5;" x1="927" x2="1093" y1="59.8047" y2="59.8047"/><!--MD5=[379d885b8122ce1bd4f3b34fe91081af]
class CertificationBody--><rect codeLine="123" fill="#FEFECE" filter="url(#fidvzpsrcsp34)" height="60.8047" id="CertificationBody" style="stroke:#A80036;stroke-width:1.5;" width="184" x="249" y="145"/><ellipse cx="286.5" cy="161" fill="#ADD1B2" rx="11" ry="11" style="stroke:#A80036;stroke-width:1.0;"/><path d="M288.8438,156.6719 C287.9063,156.2344 287.3125,156.0938 286.4375,156.0938 C283.8125,156.0938 281.8125,158.1719 281.8125,160.8906 L281.8125,162.0156 C281.8125,164.5938 283.9219,166.4844 286.8125,166.4844 C288.0313,166.4844 289.1875,166.1875 289.9375,165.6406 C290.5156,165.2344 290.8438,164.7813 290.8438,164.3906 C290.8438,163.9375 290.4531,163.5469 289.9844,163.5469 C289.7656,163.5469 289.5625,163.625 289.375,163.8125 C288.9219,164.2969 288.9219,164.2969 288.7344,164.3906 C288.3125,164.6563 287.625,164.7813 286.8594,164.7813 C284.8125,164.7813 283.5156,163.6875 283.5156,161.9844 L283.5156,160.8906 C283.5156,159.1094 284.7656,157.7969 286.5,157.7969 C287.0781,157.7969 287.6875,157.9531 288.1563,158.2031 C288.6406,158.4844 288.8125,158.7031 288.9063,159.1094 C288.9688,159.5156 289,159.6406 289.1406,159.7656 C289.2813,159.9063 289.5156,160.0156 289.7344,160.0156 C290,160.0156 290.2656,159.875 290.4375,159.6563 C290.5469,159.5 290.5781,159.3125 290.5781,158.8906 L290.5781,157.4688 C290.5781,157.0313 290.5625,156.9063 290.4688,156.75 C290.3125,156.4844 290.0313,156.3438 289.7344,156.3438 C289.4375,156.3438 289.2344,156.4375 289.0156,156.75 L288.8438,156.6719 Z " fill="#000000"/><text fill="#000000" font-family="sans-serif" font-size="12" lengthAdjust="spacingAndGlyphs" textLength="102" x="305.5" y="165.1543">CertificationBody</text><line style="stroke:#A80036;stroke-width:1.5;" x1="250" x2="432" y1="177" y2="177"/><text fill="#000000" font-family="sans-serif" font-size="11" lengthAdjust="spacingAndGlyphs" textLength="172" x="255" y="191.2104">a           fsm:CertificationBody</text><line style="stroke:#A80036;stroke-width:1.5;" x1="250" x2="432" y1="197.8047" y2="197.8047"/><!--MD5=[b7157c1b9811807321a1cf7c7fb75f55]
class CertificationSchemaOwner--><rect codeLine="127" fill="#FEFECE" filter="url(#fidvzpsrcsp34)" height="60.8047" id="CertificationSchemaOwner" style="stroke:#A80036;stroke-width:1.5;" width="239" x="468.5" y="145"/><ellipse cx="505.1" cy="161" fill="#ADD1B2" rx="11" ry="11" style="stroke:#A80036;stroke-width:1.0;"/><path d="M507.4438,156.6719 C506.5063,156.2344 505.9125,156.0938 505.0375,156.0938 C502.4125,156.0938 500.4125,158.1719 500.4125,160.8906 L500.4125,162.0156 C500.4125,164.5938 502.5219,166.4844 505.4125,166.4844 C506.6313,166.4844 507.7875,166.1875 508.5375,165.6406 C509.1156,165.2344 509.4438,164.7813 509.4438,164.3906 C509.4438,163.9375 509.0531,163.5469 508.5844,163.5469 C508.3656,163.5469 508.1625,163.625 507.975,163.8125 C507.5219,164.2969 507.5219,164.2969 507.3344,164.3906 C506.9125,164.6563 506.225,164.7813 505.4594,164.7813 C503.4125,164.7813 502.1156,163.6875 502.1156,161.9844 L502.1156,160.8906 C502.1156,159.1094 503.3656,157.7969 505.1,157.7969 C505.6781,157.7969 506.2875,157.9531 506.7563,158.2031 C507.2406,158.4844 507.4125,158.7031 507.5063,159.1094 C507.5688,159.5156 507.6,159.6406 507.7406,159.7656 C507.8813,159.9063 508.1156,160.0156 508.3344,160.0156 C508.6,160.0156 508.8656,159.875 509.0375,159.6563 C509.1469,159.5 509.1781,159.3125 509.1781,158.8906 L509.1781,157.4688 C509.1781,157.0313 509.1625,156.9063 509.0688,156.75 C508.9125,156.4844 508.6313,156.3438 508.3344,156.3438 C508.0375,156.3438 507.8344,156.4375 507.6156,156.75 L507.4438,156.6719 Z " fill="#000000"/><text fill="#000000" font-family="sans-serif" font-size="12" lengthAdjust="spacingAndGlyphs" textLength="159" x="523.9" y="165.1543">CertificationSchemaOwner</text><line style="stroke:#A80036;stroke-width:1.5;" x1="469.5" x2="706.5" y1="177" y2="177"/><text fill="#000000" font-family="sans-serif" font-size="11" lengthAdjust="spacingAndGlyphs" textLength="227" x="474.5" y="191.2104">a           fsm:CertificationSchemaOwner</text><line style="stroke:#A80036;stroke-width:1.5;" x1="469.5" x2="706.5" y1="197.8047" y2="197.8047"/><!--MD5=[6f6af049516bc56aac6e320b3234ce97]
class Supplier--><rect codeLine="131" fill="#FEFECE" filter="url(#fidvzpsrcsp34)" height="60.8047" id="Supplier" style="stroke:#A80036;stroke-width:1.5;" width="134" x="743" y="145"/><ellipse cx="781.4" cy="161" fill="#ADD1B2" rx="11" ry="11" style="stroke:#A80036;stroke-width:1.0;"/><path d="M783.7438,156.6719 C782.8063,156.2344 782.2125,156.0938 781.3375,156.0938 C778.7125,156.0938 776.7125,158.1719 776.7125,160.8906 L776.7125,162.0156 C776.7125,164.5938 778.8219,166.4844 781.7125,166.4844 C782.9313,166.4844 784.0875,166.1875 784.8375,165.6406 C785.4156,165.2344 785.7438,164.7813 785.7438,164.3906 C785.7438,163.9375 785.3531,163.5469 784.8844,163.5469 C784.6656,163.5469 784.4625,163.625 784.275,163.8125 C783.8219,164.2969 783.8219,164.2969 783.6344,164.3906 C783.2125,164.6563 782.525,164.7813 781.7594,164.7813 C779.7125,164.7813 778.4156,163.6875 778.4156,161.9844 L778.4156,160.8906 C778.4156,159.1094 779.6656,157.7969 781.4,157.7969 C781.9781,157.7969 782.5875,157.9531 783.0563,158.2031 C783.5406,158.4844 783.7125,158.7031 783.8063,159.1094 C783.8688,159.5156 783.9,159.6406 784.0406,159.7656 C784.1813,159.9063 784.4156,160.0156 784.6344,160.0156 C784.9,160.0156 785.1656,159.875 785.3375,159.6563 C785.4469,159.5 785.4781,159.3125 785.4781,158.8906 L785.4781,157.4688 C785.4781,157.0313 785.4625,156.9063 785.3688,156.75 C785.2125,156.4844 784.9313,156.3438 784.6344,156.3438 C784.3375,156.3438 784.1344,156.4375 783.9156,156.75 L783.7438,156.6719 Z " fill="#000000"/><text fill="#000000" font-family="sans-serif" font-size="12" lengthAdjust="spacingAndGlyphs" textLength="50" x="800.6" y="165.1543">Supplier</text><line style="stroke:#A80036;stroke-width:1.5;" x1="744" x2="876" y1="177" y2="177"/><text fill="#000000" font-family="sans-serif" font-size="11" lengthAdjust="spacingAndGlyphs" textLength="122" x="749" y="191.2104">a           fsm:Supplier</text><line style="stroke:#A80036;stroke-width:1.5;" x1="744" x2="876" y1="197.8047" y2="197.8047"/><!--MD5=[a2a32eb8740a34a1508bfb05a6833e01]
class Incident--><rect codeLine="135" fill="#FEFECE" filter="url(#fidvzpsrcsp34)" height="60.8047" id="Incident" style="stroke:#A80036;stroke-width:1.5;" width="132" x="942" y="497.5"/><ellipse cx="980.85" cy="513.5" fill="#ADD1B2" rx="11" ry="11" style="stroke:#A80036;stroke-width:1.0;"/><path d="M983.1938,509.1719 C982.2563,508.7344 981.6625,508.5938 980.7875,508.5938 C978.1625,508.5938 976.1625,510.6719 976.1625,513.3906 L976.1625,514.5156 C976.1625,517.0938 978.2719,518.9844 981.1625,518.9844 C982.3813,518.9844 983.5375,518.6875 984.2875,518.1406 C984.8656,517.7344 985.1938,517.2813 985.1938,516.8906 C985.1938,516.4375 984.8031,516.0469 984.3344,516.0469 C984.1156,516.0469 983.9125,516.125 983.725,516.3125 C983.2719,516.7969 983.2719,516.7969 983.0844,516.8906 C982.6625,517.1563 981.975,517.2813 981.2094,517.2813 C979.1625,517.2813 977.8656,516.1875 977.8656,514.4844 L977.8656,513.3906 C977.8656,511.6094 979.1156,510.2969 980.85,510.2969 C981.4281,510.2969 982.0375,510.4531 982.5063,510.7031 C982.9906,510.9844 983.1625,511.2031 983.2563,511.6094 C983.3188,512.0156 983.35,512.1406 983.4906,512.2656 C983.6313,512.4063 983.8656,512.5156 984.0844,512.5156 C984.35,512.5156 984.6156,512.375 984.7875,512.1563 C984.8969,512 984.9281,511.8125 984.9281,511.3906 L984.9281,509.9688 C984.9281,509.5313 984.9125,509.4063 984.8188,509.25 C984.6625,508.9844 984.3813,508.8438 984.0844,508.8438 C983.7875,508.8438 983.5844,508.9375 983.3656,509.25 L983.1938,509.1719 Z " fill="#000000"/><text fill="#000000" font-family="sans-serif" font-size="12" lengthAdjust="spacingAndGlyphs" textLength="47" x="1000.15" y="517.6543">Incident</text><line style="stroke:#A80036;stroke-width:1.5;" x1="943" x2="1073" y1="529.5" y2="529.5"/><text fill="#000000" font-family="sans-serif" font-size="11" lengthAdjust="spacingAndGlyphs" textLength="120" x="948" y="543.7104">a           fsm:Incident</text><line style="stroke:#A80036;stroke-width:1.5;" x1="943" x2="1073" y1="550.3047" y2="550.3047"/><!--MD5=[1f1a18b8128c46004167f2eb357dc2be]
class Inspection--><rect codeLine="139" fill="#FEFECE" filter="url(#fidvzpsrcsp34)" height="60.8047" id="Inspection" style="stroke:#A80036;stroke-width:1.5;" width="145" x="1109.5" y="497.5"/><ellipse cx="1147.45" cy="513.5" fill="#ADD1B2" rx="11" ry="11" style="stroke:#A80036;stroke-width:1.0;"/><path d="M1149.7938,509.1719 C1148.8563,508.7344 1148.2625,508.5938 1147.3875,508.5938 C1144.7625,508.5938 1142.7625,510.6719 1142.7625,513.3906 L1142.7625,514.5156 C1142.7625,517.0938 1144.8719,518.9844 1147.7625,518.9844 C1148.9813,518.9844 1150.1375,518.6875 1150.8875,518.1406 C1151.4656,517.7344 1151.7938,517.2813 1151.7938,516.8906 C1151.7938,516.4375 1151.4031,516.0469 1150.9344,516.0469 C1150.7156,516.0469 1150.5125,516.125 1150.325,516.3125 C1149.8719,516.7969 1149.8719,516.7969 1149.6844,516.8906 C1149.2625,517.1563 1148.575,517.2813 1147.8094,517.2813 C1145.7625,517.2813 1144.4656,516.1875 1144.4656,514.4844 L1144.4656,513.3906 C1144.4656,511.6094 1145.7156,510.2969 1147.45,510.2969 C1148.0281,510.2969 1148.6375,510.4531 1149.1063,510.7031 C1149.5906,510.9844 1149.7625,511.2031 1149.8563,511.6094 C1149.9188,512.0156 1149.95,512.1406 1150.0906,512.2656 C1150.2313,512.4063 1150.4656,512.5156 1150.6844,512.5156 C1150.95,512.5156 1151.2156,512.375 1151.3875,512.1563 C1151.4969,512 1151.5281,511.8125 1151.5281,511.3906 L1151.5281,509.9688 C1151.5281,509.5313 1151.5125,509.4063 1151.4188,509.25 C1151.2625,508.9844 1150.9813,508.8438 1150.6844,508.8438 C1150.3875,508.8438 1150.1844,508.9375 1149.9656,509.25 L1149.7938,509.1719 Z " fill="#000000"/><text fill="#000000" font-family="sans-serif" font-size="12" lengthAdjust="spacingAndGlyphs" textLength="62" x="1166.55" y="517.6543">Inspection</text><line style="stroke:#A80036;stroke-width:1.5;" x1="1110.5" x2="1253.5" y1="529.5" y2="529.5"/><text fill="#000000" font-family="sans-serif" font-size="11" lengthAdjust="spacingAndGlyphs" textLength="133" x="1115.5" y="543.7104">a           fsm:Inspection</text><line style="stroke:#A80036;stroke-width:1.5;" x1="1110.5" x2="1253.5" y1="550.3047" y2="550.3047"/><!--MD5=[c445f63cc9ac97a6a8cb62fbd2569fbf]
class LabTest--><rect codeLine="143" fill="#FEFECE" filter="url(#fidvzpsrcsp34)" height="60.8047" id="LabTest" style="stroke:#A80036;stroke-width:1.5;" width="132" x="1290" y="497.5"/><ellipse cx="1328.85" cy="513.5" fill="#ADD1B2" rx="11" ry="11" style="stroke:#A80036;stroke-width:1.0;"/><path d="M1331.1938,509.1719 C1330.2563,508.7344 1329.6625,508.5938 1328.7875,508.5938 C1326.1625,508.5938 1324.1625,510.6719 1324.1625,513.3906 L1324.1625,514.5156 C1324.1625,517.0938 1326.2719,518.9844 1329.1625,518.9844 C1330.3813,518.9844 1331.5375,518.6875 1332.2875,518.1406 C1332.8656,517.7344 1333.1938,517.2813 1333.1938,516.8906 C1333.1938,516.4375 1332.8031,516.0469 1332.3344,516.0469 C1332.1156,516.0469 1331.9125,516.125 1331.725,516.3125 C1331.2719,516.7969 1331.2719,516.7969 1331.0844,516.8906 C1330.6625,517.1563 1329.975,517.2813 1329.2094,517.2813 C1327.1625,517.2813 1325.8656,516.1875 1325.8656,514.4844 L1325.8656,513.3906 C1325.8656,511.6094 1327.1156,510.2969 1328.85,510.2969 C1329.4281,510.2969 1330.0375,510.4531 1330.5063,510.7031 C1330.9906,510.9844 1331.1625,511.2031 1331.2563,511.6094 C1331.3188,512.0156 1331.35,512.1406 1331.4906,512.2656 C1331.6313,512.4063 1331.8656,512.5156 1332.0844,512.5156 C1332.35,512.5156 1332.6156,512.375 1332.7875,512.1563 C1332.8969,512 1332.9281,511.8125 1332.9281,511.3906 L1332.9281,509.9688 C1332.9281,509.5313 1332.9125,509.4063 1332.8188,509.25 C1332.6625,508.9844 1332.3813,508.8438 1332.0844,508.8438 C1331.7875,508.8438 1331.5844,508.9375 1331.3656,509.25 L1331.1938,509.1719 Z " fill="#000000"/><text fill="#000000" font-family="sans-serif" font-size="12" lengthAdjust="spacingAndGlyphs" textLength="47" x="1348.15" y="517.6543">LabTest</text><line style="stroke:#A80036;stroke-width:1.5;" x1="1291" x2="1421" y1="529.5" y2="529.5"/><text fill="#000000" font-family="sans-serif" font-size="11" lengthAdjust="spacingAndGlyphs" textLength="120" x="1296" y="543.7104">a           fsm:LabTest</text><line style="stroke:#A80036;stroke-width:1.5;" x1="1291" x2="1421" y1="550.3047" y2="550.3047"/><!--MD5=[f09905fc32078a6fe8a07188ed33b541]
class Audit--><rect codeLine="147" fill="#FEFECE" filter="url(#fidvzpsrcsp34)" height="60.8047" id="Audit" style="stroke:#A80036;stroke-width:1.5;" width="116" x="1457" y="497.5"/><ellipse cx="1496.3" cy="513.5" fill="#ADD1B2" rx="11" ry="11" style="stroke:#A80036;stroke-width:1.0;"/><path d="M1498.6438,509.1719 C1497.7063,508.7344 1497.1125,508.5938 1496.2375,508.5938 C1493.6125,508.5938 1491.6125,510.6719 1491.6125,513.3906 L1491.6125,514.5156 C1491.6125,517.0938 1493.7219,518.9844 1496.6125,518.9844 C1497.8313,518.9844 1498.9875,518.6875 1499.7375,518.1406 C1500.3156,517.7344 1500.6438,517.2813 1500.6438,516.8906 C1500.6438,516.4375 1500.2531,516.0469 1499.7844,516.0469 C1499.5656,516.0469 1499.3625,516.125 1499.175,516.3125 C1498.7219,516.7969 1498.7219,516.7969 1498.5344,516.8906 C1498.1125,517.1563 1497.425,517.2813 1496.6594,517.2813 C1494.6125,517.2813 1493.3156,516.1875 1493.3156,514.4844 L1493.3156,513.3906 C1493.3156,511.6094 1494.5656,510.2969 1496.3,510.2969 C1496.8781,510.2969 1497.4875,510.4531 1497.9563,510.7031 C1498.4406,510.9844 1498.6125,511.2031 1498.7063,511.6094 C1498.7688,512.0156 1498.8,512.1406 1498.9406,512.2656 C1499.0813,512.4063 1499.3156,512.5156 1499.5344,512.5156 C1499.8,512.5156 1500.0656,512.375 1500.2375,512.1563 C1500.3469,512 1500.3781,511.8125 1500.3781,511.3906 L1500.3781,509.9688 C1500.3781,509.5313 1500.3625,509.4063 1500.2688,509.25 C1500.1125,508.9844 1499.8313,508.8438 1499.5344,508.8438 C1499.2375,508.8438 1499.0344,508.9375 1498.8156,509.25 L1498.6438,509.1719 Z " fill="#000000"/><text fill="#000000" font-family="sans-serif" font-size="12" lengthAdjust="spacingAndGlyphs" textLength="30" x="1515.7" y="517.6543">Audit</text><line style="stroke:#A80036;stroke-width:1.5;" x1="1458" x2="1572" y1="529.5" y2="529.5"/><text fill="#000000" font-family="sans-serif" font-size="11" lengthAdjust="spacingAndGlyphs" textLength="104" x="1463" y="543.7104">a           fsm:Audit</text><line style="stroke:#A80036;stroke-width:1.5;" x1="1458" x2="1572" y1="550.3047" y2="550.3047"/><!--MD5=[f2a8a16790223d0349d8ab74e2442abe]
class CertificateGrant--><rect codeLine="151" fill="#FEFECE" filter="url(#fidvzpsrcsp34)" height="60.8047" id="CertificateGrant" style="stroke:#A80036;stroke-width:1.5;" width="177" x="1608.5" y="497.5"/><ellipse cx="1646.9" cy="513.5" fill="#ADD1B2" rx="11" ry="11" style="stroke:#A80036;stroke-width:1.0;"/><path d="M1649.2438,509.1719 C1648.3063,508.7344 1647.7125,508.5938 1646.8375,508.5938 C1644.2125,508.5938 1642.2125,510.6719 1642.2125,513.3906 L1642.2125,514.5156 C1642.2125,517.0938 1644.3219,518.9844 1647.2125,518.9844 C1648.4313,518.9844 1649.5875,518.6875 1650.3375,518.1406 C1650.9156,517.7344 1651.2438,517.2813 1651.2438,516.8906 C1651.2438,516.4375 1650.8531,516.0469 1650.3844,516.0469 C1650.1656,516.0469 1649.9625,516.125 1649.775,516.3125 C1649.3219,516.7969 1649.3219,516.7969 1649.1344,516.8906 C1648.7125,517.1563 1648.025,517.2813 1647.2594,517.2813 C1645.2125,517.2813 1643.9156,516.1875 1643.9156,514.4844 L1643.9156,513.3906 C1643.9156,511.6094 1645.1656,510.2969 1646.9,510.2969 C1647.4781,510.2969 1648.0875,510.4531 1648.5563,510.7031 C1649.0406,510.9844 1649.2125,511.2031 1649.3063,511.6094 C1649.3688,512.0156 1649.4,512.1406 1649.5406,512.2656 C1649.6813,512.4063 1649.9156,512.5156 1650.1344,512.5156 C1650.4,512.5156 1650.6656,512.375 1650.8375,512.1563 C1650.9469,512 1650.9781,511.8125 1650.9781,511.3906 L1650.9781,509.9688 C1650.9781,509.5313 1650.9625,509.4063 1650.8688,509.25 C1650.7125,508.9844 1650.4313,508.8438 1650.1344,508.8438 C1649.8375,508.8438 1649.6344,508.9375 1649.4156,509.25 L1649.2438,509.1719 Z " fill="#000000"/><text fill="#000000" font-family="sans-serif" font-size="12" lengthAdjust="spacingAndGlyphs" textLength="93" x="1666.1" y="517.6543">CertificateGrant</text><line style="stroke:#A80036;stroke-width:1.5;" x1="1609.5" x2="1784.5" y1="529.5" y2="529.5"/><text fill="#000000" font-family="sans-serif" font-size="11" lengthAdjust="spacingAndGlyphs" textLength="165" x="1614.5" y="543.7104">a           fsm:CertificateGrant</text><line style="stroke:#A80036;stroke-width:1.5;" x1="1609.5" x2="1784.5" y1="550.3047" y2="550.3047"/><!--MD5=[2741598bdf59a7d7e0d5c97658fd3022]
class Result--><rect fill="#FEFECE" filter="url(#fidvzpsrcsp34)" height="48" id="Result" style="stroke:#A80036;stroke-width:1.5;" width="68" x="696" y="1101"/><ellipse cx="711" cy="1117" fill="#ADD1B2" rx="11" ry="11" style="stroke:#A80036;stroke-width:1.0;"/><path d="M713.3438,1112.6719 C712.4063,1112.2344 711.8125,1112.0938 710.9375,1112.0938 C708.3125,1112.0938 706.3125,1114.1719 706.3125,1116.8906 L706.3125,1118.0156 C706.3125,1120.5938 708.4219,1122.4844 711.3125,1122.4844 C712.5313,1122.4844 713.6875,1122.1875 714.4375,1121.6406 C715.0156,1121.2344 715.3438,1120.7813 715.3438,1120.3906 C715.3438,1119.9375 714.9531,1119.5469 714.4844,1119.5469 C714.2656,1119.5469 714.0625,1119.625 713.875,1119.8125 C713.4219,1120.2969 713.4219,1120.2969 713.2344,1120.3906 C712.8125,1120.6563 712.125,1120.7813 711.3594,1120.7813 C709.3125,1120.7813 708.0156,1119.6875 708.0156,1117.9844 L708.0156,1116.8906 C708.0156,1115.1094 709.2656,1113.7969 711,1113.7969 C711.5781,1113.7969 712.1875,1113.9531 712.6563,1114.2031 C713.1406,1114.4844 713.3125,1114.7031 713.4063,1115.1094 C713.4688,1115.5156 713.5,1115.6406 713.6406,1115.7656 C713.7813,1115.9063 714.0156,1116.0156 714.2344,1116.0156 C714.5,1116.0156 714.7656,1115.875 714.9375,1115.6563 C715.0469,1115.5 715.0781,1115.3125 715.0781,1114.8906 L715.0781,1113.4688 C715.0781,1113.0313 715.0625,1112.9063 714.9688,1112.75 C714.8125,1112.4844 714.5313,1112.3438 714.2344,1112.3438 C713.9375,1112.3438 713.7344,1112.4375 713.5156,1112.75 L713.3438,1112.6719 Z " fill="#000000"/><text fill="#000000" font-family="sans-serif" font-size="12" lengthAdjust="spacingAndGlyphs" textLength="36" x="725" y="1121.1543">Result</text><line style="stroke:#A80036;stroke-width:1.5;" x1="697" x2="763" y1="1133" y2="1133"/><line style="stroke:#A80036;stroke-width:1.5;" x1="697" x2="763" y1="1141" y2="1141"/><!--MD5=[f12f530c84877e2bffdeff48716e6438]
reverse link ActionType to Event--><path codeLine="75" d="M1487.76,391.918 C1483.47,392.997 1479.21,394.028 1475,395 C1354.53,422.793 1045.01,446.685 924,472 C894.769,478.115 863.48,486.185 834.677,494.254 " fill="none" id="ActionType-backto-Event" style="stroke:#A80036;stroke-width:1.0;"/><polygon fill="#A80036" points="1492.8,390.628,1483.0929,388.9632,1487.9534,391.8571,1485.0595,396.7177,1492.8,390.628" style="stroke:#A80036;stroke-width:1.0;"/><text fill="#000000" font-family="sans-serif" font-size="13" lengthAdjust="spacingAndGlyphs" textLength="39" x="1278" y="438.0669">action</text><!--MD5=[25770352201ebb0706163a79afa063d6]
reverse link BusinessStep to Event--><path codeLine="76" d="M1135.45,393.563 C1038.75,425.23 919.078,464.423 834.514,492.117 " fill="none" id="BusinessStep-backto-Event" style="stroke:#A80036;stroke-width:1.0;"/><polygon fill="#A80036" points="1140.32,391.966,1130.5219,390.9677,1135.5686,393.5231,1133.0133,398.5699,1140.32,391.966" style="stroke:#A80036;stroke-width:1.0;"/><text fill="#000000" font-family="sans-serif" font-size="13" lengthAdjust="spacingAndGlyphs" textLength="85" x="1032" y="438.0669">businessStep</text><!--MD5=[e441ce48895b713cc2100ac93e1ecf5a]
reverse link Disposition to Event--><path codeLine="77" d="M908.351,398.861 C894.747,413.735 879.44,429.125 864,442 C851.49,452.432 837.596,462.534 823.603,471.914 " fill="none" id="Disposition-backto-Event" style="stroke:#A80036;stroke-width:1.0;"/><polygon fill="#A80036" points="911.772,395.092,902.7611,399.0674,908.4113,398.7942,908.6845,404.4444,911.772,395.092" style="stroke:#A80036;stroke-width:1.0;"/><text fill="#000000" font-family="sans-serif" font-size="13" lengthAdjust="spacingAndGlyphs" textLength="68" x="882" y="438.0669">disposition</text><!--MD5=[89815d28a959a8410ace6cb3c88409ef]
reverse link Place to Event--><path codeLine="78" d="M676.159,381.489 C671.186,400.194 668.309,422.429 674,442 C676.929,452.073 681.451,462.093 686.659,471.532 " fill="none" id="Place-backto-Event" style="stroke:#A80036;stroke-width:1.0;"/><polygon fill="#A80036" points="677.612,376.312,671.3306,383.8977,676.262,381.1263,679.0334,386.0577,677.612,376.312" style="stroke:#A80036;stroke-width:1.0;"/><text fill="#000000" font-family="sans-serif" font-size="13" lengthAdjust="spacingAndGlyphs" textLength="61" x="675" y="438.0669">readPoint</text><!--MD5=[89815d28a959a8410ace6cb3c88409ef]
reverse link Place to Event--><path codeLine="79" d="M721.205,380.697 C729.247,394.15 736.886,409.625 741,425 C745.015,440.003 744.799,456.589 742.765,471.949 " fill="none" id="Place-backto-Event-1" style="stroke:#A80036;stroke-width:1.0;"/><polygon fill="#A80036" points="718.467,376.214,719.746,385.9795,721.0738,380.4807,726.5726,381.8085,718.467,376.214" style="stroke:#A80036;stroke-width:1.0;"/><text fill="#000000" font-family="sans-serif" font-size="13" lengthAdjust="spacingAndGlyphs" textLength="110" x="745" y="438.0669">businessLocation</text><!--MD5=[a8f75ebfd969415163ee6cf169969528]
reverse link Organization to Event--><path codeLine="80" d="M455.807,381.528 C454.202,401.672 456.119,425.102 469,442 C504.72,488.857 566.954,510.242 621.465,519.848 " fill="none" id="Organization-backto-Event" style="stroke:#A80036;stroke-width:1.0;"/><polygon fill="#A80036" points="456.287,376.484,451.4539,385.0655,455.8142,381.4616,459.4181,385.8219,456.287,376.484" style="stroke:#A80036;stroke-width:1.0;"/><text fill="#000000" font-family="sans-serif" font-size="13" lengthAdjust="spacingAndGlyphs" textLength="43" x="470" y="438.0669">source</text><!--MD5=[a8f75ebfd969415163ee6cf169969528]
reverse link Organization to Event--><path codeLine="81" d="M510.241,379.379 C533.872,398.921 563.398,422.462 591,442 C605.165,452.027 620.504,462.182 635.618,471.816 " fill="none" id="Organization-backto-Event-1" style="stroke:#A80036;stroke-width:1.0;"/><polygon fill="#A80036" points="506.201,376.03,510.5756,384.854,510.0498,379.2216,515.6822,378.6959,506.201,376.03" style="stroke:#A80036;stroke-width:1.0;"/><text fill="#000000" font-family="sans-serif" font-size="13" lengthAdjust="spacingAndGlyphs" textLength="71" x="592" y="438.0669">destination</text><!--MD5=[bc754a2564edfb2b418fd17494ec1eb3]
reverse link Transaction to Event--><path codeLine="82" d="M230.869,373.259 C253.206,396.06 285.697,425.132 320,442 C415.608,489.013 536.216,510.065 621.432,519.467 " fill="none" id="Transaction-backto-Event" style="stroke:#A80036;stroke-width:1.0;"/><polygon fill="#A80036" points="227.372,369.656,230.7697,378.9002,230.8543,373.244,236.5105,373.3285,227.372,369.656" style="stroke:#A80036;stroke-width:1.0;"/><text fill="#000000" font-family="sans-serif" font-size="13" lengthAdjust="spacingAndGlyphs" textLength="131" x="321" y="438.0669">businessTransaction</text><!--MD5=[c7c8ae5b8a571fd82fe994cfffe2e7e1]
link ObjectEvent to Epc--><path codeLine="84" d="M1222.17,728.78 C1220.74,769.946 1211.85,843.913 1169,886 C1099.53,954.233 787.233,978.2 685.295,984.284 " fill="none" id="ObjectEvent-to-Epc" style="stroke:#A80036;stroke-width:1.0;"/><polygon fill="#A80036" points="680.028,984.594,689.2468,988.06,685.0194,984.3011,688.7783,980.0737,680.028,984.594" style="stroke:#A80036;stroke-width:1.0;"/><text fill="#000000" font-family="sans-serif" font-size="13" lengthAdjust="spacingAndGlyphs" textLength="23" x="1211" y="853.5669">epc</text><!--MD5=[90c79ce124cdd3621d8ca74e61e41491]
link AggregationEvent to Epc--><path codeLine="86" d="M944.047,879.555 C903.54,895.749 852.152,915.937 806,933 C764.454,948.36 716.087,964.891 685.037,975.332 " fill="none" id="AggregationEvent-to-Epc" style="stroke:#A80036;stroke-width:1.0;"/><polygon fill="#A80036" points="680.205,976.954,690.0101,977.8814,684.945,975.3626,687.4638,970.2975,680.205,976.954" style="stroke:#A80036;stroke-width:1.0;"/><text fill="#000000" font-family="sans-serif" font-size="13" lengthAdjust="spacingAndGlyphs" textLength="52" x="848" y="929.0669">childEpc</text><!--MD5=[90c79ce124cdd3621d8ca74e61e41491]
link AggregationEvent to Epc--><path codeLine="87" d="M986.421,879.59 C966.047,897.677 937.807,919.799 909,933 C833.559,967.571 735.295,979.795 685.291,983.959 " fill="none" id="AggregationEvent-to-Epc-1" style="stroke:#A80036;stroke-width:1.0;"/><polygon fill="#A80036" points="680.02,984.382,689.3121,987.6466,685.0039,983.9806,688.6698,979.6724,680.02,984.382" style="stroke:#A80036;stroke-width:1.0;"/><text fill="#000000" font-family="sans-serif" font-size="13" lengthAdjust="spacingAndGlyphs" textLength="42" x="940" y="929.0669">parent</text><!--MD5=[68bb2a6e1e7f4e2c2bc8bd6f721d2336]
link TransactionEvent to Quantity--><path codeLine="88" d="M130.376,728.618 C126.723,745.82 125.774,766.989 137,782 C152.848,803.191 210.777,819.932 263.751,831.251 " fill="none" id="TransactionEvent-to-Quantity" style="stroke:#A80036;stroke-width:1.0;"/><polygon fill="#A80036" points="268.861,832.329,260.8812,826.5564,263.9688,831.2963,259.2289,834.3839,268.861,832.329" style="stroke:#A80036;stroke-width:1.0;"/><text fill="#000000" font-family="sans-serif" font-size="13" lengthAdjust="spacingAndGlyphs" textLength="84" x="138" y="778.0669">childQuantity</text><!--MD5=[68bb2a6e1e7f4e2c2bc8bd6f721d2336]
link TransactionEvent to Quantity--><path codeLine="92" d="M183.827,728.588 C207.305,744.436 236.726,764.288 263,782 C275.913,790.705 289.785,800.051 302.913,808.893 " fill="none" id="TransactionEvent-to-Quantity-1" style="stroke:#A80036;stroke-width:1.0;"/><polygon fill="#A80036" points="307.334,811.87,302.1033,803.525,303.1868,809.0771,297.6346,810.1605,307.334,811.87" style="stroke:#A80036;stroke-width:1.0;"/><text fill="#000000" font-family="sans-serif" font-size="13" lengthAdjust="spacingAndGlyphs" textLength="53" x="264" y="778.0669">quantity</text><!--MD5=[c54e6c2c9a17d05775a6b9df530a35b2]
link TransactionEvent to Epc--><path codeLine="90" d="M125.143,728.582 C119.073,744.784 114.947,764.972 122,782 C147.015,842.392 168.878,854.219 226,886 C359.684,960.378 546.561,979.604 620.779,984.434 " fill="none" id="TransactionEvent-to-Epc" style="stroke:#A80036;stroke-width:1.0;"/><polygon fill="#A80036" points="625.926,984.757,617.1939,980.2017,620.9358,984.4441,616.6933,988.186,625.926,984.757" style="stroke:#A80036;stroke-width:1.0;"/><text fill="#000000" font-family="sans-serif" font-size="13" lengthAdjust="spacingAndGlyphs" textLength="23" x="227" y="853.5669">epc</text><!--MD5=[c54e6c2c9a17d05775a6b9df530a35b2]
link TransactionEvent to Epc--><path codeLine="91" d="M116.416,728.689 C87.8968,768.423 48.0412,839.295 85,886 C152.126,970.827 510.57,983.699 620.754,985.651 " fill="none" id="TransactionEvent-to-Epc-1" style="stroke:#A80036;stroke-width:1.0;"/><polygon fill="#A80036" points="625.811,985.736,616.8797,981.5848,620.8117,985.6517,616.7448,989.5837,625.811,985.736" style="stroke:#A80036;stroke-width:1.0;"/><text fill="#000000" font-family="sans-serif" font-size="13" lengthAdjust="spacingAndGlyphs" textLength="42" x="86" y="853.5669">parent</text><!--MD5=[8bbf548eb42d5f75fef966a88deaa0c7]
link TransformationEvent to Epc--><path codeLine="94" d="M624.713,735.123 C627.045,744.774 629.339,755.237 631,765 C642.691,833.713 648.841,915.58 651.446,957.762 " fill="none" id="TransformationEvent-to-Epc" style="stroke:#A80036;stroke-width:1.0;"/><polygon fill="#A80036" points="651.761,962.953,655.2086,953.7273,651.4582,957.9622,647.2233,954.2118,651.761,962.953" style="stroke:#A80036;stroke-width:1.0;"/><text fill="#000000" font-family="sans-serif" font-size="13" lengthAdjust="spacingAndGlyphs" textLength="55" x="647" y="853.5669">inputEpc</text><!--MD5=[8bbf548eb42d5f75fef966a88deaa0c7]
link TransformationEvent to Epc--><path codeLine="95" d="M657.47,735.24 C677.858,755.476 700.169,782.522 711,812 C722.343,842.871 719.544,854.24 711,886 C703.826,912.667 687.609,939.556 674.142,958.725 " fill="none" id="TransformationEvent-to-Epc-1" style="stroke:#A80036;stroke-width:1.0;"/><polygon fill="#A80036" points="671.138,962.939,679.6198,957.933,674.0407,958.8678,673.1059,953.2887,671.138,962.939" style="stroke:#A80036;stroke-width:1.0;"/><text fill="#000000" font-family="sans-serif" font-size="13" lengthAdjust="spacingAndGlyphs" textLength="65" x="720" y="853.5669">outputEpc</text><!--MD5=[8bbf548eb42d5f75fef966a88deaa0c7]
link TransformationEvent to Epc--><path codeLine="96" d="M603.641,735.221 C597.354,757.187 590.183,785.919 587,812 C583.016,844.647 577.542,854.5 587,886 C595.175,913.227 613.431,939.883 628.675,958.818 " fill="none" id="TransformationEvent-to-Epc-2" style="stroke:#A80036;stroke-width:1.0;"/><polygon fill="#A80036" points="632.076,962.979,629.4736,953.4802,628.9102,959.1089,623.2815,958.5455,632.076,962.979" style="stroke:#A80036;stroke-width:1.0;"/><text fill="#000000" font-family="sans-serif" font-size="13" lengthAdjust="spacingAndGlyphs" textLength="42" x="588" y="853.5669">parent</text><!--MD5=[b8ea36e3d6c90d3167ead422588f8fc3]
link TransformationEvent to Quantity--><path codeLine="97" d="M481.765,717.962 C427.745,728.626 374.234,744.07 358,765 C349.027,776.568 347.644,792.016 349.241,806.446 " fill="none" id="TransformationEvent-to-Quantity" style="stroke:#A80036;stroke-width:1.0;"/><polygon fill="#A80036" points="349.956,811.708,352.7057,802.2508,349.2817,806.7537,344.7788,803.3296,349.956,811.708" style="stroke:#A80036;stroke-width:1.0;"/><text fill="#000000" font-family="sans-serif" font-size="13" lengthAdjust="spacingAndGlyphs" textLength="87" x="359" y="778.0669">inputQuantity</text><!--MD5=[b8ea36e3d6c90d3167ead422588f8fc3]
link TransformationEvent to Quantity--><path codeLine="98" d="M541.841,735.024 C523.714,744.412 504.481,754.775 487,765 C463.683,778.639 438.705,794.759 417.188,809.147 " fill="none" id="TransformationEvent-to-Quantity-1" style="stroke:#A80036;stroke-width:1.0;"/><polygon fill="#A80036" points="412.933,812,422.6359,810.3105,417.086,809.2156,418.1809,803.6657,412.933,812" style="stroke:#A80036;stroke-width:1.0;"/><text fill="#000000" font-family="sans-serif" font-size="13" lengthAdjust="spacingAndGlyphs" textLength="97" x="488" y="778.0669">outputQuantity</text><!--MD5=[573395e7f0a2b3367f835a6e362844c9]
link Quantity to Epc--><path codeLine="100" d="M409.557,886.147 C432.499,902.05 460.776,920.022 488,933 C532.265,954.101 587.047,969.817 621.012,978.451 " fill="none" id="Quantity-to-Epc" style="stroke:#A80036;stroke-width:1.0;"/><polygon fill="#A80036" points="625.869,979.673,618.1171,973.5978,621.0201,978.4529,616.165,981.356,625.869,979.673" style="stroke:#A80036;stroke-width:1.0;"/><text fill="#000000" font-family="sans-serif" font-size="13" lengthAdjust="spacingAndGlyphs" textLength="23" x="489" y="929.0669">epc</text><!--MD5=[722767bba47211c7dc4f375a965f0858]
reverse link Event to ObjectEvent--><path codeLine="102" d="M839.257,581.898 C877.62,598.952 921.206,617.035 962,631 C1007.27,646.498 1058.09,660.188 1102.7,671.024 " fill="none" id="Event-backto-ObjectEvent" style="stroke:#A80036;stroke-width:1.0;"/><polygon fill="#A80036" points="834.605,579.823,841.195,587.1423,839.1713,581.8598,844.4538,579.8361,834.605,579.823" style="stroke:#A80036;stroke-width:1.0;"/><text fill="#000000" font-family="sans-serif" font-size="13" lengthAdjust="spacingAndGlyphs" textLength="102" x="963" y="627.0669">rdfs:subClassOf</text><!--MD5=[323e36fd78ca97673bf8b7bff0902f30]
reverse link Event to AggregationEvent--><path codeLine="103" d="M781.662,588.233 C843.537,656.53 942.79,766.087 990.159,818.372 " fill="none" id="Event-backto-AggregationEvent" style="stroke:#A80036;stroke-width:1.0;"/><polygon fill="#A80036" points="778.01,584.201,781.0881,593.5565,781.367,587.9065,787.0169,588.1854,778.01,584.201" style="stroke:#A80036;stroke-width:1.0;"/><text fill="#000000" font-family="sans-serif" font-size="13" lengthAdjust="spacingAndGlyphs" textLength="102" x="912" y="702.5669">rdfs:subClassOf</text><!--MD5=[8611153319e7a5ca85d6b0f8e3fee6d0]
reverse link Event to TransactionEvent--><path codeLine="104" d="M616.107,560.969 C508.784,591.633 348.05,637.557 243.592,667.402 " fill="none" id="Event-backto-TransactionEvent" style="stroke:#A80036;stroke-width:1.0;"/><polygon fill="#A80036" points="621.177,559.521,611.4242,558.1489,616.3696,560.8954,613.6232,565.8408,621.177,559.521" style="stroke:#A80036;stroke-width:1.0;"/><text fill="#000000" font-family="sans-serif" font-size="13" lengthAdjust="spacingAndGlyphs" textLength="102" x="418" y="627.0669">rdfs:subClassOf</text><!--MD5=[765b9449db2d99b5c898aa16208e6b98]
reverse link Event to TransformationEvent--><path codeLine="105" d="M688.189,588.188 C671.869,612.452 653.508,639.75 639.259,660.934 " fill="none" id="Event-backto-TransformationEvent" style="stroke:#A80036;stroke-width:1.0;"/><polygon fill="#A80036" points="691,584.009,682.6583,589.245,688.2097,588.158,689.2967,593.7094,691,584.009" style="stroke:#A80036;stroke-width:1.0;"/><text fill="#000000" font-family="sans-serif" font-size="13" lengthAdjust="spacingAndGlyphs" textLength="102" x="670" y="627.0669">rdfs:subClassOf</text><!--MD5=[f0af7d1736ade564ad1759d92d60c78d]
link Producer to Supplier--><path codeLine="155" d="M649.992,68.34 C663.132,83.49 680.314,101.5 698,115 C711.164,125.05 726.262,134.33 741.02,142.43 " fill="none" id="Producer-to-Supplier" style="stroke:#A80036;stroke-width:1.0;"/><polygon fill="#A80036" points="745.587,144.9,739.5759,137.0983,741.1897,142.5201,735.768,144.1339,745.587,144.9" style="stroke:#A80036;stroke-width:1.0;"/><text fill="#000000" font-family="sans-serif" font-size="13" lengthAdjust="spacingAndGlyphs" textLength="102" x="699" y="111.0669">rdfs:subClassOf</text><!--MD5=[3f6742f352006f17932a29b665ee2b65]
link Manufacturer to Supplier--><path codeLine="156" d="M810,68.01 C810,88.98 810,117.24 810,139.38 " fill="none" id="Manufacturer-to-Supplier" style="stroke:#A80036;stroke-width:1.0;"/><polygon fill="#A80036" points="810,144.58,814,135.58,810,139.58,806,135.58,810,144.58" style="stroke:#A80036;stroke-width:1.0;"/><text fill="#000000" font-family="sans-serif" font-size="13" lengthAdjust="spacingAndGlyphs" textLength="102" x="811" y="111.0669">rdfs:subClassOf</text><!--MD5=[0f3640f20e756addf9b4a83a4c863d00]
link FoodProcessor to Supplier--><path codeLine="157" d="M979.237,68.31 C962.953,83.28 942.189,101.13 922,115 C907.774,124.77 891.758,134.14 876.383,142.43 " fill="none" id="FoodProcessor-to-Supplier" style="stroke:#A80036;stroke-width:1.0;"/><polygon fill="#A80036" points="871.635,144.97,881.4582,144.2592,876.0456,142.6148,877.6899,137.2022,871.635,144.97" style="stroke:#A80036;stroke-width:1.0;"/><text fill="#000000" font-family="sans-serif" font-size="13" lengthAdjust="spacingAndGlyphs" textLength="102" x="944" y="111.0669">rdfs:subClassOf</text><!--MD5=[165cd1c8b08b39709e1d192ae10709eb]
link Supplier to Organization--><path codeLine="158" d="M750.193,206.177 C720.984,220.534 685.263,237.889 653,253 C619.617,268.636 582.68,285.371 550.382,299.822 " fill="none" id="Supplier-to-Organization" style="stroke:#A80036;stroke-width:1.0;"/><polygon fill="#A80036" points="545.651,301.937,555.4998,301.9139,550.2153,299.8956,552.2336,294.611,545.651,301.937" style="stroke:#A80036;stroke-width:1.0;"/><text fill="#000000" font-family="sans-serif" font-size="13" lengthAdjust="spacingAndGlyphs" textLength="102" x="689" y="249.0669">rdfs:subClassOf</text><!--MD5=[300439157f3b6ed315d0e4e61de5f744]
link Retailer to Organization--><path codeLine="159" d="M194.682,206.146 C218.622,220.9 248.468,238.609 276,253 C307.467,269.448 342.752,285.903 374.181,299.893 " fill="none" id="Retailer-to-Organization" style="stroke:#A80036;stroke-width:1.0;"/><polygon fill="#A80036" points="378.789,301.939,372.1859,294.6316,374.219,299.9104,368.9401,301.9436,378.789,301.939" style="stroke:#A80036;stroke-width:1.0;"/><text fill="#000000" font-family="sans-serif" font-size="13" lengthAdjust="spacingAndGlyphs" textLength="102" x="277" y="249.0669">rdfs:subClassOf</text><!--MD5=[7c610fdc5535ca88db907a2abf0c2822]
link CertificationBody to Organization--><path codeLine="160" d="M363.56,206.122 C383.126,231.812 411.626,269.233 433.273,297.656 " fill="none" id="CertificationBody-to-Organization" style="stroke:#A80036;stroke-width:1.0;"/><polygon fill="#A80036" points="436.416,301.781,434.1436,292.1979,433.3859,297.8037,427.78,297.046,436.416,301.781" style="stroke:#A80036;stroke-width:1.0;"/><text fill="#000000" font-family="sans-serif" font-size="13" lengthAdjust="spacingAndGlyphs" textLength="102" x="400" y="249.0669">rdfs:subClassOf</text><!--MD5=[70a49817686748ad9887cd6b87dff060]
link CertificationSchemaOwner to Organization--><path codeLine="161" d="M565.256,206.122 C545.531,231.812 516.8,269.233 494.976,297.656 " fill="none" id="CertificationSchemaOwner-to-Organization" style="stroke:#A80036;stroke-width:1.0;"/><polygon fill="#A80036" points="491.809,301.781,500.4622,297.0776,494.8536,297.8149,494.1164,292.2062,491.809,301.781" style="stroke:#A80036;stroke-width:1.0;"/><text fill="#000000" font-family="sans-serif" font-size="13" lengthAdjust="spacingAndGlyphs" textLength="102" x="542" y="249.0669">rdfs:subClassOf</text><!--MD5=[11191981bfe4403fecd3c0806107bb39]
link Incident to ObjectEvent--><path codeLine="163" d="M1027.37,558.622 C1042.87,580.645 1066.23,610.336 1092,631 C1108.2,643.991 1127.37,655.434 1145.94,664.987 " fill="none" id="Incident-to-ObjectEvent" style="stroke:#A80036;stroke-width:1.0;"/><polygon fill="#A80036" points="1150.65,667.375,1144.427,659.7412,1146.1891,665.1167,1140.8137,666.8787,1150.65,667.375" style="stroke:#A80036;stroke-width:1.0;"/><text fill="#000000" font-family="sans-serif" font-size="13" lengthAdjust="spacingAndGlyphs" textLength="102" x="1093" y="627.0669">rdfs:subClassOf</text><!--MD5=[95898cd83b4428f0fc39ade80ebc471a]
link Inspection to ObjectEvent--><path codeLine="164" d="M1189.06,558.648 C1195.95,587.588 1206.43,631.613 1213.71,662.198 " fill="none" id="Inspection-to-ObjectEvent" style="stroke:#A80036;stroke-width:1.0;"/><polygon fill="#A80036" points="1214.94,667.366,1216.7518,657.6852,1213.7845,662.5014,1208.9683,659.5341,1214.94,667.366" style="stroke:#A80036;stroke-width:1.0;"/><text fill="#000000" font-family="sans-serif" font-size="13" lengthAdjust="spacingAndGlyphs" textLength="102" x="1207" y="627.0669">rdfs:subClassOf</text><!--MD5=[3d6b9cd0f25a5bada1beba985c7518e5]
link LabTest to ObjectEvent--><path codeLine="165" d="M1349.68,558.6 C1343.93,580.331 1333.72,609.656 1317,631 C1307.01,643.752 1293.89,655.021 1280.6,664.474 " fill="none" id="LabTest-to-ObjectEvent" style="stroke:#A80036;stroke-width:1.0;"/><polygon fill="#A80036" points="1276.47,667.349,1286.1415,665.4883,1280.5731,664.4917,1281.5698,658.9233,1276.47,667.349" style="stroke:#A80036;stroke-width:1.0;"/><text fill="#000000" font-family="sans-serif" font-size="13" lengthAdjust="spacingAndGlyphs" textLength="102" x="1328" y="627.0669">rdfs:subClassOf</text><!--MD5=[4738289aa313813addddf15c51b9a678]
link Audit to ObjectEvent--><path codeLine="166" d="M1499.84,558.573 C1486.67,581.467 1465.55,612.327 1439,631 C1411.56,650.296 1378.35,664.058 1346.25,673.833 " fill="none" id="Audit-to-ObjectEvent" style="stroke:#A80036;stroke-width:1.0;"/><polygon fill="#A80036" points="1341.11,675.368,1350.8777,676.6297,1345.9016,673.9394,1348.5919,668.9632,1341.11,675.368" style="stroke:#A80036;stroke-width:1.0;"/><text fill="#000000" font-family="sans-serif" font-size="13" lengthAdjust="spacingAndGlyphs" textLength="102" x="1459" y="627.0669">rdfs:subClassOf</text><!--MD5=[28cc7ae6e8c5d2fbc8ccc7e4f310c243]
link CertificateGrant to ObjectEvent--><path codeLine="167" d="M1668.56,558.787 C1644.52,582.122 1608.01,613.475 1570,631 C1499.93,663.31 1414.94,679.803 1346.49,688.222 " fill="none" id="CertificateGrant-to-ObjectEvent" style="stroke:#A80036;stroke-width:1.0;"/><polygon fill="#A80036" points="1341.18,688.863,1350.5949,691.7542,1346.1439,688.263,1349.635,683.812,1341.18,688.863" style="stroke:#A80036;stroke-width:1.0;"/><text fill="#000000" font-family="sans-serif" font-size="13" lengthAdjust="spacingAndGlyphs" textLength="102" x="1599" y="627.0669">rdfs:subClassOf</text><!--MD5=[63f309b2edc43be29e025c5e05f9a3e7]
reverse link Epc to Product--><path codeLine="169" d="M621.404,1003.907 C607.179,1012.793 591.664,1025.27 583,1041 C575.256,1055.06 572.912,1072.5317 572.74,1087.8131 " fill="none" id="Epc-backto-Product" style="stroke:#A80036;stroke-width:1.0;"/><polygon fill="#A80036" points="625.768,1001.264,615.9975,1002.5042,621.491,1003.8539,620.1414,1009.3474,625.768,1001.264" style="stroke:#A80036;stroke-width:1.0;"/><text fill="#000000" font-family="sans-serif" font-size="13" lengthAdjust="spacingAndGlyphs" textLength="102" x="584" y="1054.0669">rdfs:subClassOf</text><!--MD5=[e2a1e7485ea83a941d51c55c8711faee]
reverse link Epc to Result--><path codeLine="170" d="M674.151,1015.484 C679.926,1023.51 685.972,1032.431 691,1041 C702.442,1060.499 713.19,1083.9036 720.493,1100.8816 " fill="none" id="Epc-backto-Result" style="stroke:#A80036;stroke-width:1.0;"/><polygon fill="#A80036" points="670.979,1011.125,673.0394,1020.7559,673.9206,1015.1681,679.5084,1016.0493,670.979,1011.125" style="stroke:#A80036;stroke-width:1.0;"/><text fill="#000000" font-family="sans-serif" font-size="13" lengthAdjust="spacingAndGlyphs" textLength="102" x="701" y="1054.0669">rdfs:subClassOf</text><!--MD5=[d0bfb743e10883004af62c84c37fa1b4]
@startuml
class Event {
    a                       gs1-epcis:Event 
    eventTime               xsd:dateTime
    recordTime              xsd:dateTime
    eventTimeZoneOffset     string
    eventID                 string
}

class ObjectEvent {
    a                       gs1-epcis:ObjectEvent
} 

class AggregationEvent {
    a                       gs1-epcis:AggregationEvent
} 

class TransactionEvent {
    a                       gs1-epcis:TransactionEvent
}

class TransformationEvent {
    a                       gs1-epcis:TransactionEvent
    transformationID        string
}

class Product {
    a   gs1:Epc
    https://www.gs1.org/voc/Epc
}

class Organization {
    a gs1:Organization
    https://www.gs1.org/voc/Organization
}

class Transaction {
    transactionType         TransactionType
}

class Place {
    a                       gs1:Place
    https://gs1.org/voc/Place
}

class BusinessStep {
    a skos:Concept
    skos:conceptScheme      <taxonomy/business_step>
    skos:prefLabel          string
    skos:description        string
    fsm:example             string
}

class Disposition {
    a skos:Concept
    skos:conceptScheme      <taxonomy/disposition>
    skos:prefLabel          string
    skos:description        string
    fsm:example             string
}

class ActionType {
    a skos:Concept
    skos:conceptScheme      <taxonomy/action_type>
    skos:prefLabel          string
    skos:description        string
    fsm:example             string
}

class Quantity {
    quantity                xsd:double
    uom                     string
}


Event -up-> ActionType : action
Event -up-> BusinessStep : businessStep
Event -up-> Disposition : disposition
Event -up-> Place : readPoint
Event -up-> Place : businessLocation
Event -up->  Organization : source                  
Event -up->  Organization : destination
Event -up->  Transaction : businessTransaction

ObjectEvent - ->  Epc : epc

AggregationEvent - ->  Epc : childEpc
AggregationEvent - ->  Epc : parent
TransactionEvent - ->  Quantity : childQuantity

TransactionEvent - ->  Epc : epc
TransactionEvent - ->  Epc : parent
TransactionEvent - ->  Quantity : quantity

TransformationEvent - ->  Epc : inputEpc
TransformationEvent - ->  Epc : outputEpc
TransformationEvent - ->  Epc : parent
TransformationEvent - ->  Quantity : inputQuantity
TransformationEvent - ->  Quantity : outputQuantity

Quantity - -> Epc : epc

ObjectEvent -up-> Event : rdfs:subClassOf
AggregationEvent -up-> Event : rdfs:subClassOf
TransactionEvent -up-> Event : rdfs:subClassOf
TransformationEvent -up-> Event : rdfs:subClassOf

class Retailer {
    a           fsm:Retailer
}

class Producer {
    a           fsm:Producer
}

class Manufacturer {
    a           fsm:Manufacturer
}

class FoodProcessor {
    a           fsm:FoodProcessor
}

class CertificationBody {
    a           fsm:CertificationBody
}

class CertificationSchemaOwner {
    a           fsm:CertificationSchemaOwner
}

class Supplier {
    a           fsm:Supplier
}

class Incident {
    a           fsm:Incident
}

class Inspection {
    a           fsm:Inspection
}

class LabTest {
    a           fsm:LabTest
}

class Audit {
    a           fsm:Audit
}

class CertificateGrant {
    a           fsm:CertificateGrant
}

Producer - -> Supplier : rdfs:subClassOf
Manufacturer - -> Supplier : rdfs:subClassOf
FoodProcessor - -> Supplier : rdfs:subClassOf
Supplier - -> Organization : rdfs:subClassOf
Retailer - -> Organization : rdfs:subClassOf
CertificationBody - -> Organization : rdfs:subClassOf
CertificationSchemaOwner - -> Organization : rdfs:subClassOf

Incident - -> ObjectEvent : rdfs:subClassOf
Inspection - -> ObjectEvent : rdfs:subClassOf
LabTest - -> ObjectEvent : rdfs:subClassOf
Audit - -> ObjectEvent : rdfs:subClassOf
CertificateGrant - -> ObjectEvent : rdfs:subClassOf

Product -up-> Epc : rdfs:subClassOf
Result -up-> Epc : rdfs:subClassOf
@enduml

PlantUML version 1.2020.21(Mon Nov 30 16:40:11 UTC 2020)
(GPL source distribution)
Java Runtime: Java(TM) SE Runtime Environment
JVM: Java HotSpot(TM) 64-Bit Server VM
Default Encoding: UTF-8
Language: en
Country: US
--></g></svg>