<?xml version="1.0" encoding="UTF-8" standalone="no"?><svg xmlns="http://www.w3.org/2000/svg" xmlns:xlink="http://www.w3.org/1999/xlink" contentScriptType="application/ecmascript" contentStyleType="text/css" height="1147px" preserveAspectRatio="none" style="width:1759px;height:1147px;" version="1.1" viewBox="0 0 1759 1147" width="1759px" zoomAndPan="magnify"><defs><filter height="300%" id="f1rnj80m418pfh" width="300%" x="-1" y="-1"><feGaussianBlur result="blurOut" stdDeviation="2.0"/><feColorMatrix in="blurOut" result="blurOut2" type="matrix" values="0 0 0 0 0 0 0 0 0 0 0 0 0 0 0 0 0 0 .4 0"/><feOffset dx="4.0" dy="4.0" in="blurOut2" result="blurOut3"/><feBlend in="SourceGraphic" in2="blurOut3" mode="normal"/></filter></defs><g><!--MD5=[bd5a73c720085acb3ac4f762744d45ff]
class Broiler--><rect codeLine="1" fill="#FEFECE" filter="url(#f1rnj80m418pfh)" height="99.2188" id="Broiler" style="stroke:#A80036;stroke-width:1.5;" width="194" x="346.5" y="540"/><ellipse cx="419.25" cy="556" fill="#ADD1B2" rx="11" ry="11" style="stroke:#A80036;stroke-width:1.0;"/><path d="M421.5938,551.6719 C420.6563,551.2344 420.0625,551.0938 419.1875,551.0938 C416.5625,551.0938 414.5625,553.1719 414.5625,555.8906 L414.5625,557.0156 C414.5625,559.5938 416.6719,561.4844 419.5625,561.4844 C420.7813,561.4844 421.9375,561.1875 422.6875,560.6406 C423.2656,560.2344 423.5938,559.7813 423.5938,559.3906 C423.5938,558.9375 423.2031,558.5469 422.7344,558.5469 C422.5156,558.5469 422.3125,558.625 422.125,558.8125 C421.6719,559.2969 421.6719,559.2969 421.4844,559.3906 C421.0625,559.6563 420.375,559.7813 419.6094,559.7813 C417.5625,559.7813 416.2656,558.6875 416.2656,556.9844 L416.2656,555.8906 C416.2656,554.1094 417.5156,552.7969 419.25,552.7969 C419.8281,552.7969 420.4375,552.9531 420.9063,553.2031 C421.3906,553.4844 421.5625,553.7031 421.6563,554.1094 C421.7188,554.5156 421.75,554.6406 421.8906,554.7656 C422.0313,554.9063 422.2656,555.0156 422.4844,555.0156 C422.75,555.0156 423.0156,554.875 423.1875,554.6563 C423.2969,554.5 423.3281,554.3125 423.3281,553.8906 L423.3281,552.4688 C423.3281,552.0313 423.3125,551.9063 423.2188,551.75 C423.0625,551.4844 422.7813,551.3438 422.4844,551.3438 C422.1875,551.3438 421.9844,551.4375 421.7656,551.75 L421.5938,551.6719 Z " fill="#000000"/><text fill="#000000" font-family="sans-serif" font-size="12" lengthAdjust="spacingAndGlyphs" textLength="40" x="439.75" y="560.1543">Broiler</text><line style="stroke:#A80036;stroke-width:1.5;" x1="347.5" x2="539.5" y1="572" y2="572"/><text fill="#000000" font-family="sans-serif" font-size="11" lengthAdjust="spacingAndGlyphs" textLength="126" x="352.5" y="586.2104">"gtin/1111111111111"</text><text fill="#000000" font-family="sans-serif" font-size="11" lengthAdjust="spacingAndGlyphs" textLength="163" x="352.5" y="599.0151">a                       gs1:Product</text><text fill="#000000" font-family="sans-serif" font-size="11" lengthAdjust="spacingAndGlyphs" textLength="182" x="352.5" y="611.8198">gs1:productName         "Broiler"</text><text fill="#000000" font-family="sans-serif" font-size="11" lengthAdjust="spacingAndGlyphs" textLength="166" x="352.5" y="624.6245">gs1:hasBatchLotNumber   "1"</text><line style="stroke:#A80036;stroke-width:1.5;" x1="347.5" x2="539.5" y1="631.2188" y2="631.2188"/><!--MD5=[04214c2c8ce5dcf344e4d665dff9fae0]
class Broiler2--><rect codeLine="8" fill="#FEFECE" filter="url(#f1rnj80m418pfh)" height="99.2188" id="Broiler2" style="stroke:#A80036;stroke-width:1.5;" width="194" x="544.5" y="209"/><ellipse cx="613.25" cy="225" fill="#ADD1B2" rx="11" ry="11" style="stroke:#A80036;stroke-width:1.0;"/><path d="M615.5938,220.6719 C614.6563,220.2344 614.0625,220.0938 613.1875,220.0938 C610.5625,220.0938 608.5625,222.1719 608.5625,224.8906 L608.5625,226.0156 C608.5625,228.5938 610.6719,230.4844 613.5625,230.4844 C614.7813,230.4844 615.9375,230.1875 616.6875,229.6406 C617.2656,229.2344 617.5938,228.7813 617.5938,228.3906 C617.5938,227.9375 617.2031,227.5469 616.7344,227.5469 C616.5156,227.5469 616.3125,227.625 616.125,227.8125 C615.6719,228.2969 615.6719,228.2969 615.4844,228.3906 C615.0625,228.6563 614.375,228.7813 613.6094,228.7813 C611.5625,228.7813 610.2656,227.6875 610.2656,225.9844 L610.2656,224.8906 C610.2656,223.1094 611.5156,221.7969 613.25,221.7969 C613.8281,221.7969 614.4375,221.9531 614.9063,222.2031 C615.3906,222.4844 615.5625,222.7031 615.6563,223.1094 C615.7188,223.5156 615.75,223.6406 615.8906,223.7656 C616.0313,223.9063 616.2656,224.0156 616.4844,224.0156 C616.75,224.0156 617.0156,223.875 617.1875,223.6563 C617.2969,223.5 617.3281,223.3125 617.3281,222.8906 L617.3281,221.4688 C617.3281,221.0313 617.3125,220.9063 617.2188,220.75 C617.0625,220.4844 616.7813,220.3438 616.4844,220.3438 C616.1875,220.3438 615.9844,220.4375 615.7656,220.75 L615.5938,220.6719 Z " fill="#000000"/><text fill="#000000" font-family="sans-serif" font-size="12" lengthAdjust="spacingAndGlyphs" textLength="48" x="633.75" y="229.1543">Broiler2</text><line style="stroke:#A80036;stroke-width:1.5;" x1="545.5" x2="737.5" y1="241" y2="241"/><text fill="#000000" font-family="sans-serif" font-size="11" lengthAdjust="spacingAndGlyphs" textLength="155" x="550.5" y="255.2104">"gtin/1111111111111/lot/1"</text><text fill="#000000" font-family="sans-serif" font-size="11" lengthAdjust="spacingAndGlyphs" textLength="155" x="550.5" y="268.0151">a                       fsm:Batch</text><text fill="#000000" font-family="sans-serif" font-size="11" lengthAdjust="spacingAndGlyphs" textLength="182" x="550.5" y="280.8198">gs1:productName         "Broiler"</text><text fill="#000000" font-family="sans-serif" font-size="11" lengthAdjust="spacingAndGlyphs" textLength="166" x="550.5" y="293.6245">gs1:hasBatchLotNumber   "1"</text><line style="stroke:#A80036;stroke-width:1.5;" x1="545.5" x2="737.5" y1="300.2188" y2="300.2188"/><!--MD5=[a7f7cbd32a26abba5bd9709ae1350fd6]
class BroilerMeat--><rect codeLine="16" fill="#FEFECE" filter="url(#f1rnj80m418pfh)" height="73.6094" id="BroilerMeat" style="stroke:#A80036;stroke-width:1.5;" width="212" x="1067.5" y="221.5"/><ellipse cx="1134.75" cy="237.5" fill="#ADD1B2" rx="11" ry="11" style="stroke:#A80036;stroke-width:1.0;"/><path d="M1137.0938,233.1719 C1136.1563,232.7344 1135.5625,232.5938 1134.6875,232.5938 C1132.0625,232.5938 1130.0625,234.6719 1130.0625,237.3906 L1130.0625,238.5156 C1130.0625,241.0938 1132.1719,242.9844 1135.0625,242.9844 C1136.2813,242.9844 1137.4375,242.6875 1138.1875,242.1406 C1138.7656,241.7344 1139.0938,241.2813 1139.0938,240.8906 C1139.0938,240.4375 1138.7031,240.0469 1138.2344,240.0469 C1138.0156,240.0469 1137.8125,240.125 1137.625,240.3125 C1137.1719,240.7969 1137.1719,240.7969 1136.9844,240.8906 C1136.5625,241.1563 1135.875,241.2813 1135.1094,241.2813 C1133.0625,241.2813 1131.7656,240.1875 1131.7656,238.4844 L1131.7656,237.3906 C1131.7656,235.6094 1133.0156,234.2969 1134.75,234.2969 C1135.3281,234.2969 1135.9375,234.4531 1136.4063,234.7031 C1136.8906,234.9844 1137.0625,235.2031 1137.1563,235.6094 C1137.2188,236.0156 1137.25,236.1406 1137.3906,236.2656 C1137.5313,236.4063 1137.7656,236.5156 1137.9844,236.5156 C1138.25,236.5156 1138.5156,236.375 1138.6875,236.1563 C1138.7969,236 1138.8281,235.8125 1138.8281,235.3906 L1138.8281,233.9688 C1138.8281,233.5313 1138.8125,233.4063 1138.7188,233.25 C1138.5625,232.9844 1138.2813,232.8438 1137.9844,232.8438 C1137.6875,232.8438 1137.4844,232.9375 1137.2656,233.25 L1137.0938,233.1719 Z " fill="#000000"/><text fill="#000000" font-family="sans-serif" font-size="12" lengthAdjust="spacingAndGlyphs" textLength="69" x="1155.25" y="241.6543">BroilerMeat</text><line style="stroke:#A80036;stroke-width:1.5;" x1="1068.5" x2="1278.5" y1="253.5" y2="253.5"/><text fill="#000000" font-family="sans-serif" font-size="11" lengthAdjust="spacingAndGlyphs" textLength="147" x="1073.5" y="267.7104">a                   gs1:Product</text><text fill="#000000" font-family="sans-serif" font-size="11" lengthAdjust="spacingAndGlyphs" textLength="200" x="1073.5" y="280.5151">gs1:productName     "Broiler meat"</text><line style="stroke:#A80036;stroke-width:1.5;" x1="1068.5" x2="1278.5" y1="287.1094" y2="287.1094"/><!--MD5=[0d5ec346fcdd5df22c8e315b51e72221]
class BroilerPackagedMeat--><rect codeLine="21" fill="#FEFECE" filter="url(#f1rnj80m418pfh)" height="73.6094" id="BroilerPackagedMeat" style="stroke:#A80036;stroke-width:1.5;" width="271" x="1315" y="221.5"/><ellipse cx="1382.75" cy="237.5" fill="#ADD1B2" rx="11" ry="11" style="stroke:#A80036;stroke-width:1.0;"/><path d="M1385.0938,233.1719 C1384.1563,232.7344 1383.5625,232.5938 1382.6875,232.5938 C1380.0625,232.5938 1378.0625,234.6719 1378.0625,237.3906 L1378.0625,238.5156 C1378.0625,241.0938 1380.1719,242.9844 1383.0625,242.9844 C1384.2813,242.9844 1385.4375,242.6875 1386.1875,242.1406 C1386.7656,241.7344 1387.0938,241.2813 1387.0938,240.8906 C1387.0938,240.4375 1386.7031,240.0469 1386.2344,240.0469 C1386.0156,240.0469 1385.8125,240.125 1385.625,240.3125 C1385.1719,240.7969 1385.1719,240.7969 1384.9844,240.8906 C1384.5625,241.1563 1383.875,241.2813 1383.1094,241.2813 C1381.0625,241.2813 1379.7656,240.1875 1379.7656,238.4844 L1379.7656,237.3906 C1379.7656,235.6094 1381.0156,234.2969 1382.75,234.2969 C1383.3281,234.2969 1383.9375,234.4531 1384.4063,234.7031 C1384.8906,234.9844 1385.0625,235.2031 1385.1563,235.6094 C1385.2188,236.0156 1385.25,236.1406 1385.3906,236.2656 C1385.5313,236.4063 1385.7656,236.5156 1385.9844,236.5156 C1386.25,236.5156 1386.5156,236.375 1386.6875,236.1563 C1386.7969,236 1386.8281,235.8125 1386.8281,235.3906 L1386.8281,233.9688 C1386.8281,233.5313 1386.8125,233.4063 1386.7188,233.25 C1386.5625,232.9844 1386.2813,232.8438 1385.9844,232.8438 C1385.6875,232.8438 1385.4844,232.9375 1385.2656,233.25 L1385.0938,233.1719 Z " fill="#000000"/><text fill="#000000" font-family="sans-serif" font-size="12" lengthAdjust="spacingAndGlyphs" textLength="127" x="1403.25" y="241.6543">BroilerPackagedMeat</text><line style="stroke:#A80036;stroke-width:1.5;" x1="1316" x2="1585" y1="253.5" y2="253.5"/><text fill="#000000" font-family="sans-serif" font-size="11" lengthAdjust="spacingAndGlyphs" textLength="147" x="1321" y="267.7104">a                   gs1:Product</text><text fill="#000000" font-family="sans-serif" font-size="11" lengthAdjust="spacingAndGlyphs" textLength="259" x="1321" y="280.5151">gs1:productName     "Broiler packaged meat"</text><line style="stroke:#A80036;stroke-width:1.5;" x1="1316" x2="1585" y1="287.1094" y2="287.1094"/><!--MD5=[0936f1c8edbc1808cf661f561aa96558]
class BroilerFarm--><rect codeLine="27" fill="#FEFECE" filter="url(#f1rnj80m418pfh)" height="73.6094" id="BroilerFarm" style="stroke:#A80036;stroke-width:1.5;" width="250" x="694.5" y="669"/><ellipse cx="780.25" cy="685" fill="#ADD1B2" rx="11" ry="11" style="stroke:#A80036;stroke-width:1.0;"/><path d="M782.5938,680.6719 C781.6563,680.2344 781.0625,680.0938 780.1875,680.0938 C777.5625,680.0938 775.5625,682.1719 775.5625,684.8906 L775.5625,686.0156 C775.5625,688.5938 777.6719,690.4844 780.5625,690.4844 C781.7813,690.4844 782.9375,690.1875 783.6875,689.6406 C784.2656,689.2344 784.5938,688.7813 784.5938,688.3906 C784.5938,687.9375 784.2031,687.5469 783.7344,687.5469 C783.5156,687.5469 783.3125,687.625 783.125,687.8125 C782.6719,688.2969 782.6719,688.2969 782.4844,688.3906 C782.0625,688.6563 781.375,688.7813 780.6094,688.7813 C778.5625,688.7813 777.2656,687.6875 777.2656,685.9844 L777.2656,684.8906 C777.2656,683.1094 778.5156,681.7969 780.25,681.7969 C780.8281,681.7969 781.4375,681.9531 781.9063,682.2031 C782.3906,682.4844 782.5625,682.7031 782.6563,683.1094 C782.7188,683.5156 782.75,683.6406 782.8906,683.7656 C783.0313,683.9063 783.2656,684.0156 783.4844,684.0156 C783.75,684.0156 784.0156,683.875 784.1875,683.6563 C784.2969,683.5 784.3281,683.3125 784.3281,682.8906 L784.3281,681.4688 C784.3281,681.0313 784.3125,680.9063 784.2188,680.75 C784.0625,680.4844 783.7813,680.3438 783.4844,680.3438 C783.1875,680.3438 782.9844,680.4375 782.7656,680.75 L782.5938,680.6719 Z " fill="#000000"/><text fill="#000000" font-family="sans-serif" font-size="12" lengthAdjust="spacingAndGlyphs" textLength="70" x="800.75" y="689.1543">BroilerFarm</text><line style="stroke:#A80036;stroke-width:1.5;" x1="695.5" x2="943.5" y1="701" y2="701"/><text fill="#000000" font-family="sans-serif" font-size="11" lengthAdjust="spacingAndGlyphs" textLength="194" x="700.5" y="715.2104">a                       gs1:Organization</text><text fill="#000000" font-family="sans-serif" font-size="11" lengthAdjust="spacingAndGlyphs" textLength="238" x="700.5" y="728.0151">gs1:organizationName    "HatchingFirm A"</text><line style="stroke:#A80036;stroke-width:1.5;" x1="695.5" x2="943.5" y1="734.6094" y2="734.6094"/><!--MD5=[7d96f12224cae002404f1b4876dfa9d7]
class SlaughterHouse--><rect codeLine="32" fill="#FEFECE" filter="url(#f1rnj80m418pfh)" height="73.6094" id="SlaughterHouse" style="stroke:#A80036;stroke-width:1.5;" width="250" x="979.5" y="669"/><ellipse cx="1052.25" cy="685" fill="#ADD1B2" rx="11" ry="11" style="stroke:#A80036;stroke-width:1.0;"/><path d="M1054.5938,680.6719 C1053.6563,680.2344 1053.0625,680.0938 1052.1875,680.0938 C1049.5625,680.0938 1047.5625,682.1719 1047.5625,684.8906 L1047.5625,686.0156 C1047.5625,688.5938 1049.6719,690.4844 1052.5625,690.4844 C1053.7813,690.4844 1054.9375,690.1875 1055.6875,689.6406 C1056.2656,689.2344 1056.5938,688.7813 1056.5938,688.3906 C1056.5938,687.9375 1056.2031,687.5469 1055.7344,687.5469 C1055.5156,687.5469 1055.3125,687.625 1055.125,687.8125 C1054.6719,688.2969 1054.6719,688.2969 1054.4844,688.3906 C1054.0625,688.6563 1053.375,688.7813 1052.6094,688.7813 C1050.5625,688.7813 1049.2656,687.6875 1049.2656,685.9844 L1049.2656,684.8906 C1049.2656,683.1094 1050.5156,681.7969 1052.25,681.7969 C1052.8281,681.7969 1053.4375,681.9531 1053.9063,682.2031 C1054.3906,682.4844 1054.5625,682.7031 1054.6563,683.1094 C1054.7188,683.5156 1054.75,683.6406 1054.8906,683.7656 C1055.0313,683.9063 1055.2656,684.0156 1055.4844,684.0156 C1055.75,684.0156 1056.0156,683.875 1056.1875,683.6563 C1056.2969,683.5 1056.3281,683.3125 1056.3281,682.8906 L1056.3281,681.4688 C1056.3281,681.0313 1056.3125,680.9063 1056.2188,680.75 C1056.0625,680.4844 1055.7813,680.3438 1055.4844,680.3438 C1055.1875,680.3438 1054.9844,680.4375 1054.7656,680.75 L1054.5938,680.6719 Z " fill="#000000"/><text fill="#000000" font-family="sans-serif" font-size="12" lengthAdjust="spacingAndGlyphs" textLength="96" x="1072.75" y="689.1543">SlaughterHouse</text><line style="stroke:#A80036;stroke-width:1.5;" x1="980.5" x2="1228.5" y1="701" y2="701"/><text fill="#000000" font-family="sans-serif" font-size="11" lengthAdjust="spacingAndGlyphs" textLength="194" x="985.5" y="715.2104">a                       gs1:Organization</text><text fill="#000000" font-family="sans-serif" font-size="11" lengthAdjust="spacingAndGlyphs" textLength="238" x="985.5" y="728.0151">gs1:organizationName    "HatchingFirm A"</text><line style="stroke:#A80036;stroke-width:1.5;" x1="980.5" x2="1228.5" y1="734.6094" y2="734.6094"/><!--MD5=[df152c2476dc0702efc46fc22338464c]
class Processor--><rect codeLine="37" fill="#FEFECE" filter="url(#f1rnj80m418pfh)" height="73.6094" id="Processor" style="stroke:#A80036;stroke-width:1.5;" width="250" x="1389.5" y="669"/><ellipse cx="1479.75" cy="685" fill="#ADD1B2" rx="11" ry="11" style="stroke:#A80036;stroke-width:1.0;"/><path d="M1482.0938,680.6719 C1481.1563,680.2344 1480.5625,680.0938 1479.6875,680.0938 C1477.0625,680.0938 1475.0625,682.1719 1475.0625,684.8906 L1475.0625,686.0156 C1475.0625,688.5938 1477.1719,690.4844 1480.0625,690.4844 C1481.2813,690.4844 1482.4375,690.1875 1483.1875,689.6406 C1483.7656,689.2344 1484.0938,688.7813 1484.0938,688.3906 C1484.0938,687.9375 1483.7031,687.5469 1483.2344,687.5469 C1483.0156,687.5469 1482.8125,687.625 1482.625,687.8125 C1482.1719,688.2969 1482.1719,688.2969 1481.9844,688.3906 C1481.5625,688.6563 1480.875,688.7813 1480.1094,688.7813 C1478.0625,688.7813 1476.7656,687.6875 1476.7656,685.9844 L1476.7656,684.8906 C1476.7656,683.1094 1478.0156,681.7969 1479.75,681.7969 C1480.3281,681.7969 1480.9375,681.9531 1481.4063,682.2031 C1481.8906,682.4844 1482.0625,682.7031 1482.1563,683.1094 C1482.2188,683.5156 1482.25,683.6406 1482.3906,683.7656 C1482.5313,683.9063 1482.7656,684.0156 1482.9844,684.0156 C1483.25,684.0156 1483.5156,683.875 1483.6875,683.6563 C1483.7969,683.5 1483.8281,683.3125 1483.8281,682.8906 L1483.8281,681.4688 C1483.8281,681.0313 1483.8125,680.9063 1483.7188,680.75 C1483.5625,680.4844 1483.2813,680.3438 1482.9844,680.3438 C1482.6875,680.3438 1482.4844,680.4375 1482.2656,680.75 L1482.0938,680.6719 Z " fill="#000000"/><text fill="#000000" font-family="sans-serif" font-size="12" lengthAdjust="spacingAndGlyphs" textLength="61" x="1500.25" y="689.1543">Processor</text><line style="stroke:#A80036;stroke-width:1.5;" x1="1390.5" x2="1638.5" y1="701" y2="701"/><text fill="#000000" font-family="sans-serif" font-size="11" lengthAdjust="spacingAndGlyphs" textLength="194" x="1395.5" y="715.2104">a                       gs1:Organization</text><text fill="#000000" font-family="sans-serif" font-size="11" lengthAdjust="spacingAndGlyphs" textLength="238" x="1395.5" y="728.0151">gs1:organizationName    "HatchingFirm A"</text><line style="stroke:#A80036;stroke-width:1.5;" x1="1390.5" x2="1638.5" y1="734.6094" y2="734.6094"/><!--MD5=[0a1ff8a144461f3c9fca52fb42e7267b]
class Slaughter--><rect codeLine="42" fill="#FEFECE" filter="url(#f1rnj80m418pfh)" height="124.8281" id="Slaughter" style="stroke:#A80036;stroke-width:1.5;" width="405" x="810" y="7"/><ellipse cx="979.75" cy="23" fill="#ADD1B2" rx="11" ry="11" style="stroke:#A80036;stroke-width:1.0;"/><path d="M982.0938,18.6719 C981.1563,18.2344 980.5625,18.0938 979.6875,18.0938 C977.0625,18.0938 975.0625,20.1719 975.0625,22.8906 L975.0625,24.0156 C975.0625,26.5938 977.1719,28.4844 980.0625,28.4844 C981.2813,28.4844 982.4375,28.1875 983.1875,27.6406 C983.7656,27.2344 984.0938,26.7813 984.0938,26.3906 C984.0938,25.9375 983.7031,25.5469 983.2344,25.5469 C983.0156,25.5469 982.8125,25.625 982.625,25.8125 C982.1719,26.2969 982.1719,26.2969 981.9844,26.3906 C981.5625,26.6563 980.875,26.7813 980.1094,26.7813 C978.0625,26.7813 976.7656,25.6875 976.7656,23.9844 L976.7656,22.8906 C976.7656,21.1094 978.0156,19.7969 979.75,19.7969 C980.3281,19.7969 980.9375,19.9531 981.4063,20.2031 C981.8906,20.4844 982.0625,20.7031 982.1563,21.1094 C982.2188,21.5156 982.25,21.6406 982.3906,21.7656 C982.5313,21.9063 982.7656,22.0156 982.9844,22.0156 C983.25,22.0156 983.5156,21.875 983.6875,21.6563 C983.7969,21.5 983.8281,21.3125 983.8281,20.8906 L983.8281,19.4688 C983.8281,19.0313 983.8125,18.9063 983.7188,18.75 C983.5625,18.4844 983.2813,18.3438 982.9844,18.3438 C982.6875,18.3438 982.4844,18.4375 982.2656,18.75 L982.0938,18.6719 Z " fill="#000000"/><text fill="#000000" font-family="sans-serif" font-size="12" lengthAdjust="spacingAndGlyphs" textLength="57" x="1000.25" y="27.1543">Slaughter</text><line style="stroke:#A80036;stroke-width:1.5;" x1="811" x2="1214" y1="39" y2="39"/><text fill="#000000" font-family="sans-serif" font-size="11" lengthAdjust="spacingAndGlyphs" textLength="274" x="816" y="53.2104">a                       gs1-epcis:TransformationEvent</text><text fill="#000000" font-family="sans-serif" font-size="11" lengthAdjust="spacingAndGlyphs" textLength="252" x="816" y="66.0151">eventTime               "2020-05-02T09:00:00"</text><text fill="#000000" font-family="sans-serif" font-size="11" lengthAdjust="spacingAndGlyphs" textLength="250" x="816" y="78.8198">recordTime              "2020-11-09T09:00:00"</text><text fill="#000000" font-family="sans-serif" font-size="11" lengthAdjust="spacingAndGlyphs" textLength="181" x="816" y="91.6245">eventTimeZoneOffset     "+02"</text><text fill="#000000" font-family="sans-serif" font-size="11" lengthAdjust="spacingAndGlyphs" textLength="208" x="816" y="104.4292">eventID                 "Killing a broiler"</text><text fill="#000000" font-family="sans-serif" font-size="11" lengthAdjust="spacingAndGlyphs" textLength="393" x="816" y="117.2339">bizStep                 urn:epcglobal:cbv:bizstep:creating_class_instance</text><line style="stroke:#A80036;stroke-width:1.5;" x1="811" x2="1214" y1="123.8281" y2="123.8281"/><!--MD5=[46bbea9c56b8a201ea937a11af0bdcab]
class Packaging--><rect codeLine="51" fill="#FEFECE" filter="url(#f1rnj80m418pfh)" height="124.8281" id="Packaging" style="stroke:#A80036;stroke-width:1.5;" width="405" x="1250" y="7"/><ellipse cx="1418.25" cy="23" fill="#ADD1B2" rx="11" ry="11" style="stroke:#A80036;stroke-width:1.0;"/><path d="M1420.5938,18.6719 C1419.6563,18.2344 1419.0625,18.0938 1418.1875,18.0938 C1415.5625,18.0938 1413.5625,20.1719 1413.5625,22.8906 L1413.5625,24.0156 C1413.5625,26.5938 1415.6719,28.4844 1418.5625,28.4844 C1419.7813,28.4844 1420.9375,28.1875 1421.6875,27.6406 C1422.2656,27.2344 1422.5938,26.7813 1422.5938,26.3906 C1422.5938,25.9375 1422.2031,25.5469 1421.7344,25.5469 C1421.5156,25.5469 1421.3125,25.625 1421.125,25.8125 C1420.6719,26.2969 1420.6719,26.2969 1420.4844,26.3906 C1420.0625,26.6563 1419.375,26.7813 1418.6094,26.7813 C1416.5625,26.7813 1415.2656,25.6875 1415.2656,23.9844 L1415.2656,22.8906 C1415.2656,21.1094 1416.5156,19.7969 1418.25,19.7969 C1418.8281,19.7969 1419.4375,19.9531 1419.9063,20.2031 C1420.3906,20.4844 1420.5625,20.7031 1420.6563,21.1094 C1420.7188,21.5156 1420.75,21.6406 1420.8906,21.7656 C1421.0313,21.9063 1421.2656,22.0156 1421.4844,22.0156 C1421.75,22.0156 1422.0156,21.875 1422.1875,21.6563 C1422.2969,21.5 1422.3281,21.3125 1422.3281,20.8906 L1422.3281,19.4688 C1422.3281,19.0313 1422.3125,18.9063 1422.2188,18.75 C1422.0625,18.4844 1421.7813,18.3438 1421.4844,18.3438 C1421.1875,18.3438 1420.9844,18.4375 1420.7656,18.75 L1420.5938,18.6719 Z " fill="#000000"/><text fill="#000000" font-family="sans-serif" font-size="12" lengthAdjust="spacingAndGlyphs" textLength="60" x="1438.75" y="27.1543">Packaging</text><line style="stroke:#A80036;stroke-width:1.5;" x1="1251" x2="1654" y1="39" y2="39"/><text fill="#000000" font-family="sans-serif" font-size="11" lengthAdjust="spacingAndGlyphs" textLength="274" x="1256" y="53.2104">a                       gs1-epcis:TransformationEvent</text><text fill="#000000" font-family="sans-serif" font-size="11" lengthAdjust="spacingAndGlyphs" textLength="252" x="1256" y="66.0151">eventTime               "2020-05-02T09:00:00"</text><text fill="#000000" font-family="sans-serif" font-size="11" lengthAdjust="spacingAndGlyphs" textLength="250" x="1256" y="78.8198">recordTime              "2020-11-09T09:00:00"</text><text fill="#000000" font-family="sans-serif" font-size="11" lengthAdjust="spacingAndGlyphs" textLength="181" x="1256" y="91.6245">eventTimeZoneOffset     "+02"</text><text fill="#000000" font-family="sans-serif" font-size="11" lengthAdjust="spacingAndGlyphs" textLength="237" x="1256" y="104.4292">eventID                 "Packaging the meat"</text><text fill="#000000" font-family="sans-serif" font-size="11" lengthAdjust="spacingAndGlyphs" textLength="393" x="1256" y="117.2339">bizStep                 urn:epcglobal:cbv:bizstep:creating_class_instance</text><line style="stroke:#A80036;stroke-width:1.5;" x1="1251" x2="1654" y1="123.8281" y2="123.8281"/><!--MD5=[b49af97de98bee1cb71803291b422f02]
class TransportEvent4--><rect codeLine="60" fill="#FEFECE" filter="url(#f1rnj80m418pfh)" height="124.8281" id="TransportEvent4" style="stroke:#A80036;stroke-width:1.5;" width="324" x="636.5" y="385"/><ellipse cx="744.75" cy="401" fill="#ADD1B2" rx="11" ry="11" style="stroke:#A80036;stroke-width:1.0;"/><path d="M747.0938,396.6719 C746.1563,396.2344 745.5625,396.0938 744.6875,396.0938 C742.0625,396.0938 740.0625,398.1719 740.0625,400.8906 L740.0625,402.0156 C740.0625,404.5938 742.1719,406.4844 745.0625,406.4844 C746.2813,406.4844 747.4375,406.1875 748.1875,405.6406 C748.7656,405.2344 749.0938,404.7813 749.0938,404.3906 C749.0938,403.9375 748.7031,403.5469 748.2344,403.5469 C748.0156,403.5469 747.8125,403.625 747.625,403.8125 C747.1719,404.2969 747.1719,404.2969 746.9844,404.3906 C746.5625,404.6563 745.875,404.7813 745.1094,404.7813 C743.0625,404.7813 741.7656,403.6875 741.7656,401.9844 L741.7656,400.8906 C741.7656,399.1094 743.0156,397.7969 744.75,397.7969 C745.3281,397.7969 745.9375,397.9531 746.4063,398.2031 C746.8906,398.4844 747.0625,398.7031 747.1563,399.1094 C747.2188,399.5156 747.25,399.6406 747.3906,399.7656 C747.5313,399.9063 747.7656,400.0156 747.9844,400.0156 C748.25,400.0156 748.5156,399.875 748.6875,399.6563 C748.7969,399.5 748.8281,399.3125 748.8281,398.8906 L748.8281,397.4688 C748.8281,397.0313 748.8125,396.9063 748.7188,396.75 C748.5625,396.4844 748.2813,396.3438 747.9844,396.3438 C747.6875,396.3438 747.4844,396.4375 747.2656,396.75 L747.0938,396.6719 Z " fill="#000000"/><text fill="#000000" font-family="sans-serif" font-size="12" lengthAdjust="spacingAndGlyphs" textLength="99" x="765.25" y="405.1543">TransportEvent4</text><line style="stroke:#A80036;stroke-width:1.5;" x1="637.5" x2="959.5" y1="417" y2="417"/><text fill="#000000" font-family="sans-serif" font-size="11" lengthAdjust="spacingAndGlyphs" textLength="226" x="642.5" y="431.2104">a                       gs1-epcis:ObjectEvent</text><text fill="#000000" font-family="sans-serif" font-size="11" lengthAdjust="spacingAndGlyphs" textLength="252" x="642.5" y="444.0151">eventTime               "2020-21-01T09:00:00"</text><text fill="#000000" font-family="sans-serif" font-size="11" lengthAdjust="spacingAndGlyphs" textLength="250" x="642.5" y="456.8198">recordTime              "2020-11-09T09:00:00"</text><text fill="#000000" font-family="sans-serif" font-size="11" lengthAdjust="spacingAndGlyphs" textLength="181" x="642.5" y="469.6245">eventTimeZoneOffset     "+02"</text><text fill="#000000" font-family="sans-serif" font-size="11" lengthAdjust="spacingAndGlyphs" textLength="131" x="642.5" y="482.4292">eventID                 "4"</text><text fill="#000000" font-family="sans-serif" font-size="11" lengthAdjust="spacingAndGlyphs" textLength="312" x="642.5" y="495.2339">bizStep                 urn:epcglobal:cbv:bizstep:receiving</text><line style="stroke:#A80036;stroke-width:1.5;" x1="637.5" x2="959.5" y1="501.8281" y2="501.8281"/><!--MD5=[96ce1dbf43cb5909f5210561edb3034c]
class TransportEvent5--><rect codeLine="69" fill="#FEFECE" filter="url(#f1rnj80m418pfh)" height="124.8281" id="TransportEvent5" style="stroke:#A80036;stroke-width:1.5;" width="324" x="1066.5" y="385"/><ellipse cx="1174.75" cy="401" fill="#ADD1B2" rx="11" ry="11" style="stroke:#A80036;stroke-width:1.0;"/><path d="M1177.0938,396.6719 C1176.1563,396.2344 1175.5625,396.0938 1174.6875,396.0938 C1172.0625,396.0938 1170.0625,398.1719 1170.0625,400.8906 L1170.0625,402.0156 C1170.0625,404.5938 1172.1719,406.4844 1175.0625,406.4844 C1176.2813,406.4844 1177.4375,406.1875 1178.1875,405.6406 C1178.7656,405.2344 1179.0938,404.7813 1179.0938,404.3906 C1179.0938,403.9375 1178.7031,403.5469 1178.2344,403.5469 C1178.0156,403.5469 1177.8125,403.625 1177.625,403.8125 C1177.1719,404.2969 1177.1719,404.2969 1176.9844,404.3906 C1176.5625,404.6563 1175.875,404.7813 1175.1094,404.7813 C1173.0625,404.7813 1171.7656,403.6875 1171.7656,401.9844 L1171.7656,400.8906 C1171.7656,399.1094 1173.0156,397.7969 1174.75,397.7969 C1175.3281,397.7969 1175.9375,397.9531 1176.4063,398.2031 C1176.8906,398.4844 1177.0625,398.7031 1177.1563,399.1094 C1177.2188,399.5156 1177.25,399.6406 1177.3906,399.7656 C1177.5313,399.9063 1177.7656,400.0156 1177.9844,400.0156 C1178.25,400.0156 1178.5156,399.875 1178.6875,399.6563 C1178.7969,399.5 1178.8281,399.3125 1178.8281,398.8906 L1178.8281,397.4688 C1178.8281,397.0313 1178.8125,396.9063 1178.7188,396.75 C1178.5625,396.4844 1178.2813,396.3438 1177.9844,396.3438 C1177.6875,396.3438 1177.4844,396.4375 1177.2656,396.75 L1177.0938,396.6719 Z " fill="#000000"/><text fill="#000000" font-family="sans-serif" font-size="12" lengthAdjust="spacingAndGlyphs" textLength="99" x="1195.25" y="405.1543">TransportEvent5</text><line style="stroke:#A80036;stroke-width:1.5;" x1="1067.5" x2="1389.5" y1="417" y2="417"/><text fill="#000000" font-family="sans-serif" font-size="11" lengthAdjust="spacingAndGlyphs" textLength="226" x="1072.5" y="431.2104">a                       gs1-epcis:ObjectEvent</text><text fill="#000000" font-family="sans-serif" font-size="11" lengthAdjust="spacingAndGlyphs" textLength="252" x="1072.5" y="444.0151">eventTime               "2020-28-01T09:00:00"</text><text fill="#000000" font-family="sans-serif" font-size="11" lengthAdjust="spacingAndGlyphs" textLength="250" x="1072.5" y="456.8198">recordTime              "2020-11-09T09:00:00"</text><text fill="#000000" font-family="sans-serif" font-size="11" lengthAdjust="spacingAndGlyphs" textLength="181" x="1072.5" y="469.6245">eventTimeZoneOffset     "+02"</text><text fill="#000000" font-family="sans-serif" font-size="11" lengthAdjust="spacingAndGlyphs" textLength="131" x="1072.5" y="482.4292">eventID                 "5"</text><text fill="#000000" font-family="sans-serif" font-size="11" lengthAdjust="spacingAndGlyphs" textLength="312" x="1072.5" y="495.2339">bizStep                 urn:epcglobal:cbv:bizstep:receiving</text><line style="stroke:#A80036;stroke-width:1.5;" x1="1067.5" x2="1389.5" y1="501.8281" y2="501.8281"/><!--MD5=[914dda0f3408553e9dbeb676f62d87a9]
class CertificateGrant1--><rect codeLine="94" fill="#FEFECE" filter="url(#f1rnj80m418pfh)" height="150.4375" id="CertificateGrant1" style="stroke:#A80036;stroke-width:1.5;" width="394" x="622.5" y="820"/><ellipse cx="765.25" cy="836" fill="#ADD1B2" rx="11" ry="11" style="stroke:#A80036;stroke-width:1.0;"/><path d="M767.5938,831.6719 C766.6563,831.2344 766.0625,831.0938 765.1875,831.0938 C762.5625,831.0938 760.5625,833.1719 760.5625,835.8906 L760.5625,837.0156 C760.5625,839.5938 762.6719,841.4844 765.5625,841.4844 C766.7813,841.4844 767.9375,841.1875 768.6875,840.6406 C769.2656,840.2344 769.5938,839.7813 769.5938,839.3906 C769.5938,838.9375 769.2031,838.5469 768.7344,838.5469 C768.5156,838.5469 768.3125,838.625 768.125,838.8125 C767.6719,839.2969 767.6719,839.2969 767.4844,839.3906 C767.0625,839.6563 766.375,839.7813 765.6094,839.7813 C763.5625,839.7813 762.2656,838.6875 762.2656,836.9844 L762.2656,835.8906 C762.2656,834.1094 763.5156,832.7969 765.25,832.7969 C765.8281,832.7969 766.4375,832.9531 766.9063,833.2031 C767.3906,833.4844 767.5625,833.7031 767.6563,834.1094 C767.7188,834.5156 767.75,834.6406 767.8906,834.7656 C768.0313,834.9063 768.2656,835.0156 768.4844,835.0156 C768.75,835.0156 769.0156,834.875 769.1875,834.6563 C769.2969,834.5 769.3281,834.3125 769.3281,833.8906 L769.3281,832.4688 C769.3281,832.0313 769.3125,831.9063 769.2188,831.75 C769.0625,831.4844 768.7813,831.3438 768.4844,831.3438 C768.1875,831.3438 767.9844,831.4375 767.7656,831.75 L767.5938,831.6719 Z " fill="#000000"/><text fill="#000000" font-family="sans-serif" font-size="12" lengthAdjust="spacingAndGlyphs" textLength="100" x="785.75" y="840.1543">CertificateGrant1</text><line style="stroke:#A80036;stroke-width:1.5;" x1="623.5" x2="1015.5" y1="852" y2="852"/><text fill="#000000" font-family="sans-serif" font-size="11" lengthAdjust="spacingAndGlyphs" textLength="253" x="628.5" y="866.2104">a                                 fsm:CertificateGrant</text><text fill="#000000" font-family="sans-serif" font-size="11" lengthAdjust="spacingAndGlyphs" textLength="350" x="628.5" y="879.0151">gs1-epcis:eventTime               "2019-08-22"^^xsd:dateTime</text><text fill="#000000" font-family="sans-serif" font-size="11" lengthAdjust="spacingAndGlyphs" textLength="330" x="628.5" y="891.8198">gs1-epcis:recordTime              "2020-12-02"xsd:dateTime</text><text fill="#000000" font-family="sans-serif" font-size="11" lengthAdjust="spacingAndGlyphs" textLength="229" x="628.5" y="904.6245">gs1-epcis:eventTimeZoneOffset     "00"</text><text fill="#000000" font-family="sans-serif" font-size="11" lengthAdjust="spacingAndGlyphs" textLength="280" x="628.5" y="917.4292">gs1-epcis:eventID                 "certificate_grant2"</text><text fill="#000000" font-family="sans-serif" font-size="11" lengthAdjust="spacingAndGlyphs" textLength="359" x="628.5" y="930.2339">gs1-epcis:action                  &lt;taxonomy/action_type/observe&gt;</text><text fill="#000000" font-family="sans-serif" font-size="11" lengthAdjust="spacingAndGlyphs" textLength="382" x="628.5" y="943.0386">gs1-epcis:businessStep            urn:epcglobal:cbv:bizstep:receiving</text><text fill="#000000" font-family="sans-serif" font-size="11" lengthAdjust="spacingAndGlyphs" textLength="332" x="628.5" y="955.8433">gs1-epcis:disposition             urn:epcglobal:cbv:disp:active</text><line style="stroke:#A80036;stroke-width:1.5;" x1="623.5" x2="1015.5" y1="962.4375" y2="962.4375"/><!--MD5=[25e1014d96d4838ec0aac029c2b177b9]
class TheIslamicFoodAndNutritionCouncilOfAmerica--><rect codeLine="105" fill="#FEFECE" filter="url(#f1rnj80m418pfh)" height="73.6094" id="TheIslamicFoodAndNutritionCouncilOfAmerica" style="stroke:#A80036;stroke-width:1.5;" width="451" x="1043" y="1053"/><ellipse cx="1128.25" cy="1069" fill="#ADD1B2" rx="11" ry="11" style="stroke:#A80036;stroke-width:1.0;"/><path d="M1130.5938,1064.6719 C1129.6563,1064.2344 1129.0625,1064.0938 1128.1875,1064.0938 C1125.5625,1064.0938 1123.5625,1066.1719 1123.5625,1068.8906 L1123.5625,1070.0156 C1123.5625,1072.5938 1125.6719,1074.4844 1128.5625,1074.4844 C1129.7813,1074.4844 1130.9375,1074.1875 1131.6875,1073.6406 C1132.2656,1073.2344 1132.5938,1072.7813 1132.5938,1072.3906 C1132.5938,1071.9375 1132.2031,1071.5469 1131.7344,1071.5469 C1131.5156,1071.5469 1131.3125,1071.625 1131.125,1071.8125 C1130.6719,1072.2969 1130.6719,1072.2969 1130.4844,1072.3906 C1130.0625,1072.6563 1129.375,1072.7813 1128.6094,1072.7813 C1126.5625,1072.7813 1125.2656,1071.6875 1125.2656,1069.9844 L1125.2656,1068.8906 C1125.2656,1067.1094 1126.5156,1065.7969 1128.25,1065.7969 C1128.8281,1065.7969 1129.4375,1065.9531 1129.9063,1066.2031 C1130.3906,1066.4844 1130.5625,1066.7031 1130.6563,1067.1094 C1130.7188,1067.5156 1130.75,1067.6406 1130.8906,1067.7656 C1131.0313,1067.9063 1131.2656,1068.0156 1131.4844,1068.0156 C1131.75,1068.0156 1132.0156,1067.875 1132.1875,1067.6563 C1132.2969,1067.5 1132.3281,1067.3125 1132.3281,1066.8906 L1132.3281,1065.4688 C1132.3281,1065.0313 1132.3125,1064.9063 1132.2188,1064.75 C1132.0625,1064.4844 1131.7813,1064.3438 1131.4844,1064.3438 C1131.1875,1064.3438 1130.9844,1064.4375 1130.7656,1064.75 L1130.5938,1064.6719 Z " fill="#000000"/><text fill="#000000" font-family="sans-serif" font-size="12" lengthAdjust="spacingAndGlyphs" textLength="272" x="1148.75" y="1073.1543">TheIslamicFoodAndNutritionCouncilOfAmerica</text><line style="stroke:#A80036;stroke-width:1.5;" x1="1044" x2="1493" y1="1085" y2="1085"/><text fill="#000000" font-family="sans-serif" font-size="11" lengthAdjust="spacingAndGlyphs" textLength="220" x="1049" y="1099.2104">a                       fsm:CertificationBody</text><text fill="#000000" font-family="sans-serif" font-size="11" lengthAdjust="spacingAndGlyphs" textLength="439" x="1049" y="1112.0151">gs1:organizationName    "The Islamic Food And Nutrition Council Of America"</text><line style="stroke:#A80036;stroke-width:1.5;" x1="1044" x2="1493" y1="1118.6094" y2="1118.6094"/><!--MD5=[c988def7f7b4ca7830822af1ae1340a5]
class Halal_Certificate--><rect codeLine="110" fill="#FEFECE" filter="url(#f1rnj80m418pfh)" height="86.4141" id="Halal_Certificate" style="stroke:#A80036;stroke-width:1.5;" width="1001" x="7" y="1047"/><ellipse cx="455.25" cy="1063" fill="#ADD1B2" rx="11" ry="11" style="stroke:#A80036;stroke-width:1.0;"/><path d="M457.5938,1058.6719 C456.6563,1058.2344 456.0625,1058.0938 455.1875,1058.0938 C452.5625,1058.0938 450.5625,1060.1719 450.5625,1062.8906 L450.5625,1064.0156 C450.5625,1066.5938 452.6719,1068.4844 455.5625,1068.4844 C456.7813,1068.4844 457.9375,1068.1875 458.6875,1067.6406 C459.2656,1067.2344 459.5938,1066.7813 459.5938,1066.3906 C459.5938,1065.9375 459.2031,1065.5469 458.7344,1065.5469 C458.5156,1065.5469 458.3125,1065.625 458.125,1065.8125 C457.6719,1066.2969 457.6719,1066.2969 457.4844,1066.3906 C457.0625,1066.6563 456.375,1066.7813 455.6094,1066.7813 C453.5625,1066.7813 452.2656,1065.6875 452.2656,1063.9844 L452.2656,1062.8906 C452.2656,1061.1094 453.5156,1059.7969 455.25,1059.7969 C455.8281,1059.7969 456.4375,1059.9531 456.9063,1060.2031 C457.3906,1060.4844 457.5625,1060.7031 457.6563,1061.1094 C457.7188,1061.5156 457.75,1061.6406 457.8906,1061.7656 C458.0313,1061.9063 458.2656,1062.0156 458.4844,1062.0156 C458.75,1062.0156 459.0156,1061.875 459.1875,1061.6563 C459.2969,1061.5 459.3281,1061.3125 459.3281,1060.8906 L459.3281,1059.4688 C459.3281,1059.0313 459.3125,1058.9063 459.2188,1058.75 C459.0625,1058.4844 458.7813,1058.3438 458.4844,1058.3438 C458.1875,1058.3438 457.9844,1058.4375 457.7656,1058.75 L457.5938,1058.6719 Z " fill="#000000"/><text fill="#000000" font-family="sans-serif" font-size="12" lengthAdjust="spacingAndGlyphs" textLength="96" x="475.75" y="1067.1543">Halal_Certificate</text><line style="stroke:#A80036;stroke-width:1.5;" x1="8" x2="1007" y1="1079" y2="1079"/><text fill="#000000" font-family="sans-serif" font-size="11" lengthAdjust="spacingAndGlyphs" textLength="198" x="13" y="1093.2104">a                           fsm:Certificate</text><text fill="#000000" font-family="sans-serif" font-size="11" lengthAdjust="spacingAndGlyphs" textLength="989" x="13" y="1106.0151">gs1:linkType                https://www.nuskin.com/content/nuskin/en_MY/products/nu_skin/halal_certificate/_jcr_content/bodyContent/image_fef8.img.jpg/16eb5681485-cache.jpg</text><text fill="#000000" font-family="sans-serif" font-size="11" lengthAdjust="spacingAndGlyphs" textLength="289" x="13" y="1118.8198">gs1:expirationDate          "2021-03-31"^^xsd:date</text><line style="stroke:#A80036;stroke-width:1.5;" x1="8" x2="1007" y1="1125.4141" y2="1125.4141"/><!--MD5=[cc6149aabfe228229e91640a3bb42d8f]
link TransportEvent4 to BroilerFarm--><path codeLine="78" d="M802.535,510.313 C805.096,547.608 808.646,596.062 812.5,639 C813.217,646.983 814.06,655.501 814.91,663.674 " fill="none" id="TransportEvent4-to-BroilerFarm" style="stroke:#A80036;stroke-width:1.0;"/><polygon fill="#A80036" points="815.438,668.71,818.4776,659.3419,814.9166,663.7373,810.5213,660.1762,815.438,668.71" style="stroke:#A80036;stroke-width:1.0;"/><text fill="#000000" font-family="sans-serif" font-size="13" lengthAdjust="spacingAndGlyphs" textLength="43" x="813.5" y="594.0669">source</text><!--MD5=[bfb2375a70658f755afe5873f6addd36]
link TransportEvent4 to SlaughterHouse--><path codeLine="79" d="M842.485,510.397 C849.041,520.184 855.579,530.283 861.5,540 C887.47,582.62 876.547,606.589 914.5,639 C931.905,653.863 952.852,665.442 974.386,674.444 " fill="none" id="TransportEvent4-to-SlaughterHouse" style="stroke:#A80036;stroke-width:1.0;"/><polygon fill="#A80036" points="979.281,676.442,972.461,669.3365,974.652,674.5518,969.4367,676.7429,979.281,676.442" style="stroke:#A80036;stroke-width:1.0;"/><text fill="#000000" font-family="sans-serif" font-size="13" lengthAdjust="spacingAndGlyphs" textLength="71" x="915.5" y="594.0669">destination</text><!--MD5=[58711871456bec357c22be4d1a49f7c1]
reverse link Broiler2 to TransportEvent4--><path codeLine="80" d="M685.596,312.021 C704.553,334.601 726.848,361.156 746.596,384.678 " fill="none" id="Broiler2-backto-TransportEvent4" style="stroke:#A80036;stroke-width:1.0;"/><polygon fill="#A80036" points="682.34,308.144,685.0655,317.6082,685.5558,311.9727,691.1914,312.463,682.34,308.144" style="stroke:#A80036;stroke-width:1.0;"/><text fill="#000000" font-family="sans-serif" font-size="13" lengthAdjust="spacingAndGlyphs" textLength="23" x="721.5" y="351.0669">epc</text><!--MD5=[f4b7208829d7b0c7a429398fb98ca500]
link Slaughter to SlaughterHouse--><path codeLine="82" d="M1013.71,132.15 C1016.26,217.629 1024.15,376.699 1048.5,510 C1058.37,564.051 1077.01,624.636 1090.06,663.722 " fill="none" id="Slaughter-to-SlaughterHouse" style="stroke:#A80036;stroke-width:1.0;"/><polygon fill="#A80036" points="1091.78,668.854,1092.7092,659.0491,1090.1894,664.1137,1085.1248,661.594,1091.78,668.854" style="stroke:#A80036;stroke-width:1.0;"/><text fill="#000000" font-family="sans-serif" font-size="13" lengthAdjust="spacingAndGlyphs" textLength="122" x="1028.5" y="351.0669">source, destination</text><!--MD5=[4c1de30c830cba304120dd6370d64b4c]
link Slaughter to Broiler2--><path codeLine="83" d="M890.25,132.12 C842.384,156.246 788.135,183.59 742.541,206.571 " fill="none" id="Slaughter-to-Broiler2" style="stroke:#A80036;stroke-width:1.0;"/><polygon fill="#A80036" points="737.875,208.923,747.7121,208.4418,742.3394,206.6715,744.1097,201.2988,737.875,208.923" style="stroke:#A80036;stroke-width:1.0;"/><text fill="#000000" font-family="sans-serif" font-size="13" lengthAdjust="spacingAndGlyphs" textLength="55" x="828.5" y="175.0669">inputEpc</text><!--MD5=[6a1782ea8f8eec6ba3026e3cfd9cad99]
link Slaughter to BroilerMeat--><path codeLine="84" d="M1065.66,132.25 C1089.83,160.322 1117.73,192.729 1139.1,217.544 " fill="none" id="Slaughter-to-BroilerMeat" style="stroke:#A80036;stroke-width:1.0;"/><polygon fill="#A80036" points="1142.47,221.46,1139.6242,212.0313,1139.2057,217.6726,1133.5643,217.2541,1142.47,221.46" style="stroke:#A80036;stroke-width:1.0;"/><text fill="#000000" font-family="sans-serif" font-size="13" lengthAdjust="spacingAndGlyphs" textLength="65" x="1104.5" y="175.0669">outputEpc</text><!--MD5=[bae620ec5c7e8a0fb1e2fc5452763814]
link TransportEvent5 to SlaughterHouse--><path codeLine="86" d="M1198.64,510.265 C1175.59,557.939 1144.36,622.555 1124.31,664.019 " fill="none" id="TransportEvent5-to-SlaughterHouse" style="stroke:#A80036;stroke-width:1.0;"/><polygon fill="#A80036" points="1122.04,668.708,1129.5587,662.3465,1124.2164,664.2065,1122.3564,658.8642,1122.04,668.708" style="stroke:#A80036;stroke-width:1.0;"/><text fill="#000000" font-family="sans-serif" font-size="13" lengthAdjust="spacingAndGlyphs" textLength="43" x="1182.5" y="594.0669">source</text><!--MD5=[f382f96fd48298e859154845fa09c5dd]
link TransportEvent5 to Processor--><path codeLine="87" d="M1297.37,510.265 C1351.06,558.422 1424.04,623.867 1470.2,665.274 " fill="none" id="TransportEvent5-to-Processor" style="stroke:#A80036;stroke-width:1.0;"/><polygon fill="#A80036" points="1474.03,668.708,1470.0076,659.718,1470.3103,665.3667,1464.6616,665.6694,1474.03,668.708" style="stroke:#A80036;stroke-width:1.0;"/><text fill="#000000" font-family="sans-serif" font-size="13" lengthAdjust="spacingAndGlyphs" textLength="71" x="1438.5" y="594.0669">destination</text><!--MD5=[5e2a090eb6cba67a54092e3c5e848f47]
reverse link BroilerMeat to TransportEvent5--><path codeLine="88" d="M1185.53,300.395 C1192.79,325.095 1202.19,357.056 1210.35,384.783 " fill="none" id="BroilerMeat-backto-TransportEvent5" style="stroke:#A80036;stroke-width:1.0;"/><polygon fill="#A80036" points="1184.1,295.555,1182.8093,305.3189,1185.5144,300.3508,1190.4825,303.0559,1184.1,295.555" style="stroke:#A80036;stroke-width:1.0;"/><text fill="#000000" font-family="sans-serif" font-size="13" lengthAdjust="spacingAndGlyphs" textLength="23" x="1202.5" y="351.0669">epc</text><!--MD5=[d462bbd100a9a240f560f3c5ac5e02d0]
link Packaging to Processor--><path codeLine="90" d="M1543.59,132.01 C1567.62,153.301 1590.47,179.367 1603.5,209 C1673.13,367.34 1582.12,576.952 1537.07,664.195 " fill="none" id="Packaging-to-Processor" style="stroke:#A80036;stroke-width:1.0;"/><polygon fill="#A80036" points="1534.7,668.76,1542.4057,662.6263,1537.0101,664.3257,1535.3108,658.9301,1534.7,668.76" style="stroke:#A80036;stroke-width:1.0;"/><text fill="#000000" font-family="sans-serif" font-size="13" lengthAdjust="spacingAndGlyphs" textLength="122" x="1629.5" y="351.0669">source, destination</text><!--MD5=[a98b644a4adb0239987202fed39b36f4]
link Packaging to BroilerMeat--><path codeLine="91" d="M1360.37,132.25 C1317.97,160.669 1268.94,193.529 1231.75,218.46 " fill="none" id="Packaging-to-BroilerMeat" style="stroke:#A80036;stroke-width:1.0;"/><polygon fill="#A80036" points="1227.27,221.46,1236.9725,219.7682,1231.4223,218.6746,1232.5159,213.1245,1227.27,221.46" style="stroke:#A80036;stroke-width:1.0;"/><text fill="#000000" font-family="sans-serif" font-size="13" lengthAdjust="spacingAndGlyphs" textLength="55" x="1313.5" y="175.0669">inputEpc</text><!--MD5=[a946b883ef177de980d9cd88821f8716]
link Packaging to BroilerPackagedMeat--><path codeLine="92" d="M1451.84,132.25 C1451.54,159.86 1451.2,191.663 1450.94,216.313 " fill="none" id="Packaging-to-BroilerPackagedMeat" style="stroke:#A80036;stroke-width:1.0;"/><polygon fill="#A80036" points="1450.89,221.46,1454.9849,212.5028,1450.9429,216.4603,1446.9854,212.4182,1450.89,221.46" style="stroke:#A80036;stroke-width:1.0;"/><text fill="#000000" font-family="sans-serif" font-size="13" lengthAdjust="spacingAndGlyphs" textLength="65" x="1452.5" y="175.0669">outputEpc</text><!--MD5=[39a0e92d0bad071769ea7068e025fab5]
reverse link BroilerFarm to CertificateGrant1--><path codeLine="117" d="M819.5,748.275 C819.5,769.258 819.5,795.408 819.5,819.74 " fill="none" id="BroilerFarm-backto-CertificateGrant1" style="stroke:#A80036;stroke-width:1.0;"/><polygon fill="#A80036" points="819.5,743.055,815.5,752.055,819.5,748.055,823.5,752.055,819.5,743.055" style="stroke:#A80036;stroke-width:1.0;"/><text fill="#000000" font-family="sans-serif" font-size="13" lengthAdjust="spacingAndGlyphs" textLength="137" x="820.5" y="786.0669">gs1-epcis:destination</text><!--MD5=[b8734f6c6f94c321079032501b6e9546]
link CertificateGrant1 to TheIslamicFoodAndNutritionCouncilOfAmerica--><path codeLine="118" d="M991.811,970.067 C1056.03,997.67 1126.27,1027.865 1179.92,1050.9237 " fill="none" id="CertificateGrant1-to-TheIslamicFoodAndNutritionCouncilOfAmerica" style="stroke:#A80036;stroke-width:1.0;"/><polygon fill="#A80036" points="1184.73,1052.9917,1178.0559,1045.749,1180.1404,1051.0078,1174.8817,1053.0923,1184.73,1052.9917" style="stroke:#A80036;stroke-width:1.0;"/><text fill="#000000" font-family="sans-serif" font-size="13" lengthAdjust="spacingAndGlyphs" textLength="109" x="1098.5" y="1013.0669">gs1-epcis:source</text><!--MD5=[a7a0afdbaa331c215f2f56416f572d52]
link CertificateGrant1 to Halal_Certificate--><path codeLine="119" d="M699.765,970.067 C659.307,995.094 615.404,1022.252 579.779,1044.2892 " fill="none" id="CertificateGrant1-to-Halal_Certificate" style="stroke:#A80036;stroke-width:1.0;"/><polygon fill="#A80036" points="575.476,1046.9508,585.234,1045.6162,579.7277,1044.3197,581.0243,1038.8134,575.476,1046.9508" style="stroke:#A80036;stroke-width:1.0;"/><text fill="#000000" font-family="sans-serif" font-size="13" lengthAdjust="spacingAndGlyphs" textLength="23" x="646.5" y="1013.0669">epc</text><!--MD5=[52dae24bb993f8a68e797ff7103f643d]
reverse link Broiler to Halal_Certificate--><path codeLine="120" d="M445.491,644.323 C447.347,684.551 450.722,740.844 456.5,790 C467.32,882.047 487.368,988.854 498.841,1046.6187 " fill="none" id="Broiler-backto-Halal_Certificate" style="stroke:#A80036;stroke-width:1.0;"/><polygon fill="#A80036" points="445.251,639.004,441.664,648.1764,445.4782,643.9988,449.6558,647.813,445.251,639.004" style="stroke:#A80036;stroke-width:1.0;"/><text fill="#000000" font-family="sans-serif" font-size="13" lengthAdjust="spacingAndGlyphs" textLength="79" x="457.5" y="786.0669">fsm:product</text><!--MD5=[7b0ebe3a7a9c328901ba0af64b074abc]
link Broiler2 to Broiler--><path codeLine="121" d="M544.327,278.554 C511.079,290.101 477.107,308.559 456.5,338 C416.222,395.546 421.539,480.021 430.985,534.646 " fill="none" id="Broiler2-to-Broiler" style="stroke:#A80036;stroke-width:1.0;"/><polygon fill="#A80036" points="431.91,539.837,434.2661,530.2741,431.0313,534.9148,426.3906,531.68,431.91,539.837" style="stroke:#A80036;stroke-width:1.0;"/><text fill="#000000" font-family="sans-serif" font-size="13" lengthAdjust="spacingAndGlyphs" textLength="79" x="457.5" y="351.0669">fsm:product</text><!--MD5=[b1150edf46550551a10b3e592e5165f7]
link Broiler2 to Halal_Certificate--><path codeLine="122" d="M608.873,308.005 C587.499,344.477 563.5,396.55 563.5,446.5 C563.5,446.5 563.5,446.5 563.5,896 C563.5,947.253 545.059,1003.238 529.342,1041.6467 " fill="none" id="Broiler2-to-Halal_Certificate" style="stroke:#A80036;stroke-width:1.0;stroke-dasharray:7.0,7.0;"/><polygon fill="#A80036" points="527.244,1046.7118,534.3848,1039.9288,529.1582,1042.0927,526.9943,1036.8661,527.244,1046.7118" style="stroke:#A80036;stroke-width:1.0;"/><text fill="#000000" font-family="sans-serif" font-size="13" lengthAdjust="spacingAndGlyphs" textLength="94" x="564.5" y="710.5669">fsm:certificate</text><!--MD5=[54437c43ead62963243ac62116f4e3ec]
@startuml
class Broiler {
    "gtin/1111111111111"
    a                       gs1:Product
    gs1:productName         "Broiler"
    gs1:hasBatchLotNumber   "1"
}

class Broiler2 {
    "gtin/1111111111111/lot/1"
    a                       fsm:Batch
    gs1:productName         "Broiler"
    gs1:hasBatchLotNumber   "1"
}


class BroilerMeat {
    a                   gs1:Product
    gs1:productName     "Broiler meat"
}

class BroilerPackagedMeat {
    a                   gs1:Product
    gs1:productName     "Broiler packaged meat"
}


class BroilerFarm {
    a                       gs1:Organization
    gs1:organizationName    "HatchingFirm A"
}

class SlaughterHouse {
    a                       gs1:Organization
    gs1:organizationName    "HatchingFirm A"
}

class Processor {
    a                       gs1:Organization
    gs1:organizationName    "HatchingFirm A"
}

class Slaughter {
    a                       gs1-epcis:TransformationEvent
    eventTime               "2020-05-02T09:00:00"
    recordTime              "2020-11-09T09:00:00"
    eventTimeZoneOffset     "+02"
    eventID                 "Killing a broiler" 
    bizStep                 urn:epcglobal:cbv:bizstep:creating_class_instance
}

class Packaging {
    a                       gs1-epcis:TransformationEvent
    eventTime               "2020-05-02T09:00:00"
    recordTime              "2020-11-09T09:00:00"
    eventTimeZoneOffset     "+02"
    eventID                 "Packaging the meat" 
    bizStep                 urn:epcglobal:cbv:bizstep:creating_class_instance
}

class TransportEvent4 {
    a                       gs1-epcis:ObjectEvent
    eventTime               "2020-21-01T09:00:00"
    recordTime              "2020-11-09T09:00:00"
    eventTimeZoneOffset     "+02"
    eventID                 "4" 
    bizStep                 urn:epcglobal:cbv:bizstep:receiving 
}

class TransportEvent5 {
    a                       gs1-epcis:ObjectEvent
    eventTime               "2020-28-01T09:00:00"
    recordTime              "2020-11-09T09:00:00"
    eventTimeZoneOffset     "+02"
    eventID                 "5" 
    bizStep                 urn:epcglobal:cbv:bizstep:receiving 
}

TransportEvent4 - -> BroilerFarm : source
TransportEvent4 - -> SlaughterHouse : destination
TransportEvent4 -up-> Broiler2 : epc

Slaughter - -> SlaughterHouse : source, destination
Slaughter - -> Broiler2 : inputEpc
Slaughter - -> BroilerMeat : outputEpc

TransportEvent5 - -> SlaughterHouse : source
TransportEvent5 - -> Processor : destination
TransportEvent5 -up-> BroilerMeat : epc

Packaging - -> Processor : source, destination
Packaging - -> BroilerMeat : inputEpc
Packaging - -> BroilerPackagedMeat : outputEpc

class CertificateGrant1 {
    a                                 fsm:CertificateGrant
    gs1-epcis:eventTime               "2019-08-22"^^xsd:dateTime
    gs1-epcis:recordTime              "2020-12-02"xsd:dateTime
    gs1-epcis:eventTimeZoneOffset     "00"
    gs1-epcis:eventID                 "certificate_grant2"
    gs1-epcis:action                  <taxonomy/action_type/observe>
    gs1-epcis:businessStep            urn:epcglobal:cbv:bizstep:receiving
    gs1-epcis:disposition             urn:epcglobal:cbv:disp:active 
}

class TheIslamicFoodAndNutritionCouncilOfAmerica {
    a                       fsm:CertificationBody
    gs1:organizationName    "The Islamic Food And Nutrition Council Of America"
}

class Halal_Certificate {
    a                           fsm:Certificate
    gs1:linkType                https://www.nuskin.com/content/nuskin/en_MY/products/nu_skin/halal_certificate/_jcr_content/bodyContent/image_fef8.img.jpg/16eb5681485-cache.jpg 
    gs1:expirationDate          "2021-03-31"^^xsd:date
}


CertificateGrant1 -up-> BroilerFarm : gs1-epcis:destination
CertificateGrant1 - -> TheIslamicFoodAndNutritionCouncilOfAmerica : gs1-epcis:source
CertificateGrant1 - -> Halal_Certificate : epc
Halal_Certificate -up-> Broiler : fsm:product
Broiler2 - -> Broiler : fsm:product
Broiler2 -[dashed]-> Halal_Certificate : fsm:certificate
@enduml

PlantUML version 1.2020.22(Sun Dec 06 09:36:27 UTC 2020)
(GPL source distribution)
Java Runtime: Java(TM) SE Runtime Environment
JVM: Java HotSpot(TM) 64-Bit Server VM
Default Encoding: UTF-8
Language: en
Country: US
--></g></svg>